<svg width="85" height="120" viewBox="0 0 85 120" fill="none" xmlns="http://www.w3.org/2000/svg">
<g clip-path="url(#clip0_549_375)">
<path d="M81.1749 118.935C82.0365 118.846 82.9183 118.726 83.6467 118.268C83.7286 118.208 83.8209 118.148 83.8619 118.059C83.9439 117.86 83.7592 117.65 83.5641 117.541C83.0926 117.271 82.508 117.271 81.9546 117.282C75.9557 117.391 69.9666 117.63 63.9676 117.87C62.6248 117.919 61.2709 117.979 59.9378 118.208C59.6199 118.258 59.2815 118.347 59.0969 118.587C58.215 119.712 61.4146 119.553 61.7937 119.573C63.3525 119.642 64.9216 119.683 66.4803 119.692C69.6076 119.712 72.7355 119.623 75.853 119.414C77.6269 119.294 79.4009 119.134 81.1749 118.935Z" fill="url(#paint0_linear_549_375)"/>
<path opacity="0.22" d="M81.1727 118.935C82.0343 118.846 82.9161 118.726 83.6444 118.268C83.7263 118.208 83.8187 118.148 83.8596 118.059C83.9416 117.86 83.7569 117.65 83.5618 117.541C83.0904 117.271 82.5058 117.271 81.9524 117.282C75.9534 117.391 69.9643 117.63 63.9654 117.87C62.6225 117.919 61.2686 117.979 59.9356 118.208C59.6177 118.258 59.2793 118.347 59.0948 118.587C58.2128 119.712 61.4123 119.553 61.7915 119.573C63.3502 119.642 64.9193 119.683 66.4781 119.692C69.6059 119.712 72.7332 119.623 75.8507 119.414C77.6247 119.294 79.3987 119.134 81.1727 118.935Z" fill="url(#paint1_linear_549_375)"/>
<path d="M67.3091 117.8C67.3091 117.361 67.2577 116.923 67.1446 116.494C67.114 116.365 67.0626 116.225 66.9703 116.126C66.796 115.957 66.5294 115.957 66.2836 115.957C65.4324 115.987 64.5915 116.016 63.7403 116.047C63.8223 116.345 63.6376 116.674 63.371 116.843C63.1043 117.023 62.7766 117.083 62.4586 117.142C62.1198 117.202 61.7816 117.261 61.4435 117.321C61.0434 117.391 60.623 117.471 60.3051 117.73C59.9872 117.979 59.8231 118.457 60.059 118.786C60.2538 119.045 60.6127 119.114 60.9409 119.155C62.787 119.333 64.6533 118.995 66.478 118.666C66.7245 118.627 66.9911 118.567 67.1446 118.378C67.2883 118.228 67.3091 118.009 67.3091 117.8Z" fill="#4D4D4D"/>
<path d="M79.4034 117.331C79.352 116.893 79.2499 116.465 79.0854 116.056C79.034 115.927 78.9729 115.797 78.8701 115.717C78.6854 115.568 78.409 115.598 78.1626 115.628C77.3218 115.747 76.4913 115.877 75.6505 115.997C75.7734 116.285 75.6193 116.634 75.3735 116.833C75.1271 117.033 74.8091 117.132 74.5015 117.222C74.1737 117.321 73.8453 117.421 73.5176 117.52C73.1274 117.64 72.7177 117.76 72.4407 118.049C72.1533 118.328 72.0512 118.826 72.3178 119.124C72.533 119.364 72.9122 119.393 73.2405 119.393C75.0965 119.364 76.9114 118.836 78.6854 118.297C78.9215 118.228 79.1881 118.138 79.311 117.939C79.4339 117.76 79.4242 117.541 79.4034 117.331Z" fill="#4D4D4D"/>
<path d="M58.9252 79.4964C58.7714 79.6955 58.7611 79.9943 58.7611 80.2634C58.6176 92.2277 61.0787 104.003 63.5298 115.638C63.5708 115.817 63.6117 115.997 63.7139 116.126C63.8576 116.295 64.0832 116.325 64.2985 116.355C65.2934 116.455 66.2981 116.565 67.293 116.664C68.2568 104.042 68.5852 91.361 68.2978 78.6992C65.4267 78.8685 62.5551 79.0378 59.684 79.2071C59.4174 79.2273 59.1098 79.257 58.9252 79.4964Z" fill="#89796D"/>
<path d="M67.4521 80.0144C67.3188 80.2337 67.3396 80.5224 67.3598 80.7915C68.3241 92.7154 71.8617 104.202 75.3791 115.548C75.4305 115.718 75.4917 115.897 75.6152 116.017C75.7791 116.176 76.0047 116.186 76.22 116.186C77.2247 116.196 78.23 116.196 79.2347 116.206C79.0195 103.554 78.1786 90.8929 76.7226 78.3208C73.8822 78.7687 71.0417 79.2071 68.2006 79.6556C67.9138 79.6954 67.6166 79.7649 67.4521 80.0144Z" fill="#998675"/>
<path d="M57.599 23.6096C56.994 22.7928 56.6043 21.7168 56.512 20.4118C56.3582 18.021 56.4813 15.5404 57.4964 13.3488C58.6655 10.8285 61.6293 8.31803 64.7052 8.96555C68.3045 9.72268 68.0789 14.2354 67.8227 17.234C67.6282 19.6148 66.7458 22.0356 64.9308 23.6495C62.2237 26.0702 59.1782 25.7614 57.599 23.6096Z" fill="#CEBFB2"/>
<path d="M71.9479 26.4189C72.7374 26.8672 73.322 27.5746 73.8552 28.2819C79.4334 35.7035 81.4643 45.0478 82.7148 54.153C83.9764 63.2982 84.6019 72.5329 84.5811 81.7675C74.4087 82.6242 64.1952 83.1125 53.992 83.2218C53.3357 76.0794 52.6794 68.9263 52.0231 61.784C51.4694 55.7169 51.5514 50.0188 52.3205 43.9719C53.0896 37.925 55.2943 32.675 58.9757 27.0167C62.5441 29.6864 68.0508 24.2074 71.9479 26.4189Z" fill="#97A8B2"/>
<path d="M80.5605 57.9784C76.7661 58.7854 72.9924 59.0743 69.1472 59.5325C63.5788 60.2002 57.5492 61.2956 51.9092 60.3695C51.9399 60.8376 51.981 61.3057 52.022 61.7739L52.0425 61.9634C54.6882 62.5212 57.7851 62.2818 60.2974 62.3519C63.7739 62.4511 67.2601 62.5212 70.747 62.4214C75.0948 62.302 79.3093 61.5749 83.5037 60.6778C83.3905 59.5824 83.2676 58.4865 83.1447 57.3907C82.2727 57.5999 81.4221 57.7991 80.5605 57.9784Z" fill="#ABBCC4"/>
<path d="M68.8182 65.4297C64.7364 65.46 60.6245 65.4297 56.5432 65.201C55.1076 65.1214 53.6924 65.0911 52.3081 64.9218L52.5029 66.9939C58.1327 68.3988 64.3059 67.8208 69.9972 67.2333C74.6936 66.745 79.3185 66.0772 83.9231 65.2307C83.8822 64.6925 83.8308 64.1549 83.7794 63.6166C78.8672 64.623 73.9451 65.4 68.8182 65.4297Z" fill="#ABBCC4"/>
<path d="M69.2695 70.2814C63.9065 70.7994 58.1434 71.2473 52.7905 70.1216L52.9546 71.8652C63.4246 73.0604 73.9353 72.5626 84.3132 70.9687C84.2619 70.0521 84.2001 69.1354 84.1389 68.2188C79.2267 69.0956 74.2838 69.7931 69.2695 70.2814Z" fill="#ABBCC4"/>
<path d="M53.2229 74.8539L53.4895 77.7624C59.7242 78.6594 66.4308 78.0814 72.604 77.6234C76.5825 77.3245 80.5922 76.8861 84.5095 76.099C84.4893 75.3719 84.4685 74.6543 84.438 73.9271C74.1114 75.4812 63.6723 75.9499 53.2229 74.8539Z" fill="#ABBCC4"/>
<path d="M71.8023 80.6519C65.9055 81.0101 59.7121 81.5085 53.7747 80.7915L54.0002 83.2218C64.2141 83.1125 74.4171 82.6343 84.5896 81.7675C84.5896 80.8907 84.5792 80.0145 84.5694 79.1376C80.3543 79.9545 76.037 80.3929 71.8023 80.6519Z" fill="#ABBCC4"/>
<path d="M64.5608 19.1369C65.0328 20.6312 65.1863 22.2152 65.0023 23.7592C67.2172 23.032 68.2836 20.8304 68.8578 18.7982C69.3703 17.0051 69.6883 15.1322 69.3599 13.3092C69.0217 11.4861 67.9657 9.70296 66.1917 8.72668C63.1457 7.04311 58.9108 8.10904 55.8344 6.46533C55.578 7.073 55.6909 7.79026 56.1215 8.31826C55.2089 8.32824 54.286 8.33816 53.3733 8.33816C53.4349 10.211 55.5371 11.4762 57.5162 12.1237C59.9363 12.9107 62.5201 13.2693 65.094 13.1697C64.8586 14.0464 64.6329 14.913 64.3969 15.7897C65.5765 15.3913 67.0527 16.2479 67.104 17.3637C67.1658 18.4694 65.7709 19.4457 64.5608 19.1369Z" fill="#534741"/>
<path d="M63.2602 8.65686C64.9418 10.3404 68.1107 10.2707 69.7104 8.5074C69.9874 8.19861 70.2332 7.83997 70.3256 7.4315C70.4387 6.94336 70.336 6.43532 70.1513 5.96708C69.6285 4.64217 68.4183 3.58622 67.0032 3.23755C65.5882 2.88889 64.0087 3.24752 62.9012 4.17398C62.6242 4.06439 62.2757 4.14409 62.0708 4.36326C62.4707 5.16021 62.6964 6.03688 62.7166 6.92346C62.727 7.31197 62.6964 7.72039 62.8603 8.089C62.9422 8.30815 63.0963 8.4875 63.2602 8.65686Z" fill="#E8DBD1"/>
<path d="M65.3835 0.547893C65.0863 0.697325 64.7885 1.08585 65.0551 1.27512C64.1531 1.03604 63.1172 1.32494 62.4916 1.99239C62.4097 2.07208 62.3381 2.18165 62.3583 2.29123C62.3791 2.40081 62.5638 2.47056 62.6145 2.37094C62.2764 2.21155 61.8147 2.31118 61.589 2.60008C61.4147 3.34722 61.5383 4.15411 61.9278 4.82156C61.9993 4.95107 62.1021 5.08059 62.2458 5.11047C62.3583 5.13039 62.4812 5.09054 62.5944 5.04073C63.0353 4.86141 63.4762 4.67215 63.9171 4.49284C63.9274 5.03078 64.3787 5.52886 64.9322 5.59859C65.4862 5.66832 66.0604 5.3097 66.2139 4.79168C66.7061 5.33958 67.8136 5.11046 68.0295 4.41312C67.5372 4.70202 67.9677 5.54879 68.5523 5.56871C69.1265 5.58863 69.598 5.1304 69.9569 4.68211C69.8646 4.47292 69.7723 4.27368 69.6799 4.06448C69.4445 4.10433 69.3931 4.5028 69.6188 4.59246C69.875 4.80166 70.3159 4.6024 70.4388 4.29358C70.5721 3.98477 70.4902 3.63612 70.4082 3.31733C70.2541 2.68973 69.8236 1.89278 69.1779 2.0721C69.598 2.05217 69.8444 1.5441 69.7111 1.15559C69.5778 0.767073 69.1779 0.527974 68.7676 0.428355C68.3878 0.338698 67.9879 0.348659 67.6087 0.45824C67.6497 0.298849 67.6087 0.119543 67.506 0C66.7679 0.0398477 66.0396 0.21915 65.3835 0.547893Z" fill="#EFAB50"/>
<path d="M58.5945 27.9532C60.8812 28.1225 63.9677 29.3876 66.2443 29.0789C68.5106 28.77 70.9407 28.1026 72.305 26.4489C73.6485 24.8151 74.0894 22.6534 74.0068 20.4817C73.9249 18.31 73.6895 16.1184 72.7251 14.116C72.1717 12.9505 71.5253 11.775 70.4693 10.9183C69.4132 10.0615 67.8746 9.56341 66.5109 9.98181C64.9932 10.4401 64.1218 11.8946 63.9267 13.2992C63.7322 14.7038 64.0704 16.1184 64.1933 17.533C64.3266 18.9476 64.2141 20.4618 63.2601 21.6074C61.9069 23.2312 59.8148 24.2971 57.9382 25.4527C58.2971 26.9669 57.7024 26.6183 58.5945 27.9532Z" fill="#CAE0DF"/>
<path d="M54.2569 19.8443C54.1953 19.9638 54.062 20.0235 53.939 20.0933C53.5493 20.3323 53.293 20.7607 53.2827 21.199C53.98 21.3585 54.6363 20.8703 55.2311 20.4818C57.2615 19.1369 59.7328 18.609 61.948 17.563C62.3271 17.3836 62.7166 17.1744 62.9117 16.8058C63.1068 16.4472 62.9936 15.8993 62.6041 15.7798C62.3583 15.7 62.1014 15.7897 61.8556 15.8894C59.9379 16.6464 58.0614 17.4932 56.2361 18.4296C55.631 18.7384 54.9235 19.0572 54.3082 18.7783C53.9288 18.9377 54.4312 19.5055 54.2569 19.8443Z" fill="#E8DBD1"/>
<path d="M62.9142 17.4133C63.1086 17.3834 63.2829 17.2638 63.437 17.1443C64.3494 16.427 65.0569 15.4906 65.488 14.4347C65.6109 14.1358 65.7136 13.817 65.6519 13.5082C65.6005 13.1894 65.3443 12.8906 65.0263 12.8607C64.7597 12.8408 64.5236 13.0002 64.3084 13.1496C63.6217 13.6278 62.9239 14.096 62.2372 14.5742C62.1241 14.6538 62.0012 14.7336 61.9296 14.8531C61.7553 15.132 61.8783 15.4807 62.022 15.7795C62.2886 16.3374 62.5858 16.8853 62.9142 17.4133Z" fill="#DFEFEF"/>
<path d="M58.8381 26.4788C58.8073 26.0803 58.7048 25.5822 58.2946 25.4925C58.0074 25.4328 57.7203 25.632 57.5255 25.8512C56.7154 26.7577 56.5719 28.0428 56.459 29.2382C56.4386 29.5072 56.6026 30.344 56.5821 30.613C56.859 30.613 57.1461 30.0252 57.3102 29.816C57.6691 29.3677 57.6896 28.5907 58.2126 28.3416C58.4074 28.252 58.6228 28.232 58.7868 27.8535C58.8791 27.6343 58.8996 27.3853 58.8791 27.1462C58.8689 26.927 58.8586 26.7079 58.8381 26.4788Z" fill="#E8DBD1"/>
<path d="M69.4724 17.1345C69.5751 17.2839 69.7904 17.3138 69.9751 17.3337C70.6416 17.3935 71.472 17.3636 71.7698 16.7859C71.8622 16.6065 71.8824 16.4073 71.8928 16.208C72.0469 13.7076 70.3034 11.0876 68.0164 9.94199C68.601 9.6531 69.4724 10.0018 70.016 10.3505C70.5701 10.6991 71.1033 11.1075 71.4519 11.6455C73.5952 14.8831 74.4874 18.8878 73.9132 22.6932C73.6668 24.327 73.1133 26.0006 71.8622 27.1163C71.2054 27.6941 70.3958 28.0827 69.5751 28.4014C67.6269 29.1386 65.3398 29.6367 63.3506 28.9992C62.5715 28.7501 61.8328 28.6505 61.0537 28.4014C60.2743 28.1623 59.7001 28.1823 58.7567 27.993C58.8079 27.5049 58.8592 27.0068 58.7362 26.5286C58.6233 26.0504 58.3054 25.5922 57.8235 25.4327C58.9515 24.1676 60.5717 23.4404 61.9563 22.4442C63.3402 21.448 64.3865 19.9239 64.2226 18.2502C64.8683 18.2901 65.7196 18.3797 66.3653 18.4196C66.5396 18.4296 66.7243 18.4395 66.8784 18.3598C67.1144 18.2502 67.2061 17.9812 67.2679 17.7322C67.463 17.0149 67.5449 16.2678 67.5755 15.5207C67.6061 14.7437 67.5651 13.9566 67.2575 13.2394C66.8374 12.2532 65.9042 11.4861 64.8378 11.237C64.9815 10.5198 65.8321 10.0814 66.5708 10.201C67.3089 10.3205 67.9039 10.8884 68.2524 11.5359C68.5906 12.1834 68.7141 12.9206 68.837 13.6379C69.0217 14.7138 69.196 15.7996 69.3801 16.8755C69.4112 16.985 69.4314 17.0648 69.4724 17.1345Z" fill="#68889B"/>
<path d="M65.2304 19.2166C65.1998 19.2066 65.1588 19.2066 65.1276 19.1966C65.097 19.1866 65.0665 19.1966 65.0457 19.2066C64.9943 19.2066 64.9436 19.1966 64.8922 19.1966C64.7277 19.2066 64.6971 19.4158 64.8512 19.4656C64.9436 19.4955 65.0353 19.5154 65.138 19.5353C65.3533 19.5752 65.4456 19.2564 65.2304 19.2166Z" fill="#736357"/>
<path d="M66.7086 19.1568C66.5961 19.1667 66.4934 19.1667 66.3802 19.1767C66.1858 19.1866 66.1858 19.4656 66.3802 19.4755C66.4934 19.4855 66.5961 19.4855 66.7086 19.4954C66.9239 19.5054 66.9239 19.1468 66.7086 19.1568Z" fill="#736357"/>
<path d="M68.1234 19.077C68.0103 19.087 67.9082 19.087 67.795 19.087C67.6416 19.077 67.6208 19.3062 67.7645 19.336C67.8874 19.3659 68.0005 19.3858 68.1234 19.3759C68.3179 19.3559 68.3283 19.0671 68.1234 19.077Z" fill="#736357"/>
<path d="M70.0577 18.9377C69.9347 18.9675 69.8014 18.9974 69.6785 19.0173C69.4938 19.0572 69.5758 19.3063 69.7501 19.2764C69.8834 19.2564 70.0063 19.2365 70.1396 19.2166C70.3243 19.1867 70.2423 18.8978 70.0577 18.9377Z" fill="#736357"/>
<path d="M71.1762 18.559C71.0942 18.5989 71.0123 18.6487 70.9304 18.6985C70.797 18.7881 70.879 19.0073 71.0429 18.9575C71.1352 18.9276 71.2276 18.8977 71.3095 18.8579C71.5352 18.7682 71.3914 18.4495 71.1762 18.559Z" fill="#736357"/>
<path d="M72.4676 18.0312C72.3857 18.091 72.3038 18.1607 72.2316 18.2304C72.0983 18.3599 72.2726 18.589 72.4371 18.4795C72.519 18.4197 72.6009 18.3599 72.6829 18.2902C72.8162 18.1607 72.6211 17.9117 72.4676 18.0312Z" fill="#736357"/>
<path d="M73.1226 17.5332C73.1226 17.6129 73.1122 17.7026 73.1018 17.7822C73.0921 17.9416 73.3483 17.9715 73.3893 17.8221C73.41 17.7424 73.4198 17.6627 73.4406 17.5731C73.5018 17.3539 73.1434 17.3041 73.1226 17.5332Z" fill="#736357"/>
<path d="M61.7951 26.4788C61.8972 26.5386 62.0208 26.5087 62.1333 26.4788C62.9227 26.2597 63.7226 25.9907 64.4099 25.5623C65.1071 25.124 65.7021 24.5064 65.9583 23.7393C65.9687 23.6995 65.9889 23.6496 65.9785 23.5998C65.9687 23.55 65.9173 23.5102 65.8659 23.4703C65.1071 22.9025 64.1329 22.4941 63.7538 21.6374C63.0768 22.3546 62.2256 22.8925 61.323 23.3209C60.9438 23.5002 60.5028 23.7094 60.4207 24.1179C60.4105 24.1577 60.4105 24.2075 60.4207 24.2474C60.4413 24.3071 60.4925 24.3569 60.5438 24.4067C61.0668 24.9049 61.3744 25.5823 61.641 26.2497C61.6716 26.3393 61.7126 26.439 61.7951 26.4788Z" fill="#84A1AF"/>
<path d="M65.2807 36.9588C64.9523 35.6039 63.281 34.4982 62.0605 35.2253C61.3731 35.6437 61.0761 36.4606 60.8402 37.2178C60.2146 39.1902 59.5891 41.1527 58.9636 43.1152C58.5329 44.48 58.0919 45.8647 58.0304 47.2992C53.8158 48.4548 49.4986 49.2617 45.1405 49.7399C44.2688 49.3215 43.1818 49.3514 42.341 49.8295C42.5152 50.0088 42.3819 50.3276 42.1563 50.4472C41.9308 50.5667 41.6641 50.5568 41.418 50.5667C40.9566 50.5867 40.4644 50.6962 40.1259 51.005C39.7875 51.3138 39.6645 51.8717 39.9516 52.2304C40.167 52.4993 40.5464 52.589 40.895 52.6487C42.0128 52.8281 43.151 52.838 44.2688 52.6786C44.7098 52.6189 45.1815 52.4894 45.5609 52.2602C49.837 52.2403 54.1029 52.2204 58.3791 52.2005C58.7175 52.2005 59.0764 52.1905 59.3635 52.0311C59.7327 51.8219 59.9275 51.4135 60.0916 51.0349C61.548 47.6877 63.0144 44.3405 64.4704 40.9933C65.0446 39.7082 65.6085 38.3136 65.2807 36.9588Z" fill="#CEBFB2"/>
<path d="M21.8445 118.129C23.9877 118.109 26.1412 118.089 28.2844 117.959C29.0637 117.91 29.8533 117.85 30.5507 117.521C30.8685 117.372 31.1967 117.122 31.2274 116.784C31.2582 116.465 31.0121 116.176 30.7147 116.036C30.4173 115.897 30.0789 115.887 29.7508 115.877C21.424 115.589 13.0871 115.788 4.77067 116.156C3.60165 116.206 2.42237 116.266 1.30462 116.585C0.925199 116.694 0.535537 116.844 0.289428 117.132C-0.869341 118.527 1.78659 118.308 2.3711 118.298C3.9298 118.288 5.47823 118.268 7.0369 118.258C10.1748 118.229 13.3025 118.198 16.4403 118.179C18.2452 118.158 20.05 118.149 21.8445 118.129Z" fill="url(#paint2_linear_549_375)"/>
<path opacity="0.22" d="M21.8445 118.129C23.9877 118.109 26.1412 118.089 28.2844 117.959C29.0637 117.91 29.8533 117.85 30.5507 117.521C30.8685 117.372 31.1967 117.122 31.2274 116.784C31.2582 116.465 31.0121 116.176 30.7147 116.036C30.4173 115.897 30.0789 115.887 29.7508 115.877C21.424 115.589 13.0871 115.788 4.77067 116.156C3.60165 116.206 2.42237 116.266 1.30462 116.585C0.925199 116.694 0.535537 116.844 0.289428 117.132C-0.869341 118.527 1.78659 118.308 2.3711 118.298C3.9298 118.288 5.47823 118.268 7.0369 118.258C10.1748 118.229 13.3025 118.198 16.4403 118.179C18.2452 118.158 20.05 118.149 21.8445 118.129Z" fill="url(#paint3_linear_549_375)"/>
<path d="M26.3766 33.3925C26.4381 33.0239 26.7252 32.735 27.0124 32.476C27.1559 32.3465 27.3098 32.207 27.4636 32.0875C28.2737 31.4698 29.3299 31.161 30.3656 31.2507C30.663 31.2706 30.9706 31.3403 31.1859 31.5296C31.3603 31.689 31.4628 31.9082 31.5039 32.1373C31.5141 32.1871 31.5244 32.2468 31.5039 32.2967C31.4628 32.486 31.227 32.5556 31.0322 32.5855C30.8271 32.6155 30.6117 32.6553 30.4477 32.7748C30.2836 32.8944 30.1811 33.1335 30.2836 33.3028C30.3348 33.3825 30.4169 33.4423 30.4374 33.5319C30.4682 33.6814 30.3143 33.8109 30.1605 33.8607C29.5965 34.04 28.9812 33.7511 28.407 33.8706C28.2327 33.9105 28.0583 33.9803 27.884 34.03C27.7097 34.0699 27.5148 34.0898 27.3507 34.0002C27.1867 33.9803 27.0124 33.9504 26.8483 33.9105C26.6842 33.8707 26.4996 33.8109 26.4176 33.6714C26.3663 33.5917 26.3561 33.4821 26.3766 33.3925Z" fill="#EADDD0"/>
<path d="M35.6956 26.997C34.3523 26.8077 32.9884 26.6085 31.6245 26.6682C31.3579 26.6781 31.0708 26.7081 30.876 26.8774C30.6913 27.0368 30.6298 27.2859 30.5683 27.525C29.1737 33.3427 27.7893 39.1605 26.3947 44.9782C26.3742 45.0778 26.3434 45.1774 26.3639 45.2771C26.405 45.5062 26.6408 45.6357 26.8459 45.7353C30.3325 47.379 34.3522 47.4488 38.2182 47.4787C38.5566 47.4787 38.9156 47.4787 39.1822 47.2894C39.4796 47.0901 39.5923 46.7315 39.6949 46.3928C41.2741 40.9038 41.6433 35.1458 42.9661 29.5871C43.0584 29.1986 43.1609 28.7802 43.0276 28.3916C42.7405 27.5549 40.7306 27.7142 40.0025 27.6146C38.5669 27.4054 37.1312 27.2061 35.6956 26.997Z" fill="#545454"/>
<path d="M35.6265 27.7441C34.3856 27.5647 33.1243 27.3854 31.8733 27.4153C31.6272 27.4252 31.3606 27.4452 31.1862 27.5946C31.0221 27.7341 30.9606 27.9433 30.9094 28.1525C29.6891 33.1932 28.4688 38.234 27.2485 43.2846C27.228 43.3644 27.2075 43.454 27.228 43.5437C27.269 43.7429 27.4843 43.8624 27.6792 43.9521C30.9094 45.4165 34.6215 45.5161 38.1901 45.5859C38.4977 45.5958 38.8259 45.5958 39.0822 45.4365C39.3488 45.2671 39.4617 44.9483 39.5437 44.6594C40.9383 39.8976 41.2254 34.9067 42.3842 30.0851C42.4663 29.7464 42.5483 29.3878 42.4252 29.0491C42.1484 28.3119 40.3026 28.4414 39.6257 28.3418C38.2824 28.1326 36.9493 27.9333 35.6265 27.7441Z" fill="#F7F7F7"/>
<path d="M19.3727 41.073C20.4084 39.8278 21.116 38.3534 22.1722 37.1281C23.5976 35.4744 25.1152 34.2889 26.0587 32.3364C26.4996 33.0038 27.9763 33.6713 28.4172 34.3387C26.7047 36.6001 24.9922 38.5028 24.2744 41.6109C23.936 43.0454 22.3363 45.1872 21.5672 46.4624C21.157 47.1398 20.6033 47.7275 20.0187 48.2754C18.7574 49.4609 17.2602 50.497 15.5375 50.7958C12.9226 51.2441 10.3692 49.5705 10.4204 46.8509C10.4717 44.4102 13.8763 44.6393 15.599 43.8822C17.0654 43.2347 18.378 42.2784 19.3727 41.073Z" fill="#E0C74E"/>
<path d="M5.00507 115.14C3.91809 115.23 2.7901 114.961 1.87744 114.373C3.45664 110.906 5.03585 107.439 6.61505 103.973C7.11753 102.877 7.62001 101.771 7.91739 100.615C8.28656 99.1907 8.3378 97.6966 8.38911 96.2323C8.58393 90.524 8.77876 84.8156 8.97359 79.0978C8.99414 78.6196 9.01462 78.1218 9.21972 77.6929C9.82475 76.4477 11.568 76.3384 12.9831 76.3978C13.2907 76.4079 13.6291 76.4382 13.8548 76.6473C14.1111 76.8861 14.1419 77.2646 14.1419 77.6133C14.224 82.1162 15.0238 78.0416 15.1058 82.5547C15.1366 84.1384 14.4495 94.3194 14.1214 95.864C13.5369 98.6032 12.655 101.462 11.127 103.843C8.79925 107.509 7.32263 110.816 5.00507 115.14Z" fill="#4D4D4D"/>
<path d="M18.0159 78.3802C19.9745 78.1414 21.9331 77.902 23.8918 77.6632C23.9943 77.4042 23.5021 77.6632 23.5329 77.9424C24.5378 86.5592 24.6301 95.2759 23.7995 103.913C23.4406 107.639 22.9073 111.374 23.2765 115.1C22.4664 115.18 21.6665 115.249 20.8565 115.329C19.4003 103.723 17.9339 92.1077 16.4777 80.5022C16.4059 79.9147 16.3547 79.2374 16.7854 78.8186C17.093 78.5097 17.575 78.4402 18.0159 78.3802Z" fill="#4D4D4D"/>
<path d="M21.2073 39.6286C20.5407 37.7955 19.8742 35.9726 19.2076 34.1395C17.4438 35.2353 14.993 35.1756 13.2908 33.9802C14.8187 50.4472 14.388 67.0236 13.9573 83.5604C17.3208 82.2256 21.0022 81.638 24.6323 81.8673C24.7246 75.3422 24.8169 68.8271 24.899 62.302C24.9605 58.0283 25.0117 53.7247 24.2119 49.5108C23.5761 46.1337 22.3866 42.8761 21.2073 39.6286Z" fill="#E0C74E"/>
<path d="M9.58575 31.8285C9.20631 31.6392 8.80638 31.4101 8.38597 31.4699C7.72969 31.5695 7.41177 32.2768 7.21694 32.8944C1.87431 49.74 3.72015 67.8309 5.60699 85.364C9.63706 84.6867 13.7799 84.6368 17.8304 85.2345C18.579 83.043 18.7533 80.7214 18.8764 78.4105C19.707 63.0493 18.3739 47.5684 14.9181 32.5557C13.1338 32.9143 11.2059 32.6554 9.58575 31.8285Z" fill="#EFEFEF"/>
<path d="M21.8628 36.142C21.0835 34.7673 20.2426 33.4324 19.6478 31.978C19.0941 32.6155 18.2225 32.9841 17.3611 32.9642C22.1295 44.4204 22.2935 57.1218 22.3756 69.4847C22.4166 74.5449 22.4474 79.6158 22.4884 84.6766C25.052 84.0885 27.7182 83.9394 30.3331 84.2483C28.7231 80.0245 27.4926 75.6012 27.4414 71.0887C27.4105 68.3293 27.831 65.5794 28.0053 62.82C28.6001 53.6053 26.4364 44.2411 21.8628 36.142Z" fill="#EFEFEF"/>
<path d="M13.7605 30.7824C13.0632 30.2744 12.448 29.5073 12.007 28.5012C11.1969 26.6284 10.5714 24.616 10.7149 22.6236C10.879 20.3224 12.4274 17.6028 14.9706 17.3638C17.9546 17.0848 19.0827 20.7409 19.7594 23.2015C20.3029 25.154 20.3234 27.2958 19.4005 29.0292C18.0264 31.6093 15.5961 32.1074 13.7605 30.7824Z" fill="#E8DBD1"/>
<path d="M6.45525 31.9381C6.33221 31.0215 6.95772 30.125 7.09103 29.2185C7.3782 27.3755 6.7629 25.7417 6.06559 24.0184C5.24522 22.006 5.67591 20.5515 6.79366 18.8979C8.61896 16.2181 12.0542 14.6541 15.3357 15.2817C15.4177 15.3017 15.5101 15.3116 15.6023 15.3315C16.8226 16.0388 17.9301 16.9553 18.5762 18.3002C18.9761 19.127 19.2427 20.1331 19.2325 21.0795C19.2119 21.209 19.1914 21.3286 19.1709 21.4581C18.9351 20.5018 18.5659 19.5056 18.0224 19.3163C17.5302 19.147 15.3972 20.2826 14.6999 20.3523C13.5309 20.4719 11.3467 20.0635 10.9776 21.5179C10.7929 22.2551 11.3057 22.9823 11.7056 23.5899C12.526 24.8352 12.8233 24.9248 12.9771 26.3594C13.2848 29.2583 15.4177 31.3802 13.7155 33.9902C12.4644 35.9029 10.2289 36.4508 8.2293 34.7074C7.57303 34.1297 6.56807 32.8446 6.45525 31.9381Z" fill="#EFAB50"/>
<path d="M22.9073 116.913C23.2662 117.152 22.8355 117.411 22.6202 117.451C22.2305 117.531 21.8101 117.541 21.4101 117.491C21.3076 117.481 21.1948 117.461 21.1025 117.402C21.0307 117.361 20.9794 117.292 20.9281 117.232C20.7846 117.062 20.4462 116.794 20.3744 116.584C20.3129 116.415 20.4052 116.226 20.477 116.057C20.6205 115.698 20.8974 115.309 20.8461 114.901C21.7178 114.911 22.5176 114.542 23.256 114.702C23.3482 114.99 23.5944 115.21 23.5123 115.439C23.5636 115.28 25.6966 115.589 25.9529 115.618C26.3528 115.658 26.763 115.678 27.1732 115.678C27.4911 115.678 28.0756 115.479 28.2807 115.767C28.3525 115.867 28.3832 115.997 28.414 116.116C28.4345 116.206 28.4448 116.306 28.4243 116.395C28.3832 116.554 28.2499 116.684 28.0961 116.754C26.4451 117.521 24.6403 116.724 22.9073 116.913Z" fill="#826F5F"/>
<path d="M3.25037 116.884C3.49648 117.272 2.95298 117.352 2.72738 117.302C2.30694 117.212 1.88652 117.053 1.51735 116.834C1.4148 116.774 1.32251 116.704 1.26098 116.614C1.20971 116.545 1.1892 116.455 1.15843 116.366C1.08665 116.136 0.881559 115.728 0.902069 115.489C0.922579 115.29 1.09693 115.15 1.24049 115.01C1.54812 114.712 2.0916 114.174 2.21465 113.755C3.07604 114.134 4.35787 114.552 5.01416 115.021C4.70652 115.29 4.69628 115.489 4.51169 115.698C4.63475 115.568 6.60361 116.774 6.83947 116.903C7.21891 117.113 7.60857 117.312 8.01877 117.481C8.33663 117.611 9.00318 117.661 9.07497 118.039C9.10573 118.169 9.07497 118.308 9.04421 118.438C9.02367 118.537 8.98269 118.637 8.92118 118.716C8.80835 118.856 8.62374 118.926 8.43918 118.926C6.4703 118.985 5.04492 117.431 3.25037 116.884Z" fill="#826F5F"/>
<path d="M15.6577 64.1347C13.1351 65.0014 10.3561 65.1511 7.75146 64.563C7.83347 66.5056 7.80271 68.2693 7.88477 70.2119C7.94629 71.656 8.03857 73.1703 8.84864 74.3756C9.52546 75.382 10.6945 76.0693 11.925 76.1786C13.1556 76.2986 14.4374 75.84 15.2988 74.9733C16.5293 73.7483 16.8267 71.905 16.8677 70.2018C16.919 68.1297 16.6934 66.0475 16.1909 64.0355C15.9756 64.0153 15.8526 64.0753 15.6577 64.1347Z" fill="#E6E6E6"/>
<path d="M27.7063 63.9754C26.4758 64.8422 25.1324 64.9919 23.8608 64.4044C23.9019 66.3469 23.8814 68.1101 23.9224 70.0527C23.9532 71.4968 23.9941 73.0111 24.3941 74.2164C24.7222 75.2228 25.2863 75.9101 25.8913 76.0194C26.4861 76.1394 27.1116 75.6808 27.532 74.8141C28.1267 73.5891 28.2703 71.7457 28.2909 70.0426C28.3216 67.9705 28.2088 65.8883 27.9627 63.8762C27.8601 63.8459 27.7986 63.9059 27.7063 63.9754Z" fill="#E6E6E6"/>
<path d="M33.3288 46.3927C33.298 46.4425 33.2467 46.4824 33.2057 46.5123C33.0929 46.582 32.9699 46.6218 32.8365 46.6119C32.7032 46.6019 32.5802 46.5522 32.4981 46.4625C32.2418 46.1736 32.3443 45.6755 32.7852 45.6456C33.1134 45.6257 33.5236 46.0839 33.3288 46.3927Z" fill="#F7F7F7"/>
<path d="M31.2594 39.7381C31.7721 39.7979 32.3566 39.3895 32.2541 38.9013C32.1926 38.6224 31.9465 38.4232 31.7209 38.2538C31.1159 37.8055 30.5108 37.3572 29.9161 36.9089C29.4956 36.6001 29.0752 36.2813 28.583 36.0821C28.706 34.5579 28.9726 33.0537 29.3418 31.5693C29.5982 31.3403 29.7212 30.9816 29.6597 30.6429C29.5777 30.6728 29.4853 30.5931 29.4648 30.5034C29.4546 30.4138 29.4854 30.3341 29.5162 30.2445C29.5674 30.095 29.5879 29.9157 29.5264 29.7662C29.4648 29.6168 29.2803 29.5072 29.1264 29.5571C29.0034 29.5969 28.9316 29.7065 28.8701 29.816C28.6753 30.1547 28.5214 30.5333 28.4394 30.9119C28.4086 31.0613 28.3882 31.2306 28.4189 31.3801C27.8959 32.7747 27.3627 34.1794 26.8397 35.5741C26.7987 35.6836 26.7576 35.8032 26.7782 35.9227C26.7987 36.0721 26.9217 36.1817 27.0345 36.2813C28.0087 37.1779 28.9829 38.0745 29.9673 38.9711C30.3365 39.3197 30.7467 39.6784 31.2594 39.7381Z" fill="#CEBFB2"/>
<path d="M34.2754 29.3281C34.3164 29.4974 34.3677 29.6667 34.4292 29.8361C34.542 30.135 34.7061 30.4039 34.8599 30.6829C35.0343 30.9817 35.2188 31.2905 35.4547 31.5495C35.5059 31.6094 35.5675 31.689 35.5265 31.7588C35.4957 31.8086 35.4239 31.8185 35.3624 31.8086C35.0752 31.7787 34.8189 31.6093 34.6241 31.4001C34.4395 31.1909 34.3062 30.9319 34.1831 30.6729C33.9985 30.3043 33.8139 29.9357 33.6294 29.5671C33.455 29.2185 33.2807 28.8399 33.3422 28.4514C33.373 28.3019 33.4448 28.1525 33.5781 28.0828C33.855 27.9434 33.9678 28.2023 34.019 28.4115C34.1113 28.7203 34.1934 29.0292 34.2754 29.3281Z" fill="#E8DBD1"/>
<path d="M35.5245 31.2806C35.4424 31.1611 35.3297 31.0416 35.1861 31.0017C35.0323 30.9618 34.8682 31.0217 34.7451 31.1113C34.6221 31.201 34.5298 31.3305 34.4376 31.46C34.4067 31.4998 34.3862 31.5396 34.376 31.5895C34.376 31.6293 34.3862 31.6592 34.4067 31.6891C34.5196 31.9082 34.6939 32.1075 34.9298 32.1772C35.1656 32.2569 35.463 32.1872 35.586 31.978C35.6271 31.9182 35.7604 31.719 35.7604 31.6492C35.7604 31.5695 35.5758 31.3603 35.5245 31.2806Z" fill="#CAE0DF"/>
<path d="M40.6195 30.0353C40.6503 29.9955 40.6811 29.9457 40.7323 29.9258C40.8246 29.8959 40.9272 29.9657 40.9477 30.0553C40.9785 30.1449 40.9579 30.2346 40.9272 30.3243C40.7631 30.8821 40.4247 31.3802 39.9632 31.7588C39.6043 32.0477 39.1839 32.2569 38.743 32.4362C38.4559 32.5558 38.1584 32.6554 37.8713 32.755C37.738 32.8048 37.6047 32.8446 37.4714 32.8446C36.9894 32.8446 37.0099 32.3565 37.4201 32.2569C37.8508 32.1473 38.261 32.0178 38.6507 31.8086C39.4505 31.3703 40.117 30.7526 40.6195 30.0353Z" fill="#E8DBD1"/>
<path d="M38.2143 32.7052C38.2143 32.7848 38.1938 32.8745 38.1323 32.9243C38.0707 32.9741 37.9785 32.9741 37.9067 32.9641C37.6298 32.9442 36.994 33.0339 36.8709 32.745C36.7889 32.5457 36.9017 32.2668 37.0658 32.1472C37.2401 32.0277 37.599 31.948 37.8143 31.9182C38.2451 31.8683 38.2245 32.3764 38.2143 32.7052Z" fill="#CAE0DF"/>
<path d="M36.7861 32.0576C37.0015 32.1273 37.2271 32.227 37.3091 32.4262C37.3501 32.5158 37.3501 32.6155 37.3501 32.7151C37.3809 33.5917 37.4014 34.4684 37.4322 35.3351C37.4322 35.4746 37.4322 35.624 37.3296 35.7236C37.2271 35.8232 37.063 35.8132 36.9194 35.8033C36.5093 35.7634 36.1093 35.6738 35.7196 35.5343C35.5761 35.4845 35.4223 35.4247 35.3094 35.3251C35.0121 35.0661 34.9916 34.6278 35.0428 34.2393C35.1249 33.6415 35.33 33.0637 35.6478 32.5358C35.976 32.0078 36.1196 31.8583 36.7861 32.0576Z" fill="#CAE0DF"/>
<path d="M36.8903 32.5158C36.9108 32.3365 36.839 32.1173 36.9928 32.0276C37.0954 31.9679 37.2287 32.0276 37.3005 32.1273C37.3722 32.2269 37.3722 32.3464 37.3825 32.456C37.4338 33.1434 37.4235 33.8507 37.5466 34.5281C37.5876 34.7572 37.6491 34.9764 37.6389 35.2055C37.6286 35.4346 37.5363 35.6737 37.3415 35.8032C37.0851 35.9726 36.7365 35.9028 36.4391 35.8232C36.1212 35.7434 35.793 35.6538 35.4752 35.5741C35.2701 35.5243 35.0342 35.4446 34.9522 35.2553C34.8906 35.1358 34.9112 34.9863 34.9522 34.8568C35.0547 34.5281 35.2598 34.2392 35.3316 33.9105C35.3726 33.7212 35.3521 33.5319 35.3829 33.3327C35.4034 33.1433 35.4752 32.9442 35.6289 32.8246C35.9469 32.5755 36.8185 33.2331 36.8903 32.5158Z" fill="#68889B"/>
<path d="M30.1112 39.0709C30.6956 38.2241 31.3929 37.4072 32.3261 36.8793C33.2593 36.3413 34.4898 36.1321 35.546 36.5306C35.9152 36.6701 36.2536 36.8892 36.5817 37.0984C36.9715 37.3574 37.3714 37.6264 37.6072 37.995C37.9764 38.5628 37.9354 39.2502 37.9251 39.8878C37.9046 41.4917 38.1405 43.1453 37.6995 44.6894C37.6072 45.0281 37.4637 45.3768 37.156 45.586C36.7971 45.845 36.2844 45.845 35.8126 45.8251C33.8848 45.7354 31.9775 45.3469 30.0906 44.9584C29.4959 44.8388 28.4397 44.7591 27.9577 44.3806C27.5167 44.0319 27.9884 43.2549 28.132 42.8465C28.6242 41.5215 29.2908 40.2464 30.1112 39.0709Z" fill="#97A8B2"/>
<path d="M37.1247 35.0363C37.3708 35.1558 37.5247 35.4148 37.617 35.6739C37.74 36.0125 37.8015 36.3712 37.7913 36.7298C37.781 37.0486 37.7092 37.3973 37.4426 37.5766C37.3093 37.6762 37.135 37.7161 36.9709 37.726C36.7453 37.7459 36.5094 37.7161 36.3044 37.6164C35.9454 37.4471 35.7096 37.0984 35.443 36.8095C35.1764 36.5206 34.7867 36.2616 34.397 36.3612C33.9766 36.4708 33.7613 36.939 33.3921 37.1682C33.105 37.3474 32.7255 37.3574 32.4282 37.198C32.1308 37.0387 31.9359 36.7299 31.9257 36.4011C31.9154 36.0524 32.1102 35.7237 32.3871 35.5045C32.664 35.2853 33.0024 35.1658 33.3511 35.0861C34.0791 34.9267 34.7867 34.9865 35.5045 35.1558C36.0685 35.3152 36.571 34.7673 37.1247 35.0363Z" fill="#68889B"/>
<path d="M33.7527 32.0477C33.2092 32.2868 32.9528 32.9244 32.7888 33.5022C32.6862 33.8508 32.5939 34.2094 32.635 34.5681C32.6965 35.2355 33.199 35.7834 33.763 36.1221C33.9681 36.2516 34.1834 36.3513 34.4192 36.4209C35.0756 36.6103 35.8446 36.4309 36.3574 35.9528C36.8701 35.4746 37.2187 34.1297 37.0445 33.4523C36.8804 32.8148 36.3984 32.3166 35.7934 32.0576C35.2704 31.8385 34.2859 31.8086 33.7527 32.0477Z" fill="#CEBFB2"/>
<path d="M36.8792 32.8745C35.8845 33.1534 34.7668 33.1136 33.7618 32.7649C33.1568 32.5557 32.5518 32.1971 32.2954 31.6691C32.5313 31.699 32.7569 31.7289 32.9927 31.7887C32.9517 31.5695 32.9004 31.3603 32.8594 31.1411C33.0645 31.2706 33.3004 31.3603 33.5464 31.4101C33.8439 31.4699 34.1617 31.4499 34.4694 31.44C35.0436 31.42 35.6384 31.4101 36.1921 31.5695C36.551 31.679 36.8894 31.8684 37.1151 32.1373C37.433 32.5159 37.3816 32.735 36.8792 32.8745Z" fill="#534741"/>
<path d="M36.7376 33.3527C36.8914 33.7611 36.7992 34.2094 36.7069 34.6378C36.7684 34.6179 36.83 34.6079 36.8915 34.588C36.7787 34.8569 36.6658 35.1359 36.5633 35.4049C36.5428 35.4646 36.5325 35.5443 36.5941 35.5643C36.6351 35.5742 36.6659 35.5443 36.6967 35.5045C36.9017 35.2554 37.0658 34.9765 37.2196 34.6876C37.3734 34.3887 37.5272 34.0799 37.5683 33.7412C37.6195 33.4125 37.5478 33.0439 37.3324 32.7948C37.1683 32.6056 36.7992 32.4262 36.5838 32.6454C36.348 32.8646 36.6454 33.1236 36.7376 33.3527Z" fill="#534741"/>
<path d="M36.3558 29.6368C36.0585 29.7264 35.8841 30.0452 35.7508 30.3341C35.679 30.5135 35.6073 30.6927 35.597 30.882C35.5867 31.2406 35.8123 31.5495 36.0789 31.7686C36.1815 31.8483 36.2841 31.918 36.4071 31.9678C36.7456 32.1073 37.1557 32.0675 37.4531 31.8483C37.7505 31.6292 38.0273 30.9517 37.9761 30.5832C37.9351 30.2445 37.7197 29.9456 37.412 29.7663C37.166 29.6168 36.6532 29.5471 36.3558 29.6368Z" fill="#E8DBD1"/>
<path d="M35.7681 29.7863C35.6861 29.8361 35.5939 29.8959 35.5631 29.9856C35.5323 30.0752 35.6041 30.2047 35.7066 30.1848C35.7066 30.2944 35.881 30.3243 35.9732 30.2745C36.0758 30.2147 36.1476 30.1151 36.2604 30.0852C36.4142 30.2346 36.7014 30.2047 36.8141 30.0254C36.7732 30.1251 36.8552 30.2446 36.968 30.2645C37.0807 30.2844 37.1936 30.2147 37.2654 30.135C37.1628 30.2446 37.2858 30.4637 37.4396 30.4338C37.4089 30.5036 37.3884 30.5932 37.4089 30.673C37.4396 30.7526 37.5217 30.8124 37.6037 30.7825C37.5012 30.932 37.6652 31.171 37.8498 31.1511C37.778 31.2209 37.8806 31.3404 37.9729 31.3205C38.0652 31.3105 38.1267 31.2209 38.1882 31.1411C38.2805 31.0116 38.3728 30.8722 38.4651 30.7427C38.4856 30.7128 38.5164 30.673 38.5164 30.6331C38.5164 30.5435 38.4138 30.4836 38.3728 30.404C38.3113 30.2645 38.4549 30.0852 38.3728 29.9457C38.3216 29.866 38.1985 29.8361 38.1472 29.7564C38.1165 29.6967 38.1267 29.6269 38.1165 29.5672C38.0857 29.4277 37.9421 29.3181 37.7883 29.338C37.7473 29.348 37.7165 29.3579 37.6755 29.348C37.614 29.3281 37.6038 29.2384 37.5832 29.1787C37.532 29.0193 37.3269 28.9296 37.1628 28.9894C37.091 29.0193 37.0295 29.0691 36.9577 29.0691C36.8654 29.0691 36.7936 29.0093 36.7116 28.9794C36.5373 28.9097 36.3116 28.9993 36.2501 29.1687C36.1271 28.9296 35.799 29.2783 35.7169 29.3878C35.6656 29.4576 35.5836 29.5074 35.5836 29.607C35.5939 29.6369 35.6759 29.8461 35.7681 29.7863Z" fill="#EFAB50"/>
<path d="M36.1088 36.929C36.1805 36.5904 36.2831 36.2218 36.5805 36.0325C36.6625 35.9827 36.7445 35.9528 36.8369 35.9528C37.0009 35.9628 37.1445 36.0923 37.1958 36.2417C37.247 36.3911 37.2368 36.5605 37.206 36.7199C37.1547 36.949 37.0625 37.1682 36.9805 37.3873C36.7036 38.0547 36.4369 38.7222 36.1601 39.3896C36.1498 39.4195 36.1293 39.4594 36.1088 39.4793C35.9857 39.5789 35.6678 39.4095 35.6165 39.29C35.5448 39.1406 35.6883 38.8218 35.7191 38.6724C35.8421 38.0946 35.9755 37.5168 36.1088 36.929Z" fill="#E8DBD1"/>
<path d="M32.3062 36.2813C32.3165 36.2116 32.337 36.1319 32.378 36.0821C32.4396 36.0124 32.5318 36.0223 32.6036 36.0223C32.7984 36.0323 33.0241 36.0721 33.1061 36.2714C33.1369 36.361 33.1369 36.4706 33.1266 36.5702C33.0753 37.4468 32.942 38.3235 32.7267 39.1902C32.6651 39.4193 32.2652 39.3496 32.1627 39.2101C32.0396 39.0407 32.0909 38.6622 32.0909 38.453C32.1011 37.7258 32.1729 36.9986 32.3062 36.2813Z" fill="#E8DBD1"/>
<path d="M35.9454 38.9512C36.0582 38.9611 36.171 39.0009 36.2326 39.1006C36.2736 39.1703 36.2736 39.26 36.2736 39.3497C36.2736 39.4991 36.2839 39.6485 36.3454 39.788C36.3966 39.9175 36.4992 40.027 36.5709 40.1466C36.653 40.2661 36.7145 40.4056 36.694 40.5451C36.6838 40.5949 36.6735 40.6347 36.6427 40.6746C36.6119 40.7144 36.571 40.7343 36.5197 40.7542C36.1505 40.9037 35.6788 40.7542 35.4942 40.4156C35.4019 40.2562 35.3712 40.0768 35.3712 39.8876C35.3609 39.6286 35.4019 39.3596 35.4839 39.1105C35.566 38.8615 35.7096 38.9213 35.9454 38.9512Z" fill="#998675"/>
<path d="M32.3483 38.5827C32.297 38.5728 32.2355 38.5628 32.174 38.5728C32.0612 38.5927 31.9791 38.6823 31.9278 38.7819C31.8868 38.8815 31.8663 38.9912 31.8458 39.1007C31.7741 39.3896 31.5997 39.6387 31.4664 39.9076C31.4254 39.9873 31.3946 40.067 31.4356 40.1467C31.4561 40.1965 31.5074 40.2264 31.5484 40.2563C31.6714 40.336 31.7945 40.4057 31.9278 40.4456C32.0612 40.4854 32.2149 40.4954 32.3483 40.4257C32.5738 40.3161 32.6559 40.0372 32.7072 39.7981C32.7687 39.5291 32.9328 39.1505 32.9123 38.8716C32.8918 38.5927 32.6046 38.6225 32.3483 38.5827Z" fill="#998675"/>
<path d="M37.3888 40.6049C36.8966 40.4654 36.5171 39.8677 36.8043 39.4593C36.9684 39.2302 37.276 39.1405 37.5631 39.0708C38.3015 38.8815 39.0398 38.7022 39.7679 38.5129C40.2806 38.3834 40.7933 38.2539 41.3266 38.2639C41.8188 36.8193 42.1982 35.3251 42.4443 33.8208C42.3008 33.512 42.3315 33.1334 42.5263 32.8445C42.5879 32.9043 42.711 32.8645 42.752 32.7948C42.8032 32.715 42.8032 32.6254 42.8032 32.5358C42.8135 32.3764 42.8647 32.207 42.9878 32.0974C43.1108 31.9879 43.3159 31.948 43.439 32.0575C43.5313 32.1373 43.5621 32.2668 43.5723 32.3963C43.6134 32.7848 43.6031 33.1833 43.5313 33.5718C43.5005 33.7212 43.4493 33.8906 43.357 34.0101C43.2749 35.4944 43.1929 36.9788 43.1211 38.4631C43.1109 38.5826 43.1109 38.7022 43.0391 38.8018C42.957 38.9313 42.8032 38.991 42.6596 39.0409C41.3983 39.4892 40.137 39.9474 38.886 40.3957C38.404 40.565 37.8811 40.7443 37.3888 40.6049Z" fill="#CEBFB2"/>
<path d="M29.4918 46.5621C29.6046 46.1537 29.7277 45.7452 29.943 45.3667C30.2199 44.8785 30.6608 44.49 31.153 44.2111C31.4607 44.0317 31.8298 43.8923 32.1785 43.982C32.4861 44.0716 32.7118 44.3406 32.8143 44.6295C32.9169 44.9283 32.8963 45.2471 32.8451 45.5559C32.6195 46.841 31.2966 48.923 29.7072 48.5844C29.4303 48.5246 29.1227 48.3652 29.0919 48.0863C29.0817 47.9866 29.1124 47.887 29.1329 47.7874C29.2559 47.3889 29.3688 46.9805 29.4918 46.5621Z" fill="#EADDD0"/>
<path d="M13.855 52.2405C14.6241 54.0237 15.6906 55.9862 17.6288 56.4545C18.9003 56.7533 20.2129 56.3149 21.4127 55.8069C23.802 54.7908 26.0682 53.5057 28.1397 51.9716C29.4523 50.9953 30.8263 49.5708 30.4264 48.0167C30.3649 47.7776 30.2521 47.5385 30.0367 47.3991C29.5343 47.0803 28.9088 47.5286 28.4678 47.9171C26.3144 49.8298 23.5969 51.1547 20.7256 51.6927C20.3667 51.7624 19.9873 51.8122 19.6386 51.7325C18.7055 51.5233 18.244 50.5172 17.9466 49.6305C16.7366 46.1239 15.7009 42.5675 14.8395 38.9713C14.6754 38.2739 14.5113 37.5667 14.0909 36.9789C13.4449 36.0724 12.1836 35.6141 11.0761 35.883C7.47671 36.7697 9.61993 40.9238 10.3377 43.0855C11.3837 46.1737 12.5527 49.232 13.855 52.2405Z" fill="#E0C74E"/>
</g>
<defs>
<linearGradient id="paint0_linear_549_375" x1="58.938" y1="118.484" x2="83.8729" y2="118.484" gradientUnits="userSpaceOnUse">
<stop stop-color="white"/>
<stop offset="1"/>
</linearGradient>
<linearGradient id="paint1_linear_549_375" x1="58.9358" y1="118.484" x2="83.8707" y2="118.484" gradientUnits="userSpaceOnUse">
<stop/>
<stop offset="1"/>
</linearGradient>
<linearGradient id="paint2_linear_549_375" x1="0.0104012" y1="117.029" x2="31.2386" y2="117.029" gradientUnits="userSpaceOnUse">
<stop stop-color="white"/>
<stop offset="1"/>
</linearGradient>
<linearGradient id="paint3_linear_549_375" x1="0.0104012" y1="117.029" x2="31.2386" y2="117.029" gradientUnits="userSpaceOnUse">
<stop/>
<stop offset="1"/>
</linearGradient>
<clipPath id="clip0_549_375">
<rect width="85" height="120" fill="white"/>
</clipPath>
</defs>
</svg>
