<svg width="103" height="96" viewBox="0 0 103 96" fill="none" xmlns="http://www.w3.org/2000/svg">
<path d="M13.5939 93.9811C12.3437 94.0497 10.9292 94.1815 10.2599 94.7423C10.1021 94.874 10.0011 95.0286 10.0326 95.1832C10.14 95.6409 11.2702 95.7727 12.1479 95.7898C24.442 96.0417 36.7549 95.6123 49.0552 95.6983C52.7051 95.7212 56.4871 95.784 59.8526 95.0399C60.4588 94.9085 61.1535 94.5992 60.8568 94.2903C60.6546 94.0842 60.1369 94.0497 59.6948 94.0385C53.431 93.8722 47.1672 93.7463 40.897 93.6664C37.7337 93.6261 34.5638 93.5975 31.4004 93.5746C28.8746 93.5575 26.5067 93.7808 23.9747 93.7521C20.5081 93.718 17.0416 93.7978 13.5939 93.9811Z" fill="url(#paint0_linear_549_462)"/>
<path d="M13.5939 93.9811C12.3437 94.0497 10.9292 94.1815 10.2599 94.7423C10.1021 94.874 10.0011 95.0286 10.0326 95.1832C10.14 95.6409 11.2702 95.7727 12.1479 95.7898C24.442 96.0417 36.7549 95.6123 49.0552 95.6983C52.7051 95.7212 56.4871 95.784 59.8526 95.0399C60.4588 94.9085 61.1535 94.5992 60.8568 94.2903C60.6546 94.0842 60.1369 94.0497 59.6948 94.0385C53.431 93.8722 47.1672 93.7463 40.897 93.6664C37.7337 93.6261 34.5638 93.5975 31.4004 93.5746C28.8746 93.5575 26.5067 93.7808 23.9747 93.7521C20.5081 93.718 17.0416 93.7978 13.5939 93.9811Z" fill="url(#paint1_linear_549_462)"/>
<path d="M25.4472 90.9475C24.7905 91.1536 24.1085 90.9475 23.5339 90.4669C25.3651 85.6932 24.7147 80.5762 26.8805 75.8657C27.0763 75.4479 27.2973 75.0243 27.6888 74.6752C28.4465 74.0055 30.6313 73.7253 30.3408 74.9042C30.044 76.1234 29.2989 77.3654 28.8569 78.5672C27.9035 81.1714 27.0889 83.7989 26.4259 86.4431C26.0534 87.937 25.725 89.4422 25.4472 90.9475Z" fill="#E2CBB7"/>
<path d="M34.2981 91.4113C33.793 91.4741 33.2752 91.4857 32.7638 91.4513C32.7132 86.197 32.347 80.9428 31.6587 75.7114C31.5956 75.2476 31.5388 74.7728 31.7156 74.3264C32.1007 73.3703 33.9824 72.9468 34.7022 73.9485C35.3211 74.8069 34.9107 76.3753 34.9233 77.2968C34.9612 80.3018 34.8854 83.3064 34.7086 86.3059C34.6075 88.0115 34.4749 89.7112 34.2981 91.4113Z" fill="#E2CBB7"/>
<path d="M29.4698 51.9468C29.0152 51.3915 28.3459 50.9909 27.9228 50.4128C27.5565 49.9149 27.405 49.2738 27.6261 48.7129C27.847 48.152 28.4911 47.7227 29.1414 47.7971L28.4343 47.7628C27.7586 47.9345 27.0009 48.1634 26.7231 48.753C26.521 49.1822 26.6536 49.6745 26.7547 50.1266C26.9062 50.7791 26.9946 51.4659 26.8051 52.1127C26.6599 52.605 26.3631 53.0514 26.1737 53.5322C25.9843 54.013 25.9148 54.5796 26.2179 55.0146C26.4768 55.3809 26.963 55.5812 27.4429 55.6041C27.9228 55.6271 28.3964 55.4839 28.832 55.3008C29.2109 55.1405 29.5835 54.9288 29.8171 54.614C30.0571 54.282 30.1265 53.8699 30.0949 53.4749C30.0507 52.9198 29.8297 52.3875 29.4698 51.9468Z" fill="#534741"/>
<path d="M40.3241 42.7947C41.8333 47.7915 41.2715 47.7571 40.242 50.6304C40.0466 51.1798 39.5793 52.0956 39.2761 52.5993C38.752 53.4578 37.9436 54.1275 37.1418 54.7857C36.9776 54.9231 36.8008 55.0605 36.5924 55.1349C36.403 55.1978 36.201 55.1978 35.9989 55.1692C35.399 55.0776 34.8939 54.6655 34.6792 54.1561C34.4203 53.5437 34.8181 53.309 35.3296 52.9656C36.3399 52.2845 36.8135 51.6549 37.6343 50.762C38.0953 50.2641 38.3732 49.6459 38.6259 49.0335C39.2697 47.4881 39.5729 47.4824 39.5476 45.17C39.5412 44.7694 39.2509 43.5102 39.0487 43.1496C38.8089 42.7318 38.6383 42.3712 38.4677 42.022C38.3416 41.8961 38.2783 41.6328 38.2343 41.5241C38.1458 41.3066 37.9944 41.1062 37.805 40.946C37.6973 40.8601 37.5712 40.78 37.5459 40.6541C37.5396 40.6083 37.5396 40.5682 37.527 40.5224C37.5144 40.4766 37.4828 40.4366 37.4575 40.4022C37.3944 40.3221 37.3186 40.2534 37.2365 40.1905C37.1797 40.1447 37.1166 40.0989 37.085 40.0359C37.0281 39.91 37.0029 39.5666 37.1039 39.4578C37.1734 39.3777 37.6217 39.1087 37.7858 39.1373C37.8995 39.1545 38.0196 39.1144 38.133 39.1488C38.2719 39.1888 38.4048 39.2461 38.5246 39.3205C38.6571 39.4063 38.7708 39.5094 38.8781 39.6124C39.2445 39.9615 39.2697 40.6655 39.5729 41.0662L40.3241 42.7947Z" fill="#E2CBB7"/>
<path d="M32.197 52.7252C33.1694 52.6508 34.2744 52.4333 35.0321 52.9656C35.5878 53.3548 35.7394 54.013 35.8341 54.6197C36.6107 59.5077 36.0361 64.4758 36.3707 69.3981C36.4718 70.9206 36.6675 72.4374 36.9391 73.9427C37.0211 74.4062 37.1221 74.8755 37.381 75.2878C37.5326 75.5223 37.7285 75.7343 37.8358 75.9862C38.1513 76.7244 37.5326 77.5658 36.7054 77.915C35.8782 78.2641 34.9185 78.2467 34.0029 78.2238C31.1299 78.1494 28.2631 78.0808 25.3901 78.0064C24.664 77.9894 23.8684 77.9436 23.3569 77.5026C22.8455 77.062 22.7949 76.3753 22.8265 75.7513C22.9717 72.6377 24.2472 69.65 25.087 66.6165C25.9205 63.6115 26.3373 60.538 27.1455 57.5273C27.5181 56.1422 27.8716 54.4766 28.6925 53.2232C29.4439 52.0899 30.9152 52.8168 32.197 52.7252Z" fill="#D9924E"/>
<path d="M22.4722 56.417C21.9418 56.8005 21.2535 57.2011 20.6284 56.9607C20.1927 56.7947 19.9654 56.3712 19.7633 55.982C18.8541 54.1847 17.8943 52.4104 16.9345 50.6361C16.5367 50.8364 16.0884 51.094 16.0379 51.5061C16.0126 51.7236 16.1136 51.9411 16.2147 52.1414C17.3576 54.4709 18.6015 56.7604 19.9464 59.004C20.0727 59.2158 20.2179 59.4448 20.4516 59.5592C20.7357 59.6966 21.083 59.6451 21.3987 59.5764C23.2614 59.17 24.9979 58.3974 26.6586 57.5388C27.1006 57.3098 27.5678 57.0523 27.7636 56.6288C27.9277 56.2911 27.8899 55.9076 27.852 55.5412C27.7446 54.5683 27.1826 52.9828 25.8503 53.8986C24.6885 54.6827 23.6088 55.5985 22.4722 56.417Z" fill="#E2CBB7"/>
<path d="M16.6572 49.5944C16.5246 49.5028 16.3478 49.5028 16.1899 49.4513C15.8048 49.3197 15.628 48.8904 15.2743 48.6958C14.9587 48.5184 14.5103 48.5756 14.2514 48.8217C13.9989 49.0621 13.9294 49.4227 13.8789 49.7547C13.86 49.8749 13.841 49.9951 13.8726 50.1095C13.9105 50.2412 14.0115 50.3442 14.1062 50.4358C14.5861 50.8937 15.1481 51.2714 15.7669 51.5519C15.8932 51.6091 16.0194 51.6606 16.1584 51.6664C16.6951 51.7007 17.0108 51.2142 17.0108 50.825C17.0171 50.5846 16.8782 49.7432 16.6572 49.5944Z" fill="#E2CBB7"/>
<path d="M34.7863 46.8299C34.6853 46.4407 34.5527 46.0572 34.3696 45.7023C33.7192 44.4431 31.7491 42.8004 30.12 43.6876C29.7411 43.8936 29.4507 44.2084 29.1791 44.5232C28.9013 44.8495 28.6361 45.1872 28.4277 45.5535C28.0363 46.2461 27.8405 47.076 27.9478 47.8544C28.0489 48.5756 28.4404 49.2853 28.8129 49.9264C29.2991 50.7734 29.9432 51.632 30.9345 51.9583C32.2543 52.3932 33.7886 51.6549 34.4706 50.5445C35.1336 49.4341 35.1083 48.0662 34.7863 46.8299Z" fill="#E2CBB7"/>
<path d="M30.5752 44.9697C30.2342 45.4849 29.7543 45.9084 29.2555 46.3034C28.8703 46.6124 28.4536 46.933 28.302 47.3794C28.1757 47.7457 28.2515 48.1406 28.1505 48.5127C27.8537 48.5585 27.6264 48.2895 27.4686 48.0548C27.2349 47.6942 26.995 47.3222 26.9066 46.9101C26.8434 46.6067 26.8687 46.2919 26.894 45.9886C26.9445 45.4047 27.0202 44.8095 27.3107 44.2944C27.6201 43.7506 28.1631 43.3213 28.8072 43.121C29.3376 42.955 30.3353 42.8749 30.8025 43.2527C31.3266 43.6762 30.8657 44.5462 30.5752 44.9697Z" fill="#534741"/>
<path d="M40.6335 52.542C40.3744 52.1414 40.002 51.8094 39.6925 51.4374C38.834 50.4243 38.4612 49.1536 37.8613 47.9975C37.6088 47.5167 37.2868 47.0245 36.769 46.7669C36.466 46.6181 35.8976 46.5666 35.5314 46.7383C35.5377 46.6295 35.5504 46.515 35.5504 46.4063C35.5757 45.273 35.2283 44.0882 34.3443 43.2869C33.4603 42.4856 31.9765 42.1823 30.9156 42.7775C30.1958 43.1839 29.8359 44.2943 30.8272 44.6434C31.1556 44.7579 31.5724 44.7064 31.9196 44.7979C32.4437 44.9353 32.9489 45.1585 33.3719 45.4733C34.0665 45.9828 34.5401 46.7898 34.4517 47.6026C34.5464 47.4766 34.6158 47.3393 34.6601 47.1961C34.9315 47.3564 34.799 47.7285 34.7105 48.0089C34.5401 48.5698 34.6727 49.1651 34.8053 49.7317C35.0263 49.0678 35.241 48.3924 35.3862 47.717C35.6325 48.0776 36.0492 48.4325 36.2323 48.6671C37.2868 49.9836 37.5205 51.7121 37.4131 53.3376C37.3816 53.8184 37.3247 54.3221 37.5394 54.7628C37.8237 55.3523 38.5937 55.7015 39.3012 55.6099C40.0084 55.5183 40.6146 55.0204 40.8545 54.4136C41.0943 53.8012 40.987 53.103 40.6335 52.542Z" fill="#534741"/>
<path d="M34.4892 90.4499C34.5966 90.4611 34.7102 90.4785 34.7986 90.5355C34.9123 90.6099 34.9565 90.7359 34.9817 90.8618C35.1017 91.3885 34.9944 91.9667 35.2659 92.4414C35.4048 92.6879 35.6384 92.8879 35.9163 92.9968C36.2067 93.1111 36.535 93.1285 36.8255 93.2487C37.116 93.363 37.3749 93.6494 37.2802 93.9241C37.1665 94.2504 36.6803 94.3016 36.3015 94.2846C35.6195 94.2559 34.9312 94.233 34.2493 94.2043C33.7631 94.1873 33.2263 94.1473 32.8791 93.8381C32.5949 93.5808 32.5128 93.1971 32.4623 92.8309C32.3865 92.2926 32.1087 91.0622 32.4812 90.5871C32.8222 90.1464 34.003 90.3983 34.4892 90.4499Z" fill="#ACB18F"/>
<path d="M25.0753 89.8659C25.2142 89.9058 25.3657 89.9573 25.4541 90.0604C25.5615 90.1806 25.5615 90.3468 25.5615 90.5011C25.5615 91.1137 25.5551 91.726 25.5425 92.3326C25.5362 92.6019 25.5299 92.8766 25.4226 93.1282C25.1952 93.6664 24.5007 93.9927 23.8756 93.8781C23.5662 93.8211 23.282 93.6777 23.0105 93.5289C22.9031 93.4719 22.7958 93.4087 22.72 93.3231C22.619 93.2026 22.6001 93.0425 22.6001 92.8937C22.5937 92.4701 22.7326 92.0581 22.8715 91.6516C23.0799 91.0335 23.2189 90.3352 23.5156 89.7457C23.7745 89.2249 24.6143 89.7228 25.0753 89.8659Z" fill="#ACB18F"/>
<path d="M34.1757 44.0997C33.9483 43.9223 33.7084 44.1627 33.5695 44.3229C33.3358 44.5977 33.0833 44.8953 32.9002 45.1986C32.837 45.3017 32.9443 45.4104 33.0517 45.4047C33.0959 45.4448 33.1338 45.4791 33.1843 45.5077C33.2474 45.5363 33.3295 45.5421 33.3864 45.5077C33.5316 45.4219 33.6516 45.2788 33.7652 45.17C33.9168 45.0269 34.0683 44.8838 34.2198 44.7408C34.4661 44.5232 34.4598 44.3172 34.1757 44.0997Z" fill="#DD7A8F"/>
<path d="M35.1446 45.0327C35.0815 44.8953 34.9173 44.7923 34.7531 44.861C34.5511 44.9469 34.3679 45.1644 34.2164 45.3074C34.0459 45.4792 33.888 45.6566 33.7491 45.8512C33.6923 45.9313 33.7618 46.0229 33.8502 46.0458C33.8565 46.1088 33.9007 46.1717 33.9954 46.2175C34.1911 46.3205 34.3679 46.1546 34.5005 46.0401C34.6836 45.8913 34.8479 45.7195 34.9994 45.5421C35.1257 45.399 35.233 45.2216 35.1446 45.0327Z" fill="#DD7A8F"/>
<path d="M43.2856 64.0065C43.5127 64.1324 43.7717 64.2526 44.0368 64.2068C44.4096 64.1381 44.605 63.7718 44.7439 63.4513C45.2493 62.2722 45.7482 61.0874 46.2531 59.9084C46.714 58.8323 47.1813 57.7105 47.1245 56.5543C47.0992 56.0163 46.7773 55.3523 46.1902 55.3982C45.8427 55.4211 45.59 55.6958 45.3946 55.9533C44.6242 56.9607 44.5738 58.0024 44.2578 59.1987C44.1317 59.6851 43.8474 60.8413 43.5443 61.2534C43.2351 61.6655 42.6918 61.3278 42.1804 61.1447C41.7576 60.9901 40.9996 60.269 40.7029 59.9542C40.0526 59.2616 39.8948 59.1357 39.4083 58.7751C39.0928 58.5404 39.0423 58.569 38.6319 58.5576C36.4786 58.5061 39.1873 60.9844 39.6358 61.3965C40.7157 62.4096 41.947 63.291 43.2856 64.0065Z" fill="#B79A7D"/>
<path d="M52.7766 66.0841C50.2128 66.1585 47.5295 65.5689 45.0161 66.21C45.0037 74.9786 45.5402 84.7031 46.3799 93.4145C47.182 93.4145 47.984 93.4145 48.786 93.4145C49.4427 88.6808 49.2533 84.1993 49.4111 79.4543C49.7014 81.6637 50.2636 82.9286 50.8442 85.6762C51.1157 86.9466 51.4316 88.1944 51.6651 89.4764C51.7852 90.129 51.9113 90.7874 52.0503 91.4339C52.1704 91.9892 52.3914 92.5732 52.3722 93.1568C53.1554 93.277 53.9635 92.9735 54.7275 92.8019C54.7275 91.6288 54.7275 90.4495 54.7275 89.2761C54.7275 87.7367 54.6454 86.254 54.494 84.7317C54.3551 83.3006 54.1341 81.8353 54.1341 80.3933C54.052 79.443 53.9699 78.4928 53.9066 77.5371C53.7741 75.3851 54.4372 72.3972 54.3363 70.2451C54.2858 69.1748 53.5342 68.9344 53.4141 67.8699C53.3573 67.3547 53.2944 66.8339 53.2059 66.3245C53.1743 66.1413 53.1871 65.8723 53.0101 65.8551C52.9724 65.838 52.8904 66.0783 52.7766 66.0841Z" fill="#B79A7D"/>
<path d="M49.143 53.0343C49.6167 52.7023 50.0144 52.1986 50.2798 51.5404C50.7659 50.3213 51.1067 49.022 50.9173 47.7342C50.6903 46.2575 49.465 44.5232 47.6531 44.4031C45.5248 44.2657 44.8998 46.6353 44.5338 48.2264C44.2431 49.4913 44.3252 50.8765 45.064 51.9754C46.1627 53.6238 47.8993 53.91 49.143 53.0343Z" fill="#B79A7D"/>
<path d="M46.4108 45.9083C46.5053 46.0971 46.758 46.2059 46.979 46.1487C47.2 46.0971 47.3578 45.8854 47.3326 45.6793C47.5852 46.1544 48.4121 46.2517 48.7913 45.8567C48.6271 45.8167 48.69 46.0914 48.8417 46.1601C49.1573 46.2917 49.5361 46.2975 49.852 46.1658C49.6182 46.286 49.7699 46.6065 49.9405 46.7954C50.073 46.9385 50.1992 47.0873 50.3317 47.2304C50.0983 47.5624 50.5211 48.0718 50.938 47.963C50.6476 48.0889 50.5656 48.4839 50.7802 48.6957C50.5844 48.9017 50.4454 49.1535 50.395 49.4226C50.572 49.434 50.6412 49.6973 50.4835 49.7774C50.6224 49.869 50.8118 49.8862 50.9696 49.8232C50.8747 49.8404 50.9127 49.9949 51.0076 50.0064C51.1021 50.0178 51.1842 49.9434 51.2347 49.8633C51.38 49.6458 51.4241 49.3768 51.342 49.1306C51.6391 49.0047 51.7148 48.6613 51.7524 48.3637C51.7716 48.2149 51.7905 48.0661 51.8093 47.9173C51.8285 47.7741 51.8473 47.6253 51.7841 47.4937C51.7208 47.362 51.557 47.2533 51.4053 47.3048C51.7652 47.2533 51.961 46.7954 51.7336 46.5379C52.2389 46.3719 52.283 45.5992 51.7969 45.3874C51.9482 45.0955 51.8789 44.7235 51.6199 44.5002C51.3676 44.277 50.9508 44.2141 50.6348 44.3572C50.6853 44.4201 50.8118 44.3743 50.837 44.2999C50.8623 44.2255 50.8182 44.1454 50.7674 44.0824C50.433 43.6589 49.7447 43.4986 49.2205 43.7218C48.9238 43.3384 48.286 43.2067 47.8375 43.4414C47.9324 43.4872 48.0585 43.4414 48.0966 43.3498C47.8375 43.1323 47.522 42.932 47.162 42.9377C46.8084 42.9434 46.4548 43.2639 46.575 43.5673C46.0256 43.3097 45.2616 43.8191 45.3689 44.3686C45.0089 44.3457 44.6173 44.4144 44.3711 44.6548C44.1248 44.8894 44.0868 45.3244 44.3647 45.5305C43.9542 45.519 43.5566 45.811 43.4809 46.1773C43.4048 46.5436 43.6575 46.9442 44.0491 47.0701C43.708 47.2876 43.4617 47.6253 43.3672 47.9917C43.4809 48.1347 43.6259 48.2492 43.7964 48.3293C43.6955 48.3751 43.6451 48.4896 43.6827 48.5869C43.9038 48.7357 44.1564 48.896 44.4343 48.8617C44.7122 48.833 44.9268 48.4953 44.7246 48.3236C45.1415 48.1462 45.3625 47.6597 45.2047 47.2705C45.3056 47.2476 45.4065 47.2247 45.5139 47.2018C45.6468 47.0072 45.7289 46.6867 45.495 46.618C45.7161 46.7783 46.0632 46.7668 46.2779 46.6008C46.4989 46.4406 46.5497 46.1258 46.4108 45.9083Z" fill="#333333"/>
<path d="M52.5247 42.5486C52.7962 42.6459 52.7457 43.0523 52.4931 43.1839C52.2404 43.3155 51.9185 43.2354 51.6534 43.1209C51.7923 43.1495 51.868 43.327 51.7795 43.43C51.3819 43.5273 50.9334 43.4472 50.5987 43.224C50.6936 43.1896 50.7881 43.3155 50.7504 43.4014C50.7124 43.4872 50.5987 43.5273 50.4914 43.5445C50.1566 43.5903 49.8031 43.4586 49.6076 43.2068C49.8539 43.1381 50.0241 43.5044 49.8539 43.6819C49.6833 43.8593 49.3738 43.8478 49.1275 43.7677C49.0583 43.7448 48.9822 43.7105 48.957 43.6475C49.1087 43.6418 49.1908 43.8307 49.1087 43.9452C49.0266 44.0596 48.8433 44.0825 48.7107 44.031C48.5718 43.9795 48.4709 43.8707 48.3952 43.7563C48.4328 43.8249 48.4392 43.9108 48.4076 43.9795C48.1301 43.968 47.8838 43.7677 47.8394 43.5216C47.7953 43.4872 47.871 43.4071 47.9151 43.4415C47.6184 43.3041 47.3657 43.0751 47.2143 42.8061C46.9809 42.9321 46.6333 42.8519 46.5008 42.6344C46.3114 42.663 46.1092 42.6115 45.9706 42.4913C45.9009 42.6058 45.7304 42.6459 45.5978 42.6058C45.4653 42.5658 45.358 42.457 45.2947 42.3425C45.2631 42.2853 45.2443 42.2223 45.2759 42.1651C45.3135 42.1136 45.4273 42.1193 45.4273 42.1823C45.0929 42.1708 44.8022 41.9018 44.7834 41.6042C44.8843 41.6042 44.9852 41.6442 45.0485 41.7186C44.815 41.7015 44.638 41.4554 44.7201 41.255C44.7958 41.0547 45.1053 40.9631 45.2947 41.0833C45.1558 40.9517 45.0929 40.7514 45.1433 40.5739C45.2254 40.5567 45.3135 40.5339 45.3956 40.5167C45.1494 40.4308 45.1433 40.0588 45.3768 39.95C45.6042 39.8356 45.9326 40.0073 45.9578 40.2477C45.7368 40.1504 45.7368 39.8127 45.9514 39.7097C46.166 39.6066 46.4756 39.7955 46.4439 40.013C46.4567 39.8585 46.6145 39.7268 46.7851 39.7383C46.9553 39.744 47.1006 39.8928 47.0942 40.0473C47.1322 39.8699 47.246 39.681 47.4478 39.6467C47.6436 39.6124 47.8522 39.8527 47.7068 39.9844C47.6248 39.744 47.9467 39.5208 48.2182 39.5608C48.4897 39.5952 48.7047 39.7898 48.8941 39.9729C48.9193 39.8241 49.0771 39.7097 49.2413 39.7154C49.4054 39.7268 49.5508 39.8585 49.5508 40.0073C49.4307 39.8985 49.4811 39.6868 49.6389 39.6295C49.797 39.5723 49.9925 39.7039 49.9864 39.8527C50.1002 39.6753 50.34 39.5837 50.5546 39.6295C50.7693 39.6753 50.9398 39.8585 50.9587 40.0588C50.9715 39.9272 51.1104 39.8356 51.2554 39.8127C51.3943 39.7955 51.5397 39.8298 51.6786 39.8642C51.8428 39.91 52.0194 39.9615 52.1079 40.0931C52.1964 40.2248 52.1143 40.448 51.9437 40.4366C52.1711 40.4308 52.4298 40.4423 52.5752 40.5968C52.7205 40.7571 52.5499 41.0776 52.3477 40.9917C52.6192 40.9689 52.9223 41.0776 53.0172 41.3065C53.1117 41.5355 52.8911 41.8446 52.6256 41.7873C52.8467 41.8159 53.0236 42.022 52.9984 42.2223C52.9732 42.4055 52.7522 42.5658 52.5247 42.5486Z" fill="#333333"/>
<path d="M52.675 55.0604L52.7379 55.1921C52.7191 55.152 52.6939 55.1062 52.675 55.0604Z" fill="#B79A7D"/>
<path d="M48.6971 94.1927C48.7035 93.878 48.7099 93.5575 48.7099 93.2429C48.1037 93.0483 47.409 93.0882 46.8408 93.3572C46.7779 93.3859 46.6578 93.3688 46.6954 93.3173C46.1653 93.7521 45.5526 94.1013 44.8959 94.3474C44.7446 94.4047 44.5868 94.4562 44.4731 94.5593C44.2332 94.7709 44.2709 95.1887 44.5488 95.3604C44.8075 95.5266 45.1614 95.4693 45.4705 95.4061C46.3483 95.229 47.226 95.0573 48.1037 94.8798C48.2615 94.8453 48.4385 94.8109 48.5458 94.7023C48.6847 94.5706 48.6911 94.376 48.6971 94.1927Z" fill="#4D4D4D"/>
<path d="M54.7907 93.1913C54.6645 92.8937 54.538 92.6018 54.4119 92.3042C53.7676 92.3271 53.1426 92.6018 52.7261 93.0483C52.6817 93.094 52.5619 93.1169 52.5744 93.0595C52.2588 93.6377 51.8356 94.1698 51.3306 94.6221C51.2169 94.7252 51.0904 94.8282 51.0275 94.96C50.895 95.2402 51.0968 95.6122 51.4252 95.6809C51.7347 95.744 52.0378 95.5723 52.2965 95.4119C53.0352 94.9542 53.7804 94.4903 54.5256 94.0326C54.6645 93.9466 54.8035 93.8551 54.8604 93.7179C54.9296 93.5463 54.8603 93.363 54.7907 93.1913Z" fill="#4D4D4D"/>
<path d="M43.4315 72.3229C43.2421 72.5632 42.9895 72.7579 42.7937 72.9983C42.2443 73.6737 42.2571 74.6468 42.7116 75.3793C43.1725 76.1063 44.025 76.5927 44.9279 76.776C45.8497 76.9589 46.8095 76.8558 47.7441 76.9589C48.6915 77.0678 49.6068 77.3941 50.5602 77.4685C51.9685 77.577 53.3512 77.1306 54.6838 76.6957C55.6436 76.381 56.742 75.923 56.9506 75.013C57.0515 74.5608 56.9001 74.0973 56.7359 73.6621C56.3191 72.5575 55.833 71.4815 55.2644 70.4398C55.1823 70.2853 55.0942 70.1307 54.9489 70.0162C54.6269 69.7701 54.1468 69.8273 53.73 69.896C51.659 70.2394 49.55 70.4341 47.4474 70.4798C46.9424 70.4913 46.4371 70.497 45.9382 70.4913C45.4901 70.4856 44.7005 70.3139 44.284 70.4398C43.842 70.5771 43.9809 70.8118 43.886 71.264C43.8039 71.6418 43.6778 72.0081 43.4315 72.3229Z" fill="#662E2A"/>
<path d="M50.6311 54.4423C50.7952 54.4251 50.9718 54.4137 51.13 54.4538C51.4772 54.5453 51.6097 54.8544 51.6918 55.1234C52.0013 56.1022 52.3044 57.0809 52.6136 58.0596C52.8598 58.8381 53.1001 59.6108 53.3463 60.3892C54.0911 62.7587 54.8363 65.1398 55.2848 67.5494C55.4301 68.3393 55.5499 69.1349 55.632 69.9305C55.6384 70.0163 55.6508 70.1136 55.5943 70.188C55.5246 70.2796 55.3857 70.3254 55.2532 70.3655C51.5593 71.43 47.3348 71.8994 43.679 70.7718C43.7546 69.0605 43.8303 67.3548 43.9124 65.6434C43.9821 64.1553 44.0453 62.6729 44.2283 61.1905C44.4558 59.3188 44.8722 57.4644 45.466 55.6443C45.5541 55.381 45.6362 54.5339 45.9393 54.3736C46.2553 54.2076 46.8615 54.4995 47.2467 54.5511C48.3643 54.6999 49.5199 54.5453 50.6311 54.4423Z" fill="#AA4A4D"/>
<path d="M52.1076 55.2206C53.4402 57.8764 54.7788 60.5264 56.111 63.1822C56.2435 63.4455 56.3825 63.7259 56.3448 64.0121C56.3068 64.344 56.0477 64.6188 55.8015 64.8706C54.3619 66.353 52.8527 67.8813 50.8574 68.6768C50.5355 68.8085 50.1819 68.9172 49.8283 68.8772C49.4748 68.8371 49.1272 68.6082 49.0832 68.2876C49.0263 67.8469 49.5124 67.5321 49.9229 67.2917C51.066 66.6335 52.0887 65.7922 52.9284 64.8249C53.2507 64.4528 53.5539 64.0407 53.6103 63.5656C53.6736 63.0448 53.4209 62.5354 53.1687 62.0603C52.3286 60.452 51.35 58.9467 50.4218 57.3898C50.0746 56.8118 49.9104 56.331 50.3269 55.7415C50.6744 55.2664 51.6971 54.4021 52.1076 55.2206Z" fill="#B79A7D"/>
<path d="M49.2322 46.8356C49.1437 46.9844 49.0488 47.1447 49.0552 47.3164C49.0616 47.4881 49.2005 47.6713 49.3899 47.6655C49.0552 47.8201 49.0236 48.3238 49.3395 48.5184C49.1121 48.7015 49.1625 49.0907 49.4276 49.2281C49.2382 49.3998 49.3203 49.7489 49.5793 49.8348C49.396 49.9378 49.3267 50.1782 49.4276 50.3499C49.5289 50.5216 49.7812 50.6075 49.9834 50.5331C49.8697 50.6418 49.7559 50.762 49.7499 50.9109C49.7435 51.0597 49.9141 51.2142 50.0591 51.1512C49.8256 51.3172 49.8444 51.695 50.0971 51.8438C50.3433 51.9926 50.735 51.8552 50.8106 51.592C50.9244 51.735 51.1706 51.7465 51.3348 51.6492C51.499 51.5519 51.5871 51.3802 51.6251 51.2085C51.8397 51.2142 52.0672 51.197 52.2377 51.0825C52.4079 50.9681 52.49 50.722 52.345 50.5732C52.5344 50.5903 52.7303 50.493 52.8184 50.3385C52.9068 50.1839 52.8816 49.9836 52.7555 49.852C52.9953 49.7661 53.2164 49.6001 53.2544 49.3712C53.292 49.1422 53.0774 48.8847 52.8248 48.9247C53.1847 48.7816 53.393 48.381 53.2796 48.0376C53.248 47.946 53.1279 47.8487 53.0586 47.9231C53.2668 47.78 53.4122 47.5568 53.3994 47.3221C53.3869 47.0874 53.1723 46.8642 52.9132 46.8528C53.1155 46.7497 53.2036 46.4922 53.1026 46.2976C53.0017 46.1087 52.7174 46.0114 52.5028 46.0973C52.528 45.9484 52.5533 45.7996 52.5721 45.6565C52.5785 45.605 52.5849 45.5421 52.5469 45.502C52.5156 45.4677 52.4588 45.462 52.4019 45.462C52.2313 45.4562 52.0544 45.4791 51.8902 45.5306C51.941 45.3761 51.8525 45.1987 51.6948 45.13C51.5366 45.0613 51.3284 45.1014 51.2211 45.2273C50.7097 44.8438 49.8192 45.0269 49.5349 45.5707C49.1625 45.3188 48.8974 45.7939 48.8278 46.0629C48.7901 46.2232 48.7837 46.4178 48.8594 46.5666C48.8782 46.5952 49.1813 46.9215 49.2322 46.8356Z" fill="#333333"/>
<path d="M30.5874 67.0685C30.6063 67.16 30.6252 67.2516 30.6758 67.3318C30.7263 67.4119 30.8147 67.4806 30.9157 67.4806C30.9599 67.4806 31.0104 67.4691 31.0547 67.4806C31.1241 67.492 31.1746 67.5492 31.2062 67.6122C31.3199 67.8354 31.2567 68.1216 31.4398 68.299C31.5851 68.4421 31.8376 68.4536 32.0397 68.3906C32.2102 68.3334 32.368 68.2132 32.4312 68.0586C32.488 67.8984 32.4438 67.721 32.3806 67.5664C32.1597 67.0341 31.724 66.5705 31.6355 66.0039C31.6229 65.9237 31.6166 65.8321 31.5598 65.7692C31.4651 65.6662 31.2946 65.6719 31.1494 65.7005C30.941 65.7406 30.48 65.8207 30.4106 66.0439C30.3664 66.1756 30.4548 66.3816 30.4863 66.5133C30.5179 66.6964 30.5495 66.8853 30.5874 67.0685Z" fill="#F9E9DE"/>
<path d="M4.77939 52.0383C4.68469 51.6948 4.64681 51.3457 4.52052 51.008C4.48892 50.9164 4.44476 50.8248 4.36267 50.7619C4.30581 50.7161 4.23005 50.6932 4.1669 50.6589C3.83223 50.47 3.80068 49.9777 3.44077 49.8461C3.23239 49.766 2.97981 49.8461 2.80301 49.9777C2.52518 50.1781 2.34837 50.4929 2.34205 50.8134C2.32943 51.2083 2.55674 51.5804 2.81563 51.8952C3.07452 52.2099 3.38394 52.5019 3.57968 52.851C3.66177 52.9941 3.7249 53.1486 3.82594 53.2803C3.92697 53.4119 4.07849 53.5264 4.25532 53.5378C4.46998 53.555 4.65313 53.4234 4.8236 53.3032C5.04463 53.1429 5.34767 53.0227 5.14562 52.7594C4.96883 52.5362 4.85519 52.3073 4.77939 52.0383Z" fill="#F9E9DE"/>
<path d="M21.6955 78.0576C21.7397 78.7505 21.7903 79.443 21.9355 80.124C22.0491 80.6564 22.2196 81.1773 22.3964 81.6923C23.4067 84.6341 24.6696 87.5073 26.1787 90.272C26.305 90.5068 26.4565 90.7584 26.7217 90.8615C27.1385 91.0219 27.631 90.7014 27.7699 90.3065C27.9088 89.9116 27.7952 89.488 27.6878 89.0873C27.1196 87.0438 26.5512 85.0062 25.983 82.963C25.8441 82.4709 25.7114 81.9783 25.6294 81.4749C25.5347 80.8851 25.5157 80.2898 25.5031 79.6946C25.4715 78.5959 25.44 77.491 25.5726 76.3978C25.6673 75.6309 25.8377 74.8697 25.9956 74.1086C26.2798 72.7405 26.5134 71.3612 26.6902 69.976C26.7407 69.5811 26.7912 69.1747 26.6902 68.7855C26.4439 67.7896 25.2758 67.1371 24.1518 67.1371C23.3183 67.1371 22.4154 67.429 21.7524 67.8812C21.1967 68.2647 21.2598 68.631 21.2914 69.2148C21.3925 71.0921 21.424 72.9752 21.5124 74.8527C21.5692 75.923 21.6261 76.9931 21.6955 78.0576Z" fill="#ADADAD"/>
<path d="M15.4953 70.4969C15.508 69.667 15.5269 68.8256 15.7605 68.0472C15.9941 67.2688 16.4614 66.5476 17.137 66.2442C17.9516 65.8779 18.9619 66.1985 19.606 66.9139C20.25 67.6294 20.5468 68.6711 20.5152 69.6613C20.4963 70.1821 20.3952 70.6915 20.3321 71.2066C20.2058 72.1682 20.2121 73.1526 20.1869 74.1257C20.1111 77.1764 19.7954 80.1984 19.4797 83.2204C19.2523 85.3782 19.0313 87.536 18.804 89.6938C18.7472 90.2263 18.6967 90.7642 18.6399 91.2966C18.5704 91.9148 18.5009 92.1322 17.8758 92.0749C17.0929 92.0062 17.055 91.4226 16.9602 90.6557C16.4172 86.3455 15.9436 82.0244 15.6847 77.6914C15.5395 75.2991 15.4511 72.8894 15.4953 70.4969Z" fill="#ADADAD"/>
<path d="M13.2601 69.667C12.8938 70.4053 12.3192 71.0578 12.0414 71.8248C11.7699 72.5975 11.9151 73.5935 12.6981 73.9826C13.5569 74.412 14.7061 73.9024 15.5838 74.2973C16.2404 74.5892 16.5625 75.3104 17.2128 75.6196C17.7811 75.8886 18.4694 75.7855 19.0692 75.5851C19.6691 75.3848 20.2311 75.0871 20.8562 74.9728C21.5255 74.8468 22.2391 74.9441 22.8452 75.236C23.3567 75.4878 23.8303 75.8827 24.4112 75.8944C25.4657 75.9114 26.1224 74.6752 27.1706 74.612C27.6125 74.5892 28.0356 74.7782 28.4776 74.7496C29.3301 74.6922 29.8668 73.8222 29.8226 73.0496C29.7784 72.2769 29.3427 71.5787 29.0017 70.8689C28.6102 70.0505 28.3387 69.1862 28.1998 68.3048C28.0861 67.5607 27.9851 66.6907 27.2779 66.3072C26.9243 66.1126 26.4886 66.0897 26.0782 66.0897C23.2493 66.0611 20.4458 66.5819 17.6169 66.4846C16.6446 66.4503 15.2428 65.8836 14.5608 66.6335C13.8094 67.4748 13.7336 68.7054 13.2601 69.667Z" fill="#F2F2F2"/>
<path d="M16.5881 90.0491C16.4681 90.3293 16.5628 90.6386 16.6386 90.9304C16.7838 91.4912 16.847 92.0752 16.8217 92.6534C16.8217 92.6991 16.8154 92.7448 16.7965 92.7906C16.746 92.8936 16.607 92.9336 16.4871 92.9564C16.0072 93.0537 15.5084 93.0711 15.0285 93.008C14.7128 92.968 14.3592 92.9049 14.1129 93.0882C13.9677 93.1913 13.8982 93.3572 13.8477 93.5176C13.7719 93.7408 13.7214 93.964 13.6835 94.1927C13.6393 94.4903 13.6456 94.8453 13.9108 95.0286C14.0813 95.1429 14.3023 95.16 14.517 95.1658C15.8241 95.2061 17.1374 95.1716 18.4445 95.0515C18.6908 95.0286 18.9686 94.9829 19.0949 94.788C19.1644 94.6794 19.1643 94.5477 19.1643 94.4217C19.1581 93.5176 19.1328 92.6131 19.0886 91.7089C19.0633 91.2567 19.0318 90.8044 19.0002 90.3522C18.9876 90.215 19.0255 89.9918 18.8613 89.9232C18.7224 89.86 18.3435 89.9802 18.192 89.9976C18.0341 90.0204 16.6007 90.0204 16.5881 90.0491Z" fill="#736357"/>
<path d="M27.6309 88.4347C27.9024 89.276 28.1803 90.1174 28.4518 90.9587C28.5528 91.2622 28.6538 91.5714 28.818 91.8516C28.9127 92.012 29.0264 92.1609 29.1337 92.3097C29.4368 92.739 29.6705 93.2084 29.8283 93.7005C29.8599 93.8094 29.8914 93.9179 29.8788 94.0326C29.8599 94.164 29.7841 94.2842 29.6957 94.3873C29.2853 94.8624 28.5718 95.1027 27.9214 94.9825C27.7888 94.9597 27.6562 94.9197 27.5551 94.8453C27.4225 94.7535 27.3468 94.6105 27.2899 94.4733C26.8416 93.4657 26.8732 92.3213 26.3744 91.3308C26.2544 91.0905 26.1028 90.8615 25.9829 90.6154C25.8945 90.4324 25.825 90.2433 25.7556 90.0546C25.6735 89.8314 25.4651 89.4822 25.4651 89.2474C25.4651 89.0241 25.7556 88.9729 25.9765 88.8869C26.5196 88.6808 27.0689 88.532 27.6309 88.4347Z" fill="#736357"/>
<path d="M13.6271 67.017C13.7218 67.1028 13.8734 67.1257 13.9807 67.2001C14.1133 67.2917 14.1702 67.4634 14.107 67.6065C14.0502 67.7439 13.8923 67.8583 13.9239 68.0014C13.9618 68.196 14.2712 68.2132 14.4606 68.1216C14.65 68.0301 14.8395 67.8812 15.0542 67.9098C15.2941 67.9385 15.4267 68.1731 15.5404 68.3735C15.654 68.5681 15.8561 68.7856 16.0897 68.7283C16.2602 68.6883 16.3738 68.5108 16.5507 68.4937C16.8159 68.465 16.9422 68.7627 17.0811 68.963C17.2516 69.2091 17.5925 69.3808 17.8956 69.2835C18.1545 69.1977 18.325 68.9458 18.5965 68.9172C18.8743 68.8886 19.0953 69.1061 19.2911 69.2835C19.4868 69.461 19.7899 69.6327 20.0235 69.501C20.0993 69.461 20.1499 69.398 20.2067 69.3407C20.4908 69.0603 20.9581 68.9458 21.3622 69.0546C21.6211 69.1233 21.8421 69.2721 22.0883 69.3522C22.3409 69.4381 22.6566 69.4381 22.8334 69.2606C22.9155 69.1748 22.9597 69.066 23.0418 68.9802C23.2502 68.7741 23.6164 68.8256 23.9069 68.9229C24.1973 69.0145 24.5193 69.1347 24.7972 69.0145C25.075 68.8886 25.214 68.5509 25.5234 68.4994C25.7065 68.4708 25.8833 68.5509 26.0664 68.5623C26.3821 68.5795 26.6852 68.3563 26.7294 68.0758C26.9504 68.093 27.184 68.1045 27.3924 68.0186C27.5944 67.9327 27.7523 67.7153 27.6639 67.5264C27.9607 67.5378 28.1627 67.1429 27.9544 66.9483C27.847 66.851 27.6639 66.7995 27.626 66.6621C27.5945 66.5419 27.6829 66.3874 27.5755 66.313C27.2787 66.4274 27.1019 66.6965 26.8746 66.9025C26.521 67.223 26.0348 67.3833 25.5486 67.4977C23.7364 67.9327 21.8231 67.7954 19.9541 67.6466C18.6281 67.5435 17.2768 67.4291 16.0329 66.9998C15.8182 66.9254 15.6035 66.8452 15.3825 66.7937C14.9531 66.6964 14.5048 66.6106 14.0817 66.5247C13.785 66.4618 13.3303 66.7422 13.6271 67.017Z" fill="white"/>
<path d="M20.7426 46.4062C20.408 46.6752 19.9533 46.7783 19.524 46.8984C19.0946 47.0186 18.6526 47.1675 18.3747 47.488C18.179 47.7112 18.0969 47.9974 18.0148 48.2721C17.8633 48.7758 17.718 49.3367 17.9832 49.806C18.1159 50.0464 18.3495 50.2353 18.4442 50.4929C18.5642 50.8134 18.4378 51.1625 18.2737 51.4659C18.1095 51.7692 17.9075 52.0669 17.857 52.3989C17.8191 52.6393 17.8633 52.8968 17.7875 53.1258C17.6486 53.5378 17.1434 53.7782 16.6699 53.7954C16.1963 53.8126 15.7354 53.6466 15.2933 53.4863C14.9903 53.3776 14.6556 53.2288 14.5798 52.9426C14.5293 52.7308 14.643 52.519 14.7882 52.3473C14.9334 52.1756 15.1166 52.0325 15.2302 51.8437C15.287 51.7464 15.3312 51.6319 15.2807 51.5288C15.2175 51.4029 15.0281 51.3572 14.965 51.2312C14.8892 51.0767 15.0345 50.905 15.1923 50.8077C15.3439 50.7104 15.5333 50.6188 15.5775 50.4528C15.6533 50.1723 15.2617 49.9663 15.167 49.6916C15.0597 49.3939 15.3123 49.0963 15.5459 48.8674C15.7796 48.6384 16.0258 48.3408 15.9184 48.0432C15.8553 47.8715 15.6785 47.7169 15.7227 47.5452C15.7859 47.3163 16.1521 47.3048 16.3415 47.1446C16.6635 46.8756 16.3667 46.389 16.4615 46.0055C16.5625 45.5992 17.0929 45.3817 17.2066 44.981C17.2382 44.8723 17.2382 44.7521 17.2824 44.649C17.3392 44.5174 17.4655 44.4201 17.5854 44.3285C18.0211 43.9909 18.4821 43.6417 19.044 43.5444C19.4166 43.4757 19.8018 43.5272 20.168 43.5959C20.4963 43.6589 20.8373 43.7447 21.0583 43.9737C21.5572 44.4945 21.292 45.9712 20.7426 46.4062Z" fill="#C6B697"/>
<path d="M6.96511 53.452C8.68893 53.9156 10.4885 54.362 12.2692 54.1274C14.2897 53.8583 16.1272 52.7308 18.1667 52.7136C18.2867 52.7136 18.4193 52.7193 18.5204 52.7766C18.6024 52.8281 18.6593 52.9082 18.7098 52.9883C19.177 53.761 19.2844 54.7054 19.0129 55.5525C18.8614 56.0219 18.5898 56.4626 18.2046 56.806C17.9205 57.0578 17.5795 57.2467 17.2259 57.4013C16.0199 57.9336 14.6307 58.0881 13.2921 57.9679C11.9534 57.8534 10.6527 57.4814 9.40876 57.0178C8.46161 56.6629 7.53972 56.2508 6.70624 55.7185C5.78435 55.1233 4.98242 54.3849 4.19315 53.6465C4.14895 53.6065 4.1047 53.5607 4.09841 53.5035C4.07315 53.0971 4.98871 52.7594 5.34232 52.8338C5.87905 52.954 6.40945 53.3089 6.96511 53.452Z" fill="#D5AFCB"/>
<path d="M22.5615 52.2787C22.852 52.2101 23.1614 52.1185 23.4582 52.17C23.8497 52.233 24.0833 52.4963 24.2601 52.7424C25.4788 54.4309 25.9523 56.3139 26.3754 58.1741C26.9816 60.8184 27.7835 63.2624 27.7645 65.9411C27.7583 66.5821 27.6698 67.3033 26.95 67.7097C26.5838 67.9157 26.1165 68.0073 25.6556 68.0702C23.6728 68.345 21.3681 68.4366 19.3539 68.3106C18.4698 68.2534 17.5795 68.1961 16.7271 68.0359C15.742 67.8528 14.7507 67.4921 14.2897 66.8683C13.8793 66.3188 13.9551 65.6606 14.0561 65.0482C14.4223 62.7015 14.9401 60.3605 15.6095 58.0424C16.0578 56.4856 16.5756 54.9345 17.087 53.3892C17.3143 52.6966 17.6616 51.9239 18.8866 52.1299C20.181 52.3417 21.204 52.5993 22.5615 52.2787Z" fill="#D5AFCB"/>
<path d="M21.2337 51.9753C20.8296 52.0096 20.3434 52.0783 19.9456 52.0153C18.8406 51.8379 18.1776 50.8076 17.6093 49.9033C17.0915 49.0791 17.2494 47.5624 17.4199 46.6122C17.4767 46.2917 17.5462 45.9597 17.7419 45.6908C18.1334 45.1699 18.8848 45.0554 19.5541 45.0268C20.7286 44.9695 21.9536 45.0383 22.9639 45.5934C25.3633 46.8984 24.0815 51.7234 21.2337 51.9753Z" fill="#F9E9DE"/>
<path d="M26.2033 54.0873C29.2089 57.2925 30.4276 61.4479 31.5642 65.4602C31.5894 65.546 31.6146 65.6433 31.5767 65.7234C31.501 65.9123 30.8064 66.0039 30.4907 66.0955C30.3455 66.1356 30.1939 66.0841 30.1371 65.9581C29.3099 64.1552 28.2807 62.1405 26.841 60.3375C25.6854 58.8894 24.8899 57.5444 23.0398 56.6858C22.2694 56.3252 22.0926 55.9875 22.1494 55.1977C22.2063 54.425 22.7809 53.6237 23.4818 53.2517C24.5362 52.6793 25.5403 53.3776 26.2033 54.0873Z" fill="#D5AFCB"/>
<path d="M19.088 54.3277C19.309 55.2779 19.4605 56.2337 19.6184 57.1953C19.6436 57.3384 19.6815 57.4986 19.8204 57.5616C20.0225 57.6589 20.2498 57.4757 20.3761 57.304C21.077 56.3539 21.1843 55.1462 21.6769 54.093C21.8789 53.6523 22.1568 53.2345 22.2894 52.7709C22.3146 52.685 22.3336 52.5935 22.2957 52.5076C22.2199 52.3302 21.9547 52.313 21.7463 52.3187C21.4179 52.3302 21.0896 52.3245 20.755 52.313C20.4961 52.3016 20.2372 52.2901 19.991 52.2214C19.6878 52.1413 19.3406 51.9295 19.0185 51.9352C18.7218 51.9467 18.7407 52.1413 18.7407 52.3702C18.747 53.0399 18.9364 53.6867 19.088 54.3277Z" fill="#F7F7F7"/>
<path d="M18.2299 52.6278C18.2551 52.7308 18.3814 52.7995 18.4003 52.9082C18.4193 53.0284 18.2867 53.1257 18.1604 53.1658C18.0341 53.2001 17.8889 53.2059 17.7752 53.2688C17.6616 53.3318 17.6047 53.4978 17.7058 53.5722C17.75 53.6008 17.8068 53.6065 17.8636 53.618C18.072 53.6637 18.2614 53.8584 18.1857 54.0415C18.1351 54.156 18.0026 54.2247 17.9142 54.322C17.8258 54.4192 17.8005 54.5967 17.9268 54.6425C17.971 54.6597 18.0215 54.6539 18.0657 54.6539C18.2299 54.6597 18.3877 54.797 18.3751 54.9458C18.3625 55.0717 18.2488 55.1634 18.1604 55.2549C18.072 55.3465 17.9962 55.4838 18.0657 55.5926C18.1351 55.7014 18.312 55.7128 18.3814 55.8215C18.5393 56.0562 18.0215 56.3538 18.2046 56.5714C18.293 56.6744 18.4888 56.6572 18.5772 56.7659C18.6845 56.8976 18.5329 57.075 18.394 57.178C18.2551 57.2811 18.1036 57.4585 18.2109 57.5902C18.293 57.6875 18.4572 57.6703 18.5897 57.6646C18.7224 57.6531 18.8992 57.6932 18.9181 57.8134C18.9307 57.9221 18.7982 58.0023 18.7855 58.1167C18.754 58.3342 19.1518 58.3857 19.2591 58.5803C19.3917 58.8322 18.9939 59.0726 19.0065 59.353C19.0128 59.582 19.297 59.7422 19.3096 59.9654C19.3222 60.1429 19.1644 60.3089 19.2086 60.4863C19.2212 60.5321 19.2465 60.5779 19.2591 60.6237C19.2781 60.7324 19.2149 60.8355 19.1581 60.9327C19.0823 61.0816 19.0381 61.2533 19.1075 61.4021C19.177 61.5509 19.4043 61.6425 19.5496 61.5509C19.6569 61.4822 19.6885 61.3391 19.6695 61.2189C19.6569 61.0987 19.6127 60.9785 19.6253 60.8526C19.6506 60.5607 19.9789 60.3375 19.9726 60.0513C19.9663 59.891 19.8652 59.748 19.859 59.5877C19.8463 59.3302 20.0989 59.0897 20.0421 58.8379C20.0105 58.6891 19.8779 58.5746 19.8274 58.4315C19.739 58.1854 19.9095 57.9278 19.9221 57.6646C19.9284 57.5386 19.8905 57.4127 19.859 57.2868C19.7453 56.8575 19.6253 56.4282 19.5117 55.999C19.4864 55.896 19.4548 55.7929 19.4611 55.6842C19.4611 55.5869 19.4927 55.4896 19.5053 55.398C19.5622 55.0374 19.417 54.6825 19.3222 54.3334C19.1897 53.8755 19.1328 53.4004 19.1392 52.9254C19.1454 52.6907 19.1833 52.2729 18.8676 52.1985C18.6466 52.147 18.1667 52.3874 18.2299 52.6278Z" fill="white"/>
<path d="M22.9891 52.7079C23.128 52.954 23.0206 53.2688 22.8122 53.4749C22.768 53.5207 22.7112 53.5664 22.6923 53.6237C22.5976 53.8526 23.008 54.0473 22.9575 54.2877C22.9007 54.5624 22.3703 54.5166 22.2566 54.7741C22.1935 54.9229 22.3008 55.0775 22.3955 55.2091C22.4902 55.3408 22.5723 55.5239 22.4587 55.6499C22.2755 55.8559 21.7956 55.6327 21.6504 55.8616C21.5683 55.9875 21.6693 56.1421 21.7262 56.2795C21.7956 56.4397 21.783 56.6515 21.6252 56.7431C21.4547 56.8404 21.1958 56.7545 21.0442 56.8747C20.9369 56.9606 20.9369 57.1151 20.9306 57.2468C20.9243 57.3784 20.8801 57.5387 20.7412 57.5787C20.7033 57.5902 20.6591 57.5902 20.6275 57.6131C20.5896 57.6417 20.5833 57.6932 20.5833 57.739C20.577 57.9107 20.577 58.0824 20.5707 58.2484C20.4191 58.2083 20.236 58.3228 20.2297 58.4716C20.2297 58.546 20.2613 58.6261 20.2234 58.6891C20.1792 58.7635 20.0592 58.7807 19.9771 58.7406C19.895 58.7005 19.8382 58.6261 19.794 58.5517C19.6614 58.3285 19.5604 58.0653 19.6488 57.8248C19.7183 57.636 19.895 57.4986 20.0339 57.3383C20.2802 57.0579 20.4128 56.7145 20.5454 56.3825C20.8927 55.5239 21.2716 54.6711 21.6757 53.8297C21.8651 53.4405 22.0419 53.0284 22.244 52.6507C22.4082 52.3874 22.8249 52.4103 22.9891 52.7079Z" fill="white"/>
<path d="M22.8001 47.1273C23.2042 47.362 23.5389 47.7226 23.6525 48.1461C23.8041 48.7128 23.5452 49.308 23.1979 49.8003C22.8569 50.2925 22.4275 50.7447 22.1813 51.2827C22.0739 51.5173 22.0045 51.7692 21.9539 52.021C21.8655 52.456 21.834 52.9139 21.9855 53.3317C22.1371 53.7496 22.5159 54.1216 22.9958 54.2017C23.4757 54.2819 24.025 53.9842 24.0819 53.5492C24.1135 53.3146 24.0188 53.0399 24.1893 52.8567C24.4166 52.6163 24.9596 52.725 25.0796 52.4274C25.1995 52.1355 24.7196 51.9123 24.6755 51.5975C24.6186 51.1739 25.3637 51.0022 25.471 50.5844C25.5657 50.2181 25.1174 49.846 25.2627 49.4969C25.3321 49.3309 25.5153 49.2336 25.6604 49.1134C25.8057 48.9932 25.9257 48.8043 25.831 48.6498C25.7931 48.5926 25.7362 48.5468 25.692 48.4953C25.5847 48.3522 25.61 48.1633 25.6289 47.9916C25.7173 47.1674 25.4963 46.3146 25.0101 45.6106C24.8207 45.3358 24.5933 45.0897 24.3534 44.8493C24.0819 44.586 23.7978 44.3342 23.4631 44.1396C22.8695 43.7847 22.1497 43.6187 21.4488 43.6588C21.171 43.676 20.8931 43.7275 20.6469 43.8477C19.9649 44.1854 19.6745 45.2156 20.0596 45.8224C20.6722 46.7724 21.8782 46.5836 22.8001 47.1273Z" fill="#C6B697"/>
<path d="M5.87797 49.9606C5.92218 50.0522 5.97271 50.161 5.9285 50.2583C5.89695 50.3155 5.84009 50.3555 5.78327 50.3956C4.58356 51.1626 3.36488 51.9639 2.11465 52.6622C2.03256 52.708 1.94416 52.7595 1.84313 52.7824C1.64739 52.8282 1.51479 52.9713 1.35061 52.8568C1.18644 52.748 0.914915 52.3188 0.80757 52.1642C0.649712 51.9353 0.435033 51.6262 0.321374 51.3858C0.283488 51.3114 0.251918 51.2256 0.264547 51.1454C0.277176 51.0367 0.371889 50.9508 0.460292 50.8707C0.75075 50.6188 1.13592 50.4529 1.43901 50.2182C1.87469 49.8805 2.33564 49.6344 2.82185 49.3539C3.15651 49.1593 3.48484 48.9018 3.83846 48.7358C4.07839 48.627 4.36253 48.4324 4.62144 48.3809C4.81088 48.3466 4.89926 48.4668 4.994 48.5927C5.32234 49.0277 5.63804 49.4799 5.87797 49.9606Z" fill="#FF8FA0"/>
<path d="M5.60736 49.9778C5.64524 50.058 5.68945 50.1553 5.65157 50.2354C5.62634 50.2869 5.5758 50.3213 5.5316 50.3499C4.52762 51.0024 3.59941 51.6148 2.55123 52.2043C2.48178 52.2444 2.25446 52.4047 2.17237 52.4218C2.0082 52.4619 2.0524 52.4619 1.91348 52.3646C1.77456 52.2673 1.54093 51.901 1.45253 51.7636C1.31993 51.569 1.13683 51.3 1.0358 51.0825C1.00422 51.0138 0.972643 50.9451 0.985273 50.8764C0.997898 50.7791 1.07367 50.7047 1.14313 50.6418C1.38308 50.4243 1.61671 50.3613 1.87559 50.161C2.24183 49.8691 2.62699 49.663 3.03111 49.4226C3.30894 49.2567 3.58679 49.0334 3.87726 48.8961C4.07298 48.8045 4.31292 48.6328 4.53391 48.5985C4.69179 48.5698 4.76755 48.6786 4.84964 48.7873C5.12749 49.1651 5.39898 49.56 5.60736 49.9778Z" fill="white"/>
<path d="M5.60736 49.9778C5.64524 50.058 5.68945 50.1553 5.65157 50.2354C5.62634 50.2869 5.5758 50.3213 5.5316 50.3499C4.52762 51.0024 3.59941 51.6148 2.55123 52.2043C2.48178 52.2444 2.25446 52.4047 2.17237 52.4218C2.0082 52.4619 2.0524 52.4619 1.91348 52.3646C1.77456 52.2673 1.54093 51.901 1.45253 51.7636C1.31993 51.569 1.13683 51.3 1.0358 51.0825C1.00422 51.0138 0.972643 50.9451 0.985273 50.8764C0.997898 50.7791 1.07367 50.7047 1.14313 50.6418C1.38308 50.4243 1.61671 50.3613 1.87559 50.161C2.24183 49.8691 2.62699 49.663 3.03111 49.4226C3.30894 49.2567 3.58679 49.0334 3.87726 48.8961C4.07298 48.8045 4.31292 48.6328 4.53391 48.5985C4.69179 48.5698 4.76755 48.6786 4.84964 48.7873C5.12749 49.1651 5.39898 49.56 5.60736 49.9778Z" fill="white"/>
<path d="M5.60736 49.9778C5.64524 50.058 5.68945 50.1553 5.65157 50.2354C5.62634 50.2869 5.5758 50.3213 5.5316 50.3499C4.52762 51.0024 3.59941 51.6148 2.55123 52.2043C2.48178 52.2444 2.25446 52.4047 2.17237 52.4218C2.0082 52.4619 2.0524 52.4619 1.91348 52.3646C1.77456 52.2673 1.54093 51.901 1.45253 51.7636C1.31993 51.569 1.13683 51.3 1.0358 51.0825C1.00422 51.0138 0.972643 50.9451 0.985273 50.8764C0.997898 50.7791 1.07367 50.7047 1.14313 50.6418C1.38308 50.4243 1.61671 50.3613 1.87559 50.161C2.24183 49.8691 2.62699 49.663 3.03111 49.4226C3.30894 49.2567 3.58679 49.0334 3.87726 48.8961C4.07298 48.8045 4.31292 48.6328 4.53391 48.5985C4.69179 48.5698 4.76755 48.6786 4.84964 48.7873C5.12749 49.1651 5.39898 49.56 5.60736 49.9778Z" fill="white"/>
<path d="M1.26401 51.6835C1.20087 51.6492 1.1251 51.6377 1.05565 51.6549C0.97356 51.6778 0.916724 51.7407 0.891466 51.8151C0.872526 51.8895 0.885159 51.9697 0.916728 52.0384C0.929357 52.067 0.948297 52.0956 0.973556 52.1185C1.01776 52.1528 1.07458 52.1586 1.1251 52.1528C1.17561 52.1471 1.22613 52.1242 1.27033 52.0956C1.31453 52.067 1.35873 52.0327 1.38398 51.9869C1.45976 51.8666 1.37767 51.7465 1.26401 51.6835Z" fill="#E5E5E5"/>
<path d="M5.51781 49.4628C5.53042 49.48 5.54307 49.4972 5.54307 49.5201C5.54307 49.5429 5.5241 49.5601 5.49887 49.5601C5.47989 49.5601 5.46728 49.5429 5.46095 49.5258C5.40413 49.4399 5.34731 49.3541 5.28416 49.2625C5.27155 49.2396 5.24628 49.1938 5.28416 49.1766C5.32204 49.1652 5.34731 49.2053 5.35992 49.2281C5.41678 49.3083 5.46728 49.3884 5.51781 49.4628Z" fill="#8A8A8A"/>
<path d="M5.25486 49.0793C5.2422 49.0621 5.21694 49.0621 5.198 49.0735C5.18538 49.085 5.18538 49.1136 5.20432 49.125C5.22326 49.1365 5.24853 49.1308 5.26115 49.1136C5.26115 49.1022 5.26115 49.0907 5.25486 49.0793Z" fill="#8A8A8A"/>
<path d="M3.03727 51.9696C3.02464 51.9925 3.01203 52.0097 2.98677 52.0211C2.9552 52.0326 2.91731 52.0097 2.88574 51.9925C2.77839 51.9181 2.67104 51.8437 2.5637 51.7693C2.46267 51.7006 2.36164 51.6319 2.30481 51.5346C2.27955 51.4888 2.26693 51.4201 2.31745 51.3973C2.34902 51.3858 2.38059 51.3915 2.41216 51.4087C2.53213 51.4545 2.59528 51.5403 2.69 51.6205C2.72788 51.6548 2.81628 51.735 2.86679 51.7578C2.91731 51.775 2.94255 51.7235 2.97413 51.6834C2.99939 51.6491 3.02464 51.5575 3.03096 51.5174C3.04358 51.4316 3.04991 51.4144 3.06886 51.3629C3.08149 51.3285 3.08779 51.3285 3.11936 51.3114C3.29617 51.2084 3.20776 51.5346 3.19513 51.5918C3.15725 51.7235 3.10673 51.8494 3.03727 51.9696Z" fill="#B79A7D"/>
<path d="M3.4982 50.3383C3.50452 50.2696 3.53609 50.2067 3.54241 50.138C3.54241 50.0808 3.52346 50.0178 3.47294 49.9834C3.42243 49.9491 3.34666 49.9434 3.29614 49.9777L3.35297 49.9434C3.41611 49.9262 3.49188 49.909 3.54871 49.9434C3.5866 49.972 3.60554 50.0178 3.62448 50.0579C3.64973 50.1208 3.68132 50.1781 3.73183 50.2238C3.76972 50.2582 3.82021 50.2811 3.86442 50.3097C3.90862 50.3383 3.9465 50.3841 3.9465 50.4356C3.9465 50.4757 3.91495 50.5158 3.87707 50.5386C3.83919 50.5615 3.79498 50.573 3.74445 50.5787C3.70657 50.5844 3.66236 50.5844 3.62448 50.5673C3.58659 50.5501 3.55503 50.5215 3.53609 50.4871C3.50452 50.4471 3.49189 50.3898 3.4982 50.3383Z" fill="#534741"/>
<path d="M2.08333 50.0866C2.24119 50.5674 2.2854 50.5388 2.53166 50.7276C2.57586 50.762 2.67057 50.8192 2.72108 50.8421C2.80949 50.8879 2.91683 50.9051 3.01786 50.9223C3.0368 50.928 3.06206 50.928 3.08101 50.928C3.09995 50.9223 3.11888 50.9165 3.13151 50.9051C3.17571 50.8707 3.19467 50.8135 3.18204 50.762C3.16941 50.699 3.12521 50.699 3.06206 50.6933C2.94209 50.6819 2.86632 50.6532 2.74635 50.6189C2.6832 50.6017 2.62006 50.5617 2.56954 50.5216C2.43063 50.4243 2.40537 50.4357 2.27277 50.2469C2.24751 50.2125 2.20332 50.098 2.197 50.058C2.19069 50.0122 2.18436 49.9721 2.18436 49.9378C2.19067 49.9206 2.17806 49.8977 2.17806 49.8863C2.17175 49.8634 2.17173 49.8405 2.18436 49.8176C2.19067 49.8062 2.197 49.7947 2.19068 49.7833C2.19068 49.7775 2.18436 49.7775 2.18436 49.7718C2.18436 49.7661 2.18436 49.7604 2.18436 49.7604C2.18436 49.7489 2.18437 49.7432 2.19068 49.7317C2.19068 49.726 2.197 49.7203 2.197 49.7146C2.197 49.7031 2.17805 49.6745 2.16542 49.6688C2.15279 49.663 2.10228 49.663 2.08965 49.6745C2.08334 49.6802 2.0707 49.6859 2.06439 49.6917C2.05807 49.7031 2.04546 49.7145 2.03915 49.726C2.03283 49.7374 2.0265 49.7546 2.0265 49.7661C2.01388 49.8119 2.05177 49.8691 2.05177 49.9206L2.08333 50.0866Z" fill="#E2CBB7"/>
<path d="M3.31594 50.5273C3.23385 50.5674 3.1265 50.6017 3.09493 50.6761C3.06968 50.7334 3.09494 50.7964 3.1202 50.8479C3.33488 51.2886 3.65691 51.6663 3.90948 52.0899C3.98527 52.2215 4.05471 52.3532 4.11786 52.4906C4.1368 52.5306 4.15574 52.5764 4.15574 52.6222C4.15574 52.6508 4.14941 52.6737 4.15574 52.7023C4.16835 52.7767 4.26941 52.8168 4.35779 52.8111C4.4462 52.7996 4.52196 52.7539 4.59776 52.7138C4.83137 52.5764 5.06501 52.4333 5.29233 52.2959C5.34915 52.2616 5.4123 52.2215 5.43124 52.1586C5.45018 52.1014 5.4123 52.0384 5.37442 51.9869C5.18498 51.735 4.91345 51.5519 4.67352 51.3401C4.43359 51.1341 4.22521 50.8994 3.99156 50.6876C3.88425 50.5903 3.75795 50.4701 3.61903 50.4072C3.50538 50.3499 3.4296 50.4758 3.31594 50.5273Z" fill="#D9924E"/>
<path d="M4.32652 50.3844C4.38966 50.3901 4.47175 50.3901 4.50963 50.3443C4.5349 50.31 4.52857 50.2642 4.52228 50.2241C4.49701 50.0352 4.47175 49.8406 4.45281 49.6518C4.49701 49.6518 4.54751 49.6518 4.57278 49.6804C4.58539 49.6975 4.59172 49.7204 4.59172 49.7433C4.6296 49.9894 4.65486 50.2356 4.6738 50.4817C4.6738 50.5046 4.6738 50.5332 4.66119 50.5504C4.64857 50.5733 4.61698 50.5847 4.58543 50.5962C4.4086 50.6477 4.22549 50.6648 4.03609 50.6706C3.98556 50.6706 3.93502 50.6706 3.89082 50.6477C3.85926 50.6248 3.84032 50.5962 3.82138 50.5618C3.77718 50.4759 3.73297 50.3214 3.89082 50.3329C4.04238 50.3443 4.18761 50.3672 4.32652 50.3844Z" fill="#E2CBB7"/>
<path d="M4.42099 49.5486C4.42732 49.5372 4.43993 49.5257 4.45259 49.5143C4.47781 49.4857 4.4652 49.4399 4.48414 49.4113C4.50308 49.3827 4.54096 49.3655 4.57888 49.3769C4.61043 49.3827 4.64202 49.4113 4.66096 49.4342C4.66725 49.4456 4.6799 49.4513 4.6799 49.4628C4.68619 49.4742 4.6799 49.4857 4.6799 49.5028C4.66725 49.5601 4.64202 49.6173 4.60411 49.6688C4.59782 49.6803 4.59149 49.6917 4.57888 49.6975C4.53467 49.7261 4.48414 49.6975 4.45887 49.6688C4.44626 49.646 4.40838 49.5716 4.42099 49.5486Z" fill="#E2CBB7"/>
<path d="M3.90275 49.4798C3.94691 49.4855 3.99112 49.4741 4.02904 49.4626C4.07321 49.4512 4.11741 49.4455 4.15529 49.4569C4.18689 49.4684 4.20583 49.4855 4.23109 49.5027C4.26897 49.537 4.31318 49.5771 4.31947 49.6286C4.31947 49.6572 4.31318 49.6801 4.31947 49.7087C4.32579 49.7431 4.35738 49.766 4.38894 49.7832C4.42053 49.8003 4.45209 49.8175 4.47735 49.8404C4.49629 49.8576 4.50262 49.8805 4.52156 49.8976C4.55944 49.9262 4.60993 49.9205 4.65414 49.9034C4.69202 49.8805 4.72361 49.8461 4.74884 49.8118C4.76778 49.7889 4.78676 49.7602 4.77411 49.7316C4.76782 49.7145 4.74255 49.6973 4.72361 49.6916C4.70467 49.6858 4.6794 49.6801 4.66046 49.6687C4.64781 49.6629 4.64152 49.6572 4.64152 49.6458C4.64152 49.6343 4.65414 49.6172 4.64785 49.6057C4.64785 49.5885 4.62258 49.5828 4.60364 49.5828C4.5847 49.5828 4.56573 49.5828 4.55311 49.5714C4.52785 49.5542 4.55311 49.5141 4.54682 49.4913C4.5405 49.4626 4.50258 49.4512 4.47103 49.4397C4.43943 49.434 4.40155 49.4169 4.39526 49.3882C4.38894 49.371 4.39526 49.3481 4.38261 49.3367C4.36367 49.3195 4.33212 49.3367 4.30685 49.331C4.26265 49.3253 4.26265 49.268 4.23109 49.2451C4.1995 49.2165 4.14268 49.2222 4.11113 49.1936C4.1048 49.1879 4.09847 49.1765 4.08586 49.1707C4.07321 49.165 4.06059 49.1593 4.04165 49.1593C3.98483 49.1536 3.92801 49.1421 3.87748 49.1593C3.84593 49.1707 3.81433 49.1936 3.78907 49.2165C3.76382 49.2394 3.74488 49.2623 3.73857 49.2909C3.72594 49.3596 3.83327 49.4684 3.90275 49.4798Z" fill="#C6B697"/>
<path d="M5.43539 49.4169C5.32175 49.5371 5.19546 49.6573 5.03761 49.7203C4.85446 49.7947 4.6398 49.7832 4.4693 49.8748C4.45665 49.8806 4.45036 49.8863 4.44403 49.8977C4.43774 49.9034 4.43774 49.9149 4.43774 49.9263C4.44403 50.0122 4.48824 50.0923 4.55771 50.1495C4.59559 50.1839 4.64609 50.2068 4.69662 50.2125C4.7345 50.2182 4.77238 50.2182 4.81026 50.2182C4.94288 50.2068 5.06284 50.1553 5.16387 50.0809C5.2649 50.0122 5.35331 49.9206 5.42907 49.8233C5.48593 49.7489 5.54275 49.6745 5.58063 49.5886C5.62483 49.4971 5.6501 49.3997 5.66904 49.3025C5.66904 49.2967 5.66904 49.291 5.66904 49.2853C5.6501 49.2509 5.55536 49.2624 5.53013 49.2853C5.49222 49.3253 5.47328 49.3826 5.43539 49.4169Z" fill="#D5AFCB"/>
<path d="M4.08698 50.0465C4.06171 50.0522 4.03012 50.0637 4.00489 50.0809C3.9733 50.1037 3.9733 50.1381 3.9733 50.1667C3.96701 50.3613 4.03644 50.5388 4.10592 50.7105C4.20694 50.9566 4.27642 51.197 4.42794 51.4145C4.46582 51.466 4.51002 51.5232 4.59211 51.5232C4.63632 51.5232 4.68052 51.5061 4.7184 51.4946C4.89519 51.4259 5.09095 51.3286 5.2488 51.2199C5.31827 51.1741 5.38771 51.1283 5.45085 51.0768C5.52033 51.0138 5.58347 50.9394 5.58347 50.865C5.58347 50.802 5.54559 50.7505 5.50139 50.7047C5.33721 50.5273 5.16671 50.3613 4.97727 50.2011C4.85102 50.0923 4.72473 49.9893 4.59211 49.8863C4.53529 49.8405 4.45953 49.7947 4.37112 49.8634C4.2827 49.9378 4.21327 50.0065 4.08698 50.0465Z" fill="#D5AFCB"/>
<path d="M4.17309 49.9607C4.21101 49.9435 4.25518 49.9263 4.28044 49.9034C4.36253 49.8347 4.3562 49.7202 4.3562 49.623C4.34992 49.5314 4.25518 49.4112 4.18574 49.3425C4.16048 49.3196 4.14154 49.2967 4.10994 49.2795C4.04684 49.2566 3.97736 49.2795 3.9205 49.3082C3.81948 49.3597 3.72479 49.4226 3.67427 49.5142C3.54798 49.7317 3.92683 50.0694 4.17309 49.9607Z" fill="#F9E9DE"/>
<path d="M3.88107 50.3613C3.81159 50.7619 3.95054 51.1626 4.08312 51.5461C4.08312 51.5518 4.08945 51.5632 4.09573 51.569C4.11467 51.5804 4.17786 51.5575 4.20941 51.5518C4.22206 51.5461 4.23468 51.5346 4.22835 51.5232C4.1968 51.3343 4.16521 51.1225 4.18415 50.905C4.1968 50.7333 4.18415 50.5845 4.2915 50.43C4.33571 50.367 4.32938 50.327 4.27885 50.264C4.22835 50.201 4.13994 50.161 4.05785 50.1667C3.93789 50.1724 3.90001 50.2754 3.88107 50.3613Z" fill="#D5AFCB"/>
<path d="M5.53141 49.1994C5.5188 49.1651 5.50615 49.1364 5.49353 49.1021C5.49353 49.0906 5.48721 49.0849 5.49353 49.0735C5.49353 49.0677 5.49982 49.062 5.50615 49.0563C5.52509 49.0277 5.49982 48.9819 5.51876 48.9533C5.53141 48.9361 5.55664 48.9304 5.57558 48.9361C5.60717 48.9418 5.64506 48.959 5.65767 48.9819C5.68294 49.0162 5.68294 49.0563 5.67665 49.0906C5.67032 49.1307 5.66403 49.1651 5.67032 49.2051C5.67032 49.2223 5.67665 49.2337 5.67665 49.2509C5.67665 49.2681 5.67032 49.2852 5.65767 49.291C5.63873 49.3024 5.61979 49.3024 5.60085 49.2967C5.57562 49.291 5.54403 49.2967 5.54403 49.2681C5.54403 49.2509 5.54403 49.228 5.53141 49.1994Z" fill="#F9E9DE"/>
<path d="M4.25575 51.6378C4.26207 51.6435 4.26207 51.6549 4.26207 51.6606C4.26207 51.6721 4.26207 51.6778 4.24946 51.6835C4.24313 51.6835 4.24313 51.6893 4.23681 51.6893C4.23052 51.695 4.23052 51.7007 4.23052 51.7064C4.23684 51.7293 4.25578 51.7522 4.24946 51.7751C4.24313 51.7923 4.22419 51.8037 4.20525 51.8094C4.18631 51.8152 4.16737 51.8094 4.15472 51.798C4.14211 51.7865 4.13582 51.7694 4.12949 51.7522C4.11688 51.7007 4.12949 51.6377 4.10423 51.592C4.0979 51.5862 4.0979 51.5748 4.0979 51.5691C4.0979 51.5576 4.11688 51.5462 4.12949 51.5462C4.14843 51.5405 4.19264 51.5233 4.21158 51.5405C4.22419 51.5519 4.22419 51.5691 4.23052 51.5805C4.24313 51.6034 4.24946 51.6206 4.25575 51.6378Z" fill="#F9E9DE"/>
<path d="M4.48127 50.0521C4.51915 50.138 4.55703 50.2238 4.60123 50.3154C4.60756 50.3268 4.61385 50.344 4.60752 50.3555C4.59491 50.3727 4.56968 50.3669 4.54441 50.3612C4.43073 50.3154 4.35497 50.2238 4.25395 50.1552C4.20974 50.1265 4.16553 50.1094 4.12765 50.075C4.12133 50.0693 4.115 50.0636 4.115 50.0521C4.10871 50.035 4.13398 50.0178 4.14659 50.0121C4.17186 49.9949 4.20341 49.9835 4.22868 49.9663C4.24762 49.9548 4.27289 49.9376 4.2855 49.9262C4.30444 49.9033 4.32342 49.869 4.34865 49.8575C4.37391 49.8461 4.38024 49.8632 4.39918 49.8804C4.43706 49.9319 4.46233 49.9949 4.48127 50.0521Z" fill="#F7F7F7"/>
<path d="M4.4583 49.8747C4.46463 49.8861 4.4583 49.8976 4.4583 49.9033C4.46463 49.9148 4.47724 49.9148 4.48989 49.9148C4.50251 49.909 4.51516 49.9033 4.52777 49.9033C4.54039 49.9033 4.553 49.9148 4.553 49.9262C4.553 49.9319 4.54671 49.9319 4.54039 49.9377C4.52777 49.9491 4.52145 49.9777 4.54039 49.9892C4.55304 49.9949 4.56565 49.9949 4.57827 50.0006C4.59092 50.0063 4.60353 50.0178 4.59721 50.0292C4.59721 50.0349 4.59092 50.0349 4.58459 50.0349C4.57198 50.0407 4.56565 50.0636 4.57827 50.075C4.58459 50.0865 4.60353 50.0864 4.61615 50.0922C4.6288 50.0979 4.64141 50.1037 4.64141 50.1151C4.64141 50.1265 4.6288 50.138 4.6288 50.1494C4.6288 50.1781 4.68562 50.1781 4.68562 50.2009C4.68562 50.2124 4.66668 50.2238 4.66668 50.2353C4.66668 50.2525 4.68562 50.2582 4.70456 50.2582C4.7235 50.2582 4.74244 50.2696 4.74244 50.2811C4.74244 50.2925 4.72983 50.2982 4.71721 50.304C4.70456 50.3097 4.69195 50.3211 4.69824 50.3326C4.70456 50.344 4.71721 50.344 4.7235 50.3497C4.73615 50.3669 4.71089 50.3898 4.71089 50.4127C4.71089 50.4413 4.76138 50.4413 4.77403 50.4642C4.78665 50.4814 4.774 50.51 4.78665 50.5272C4.79297 50.5444 4.81824 50.5501 4.82457 50.5673C4.82457 50.573 4.82453 50.5787 4.83085 50.5787C4.83718 50.5901 4.84347 50.5959 4.85612 50.6016C4.86873 50.6073 4.88135 50.6245 4.88767 50.6359C4.88767 50.6531 4.87506 50.6703 4.86245 50.6703C4.84979 50.6703 4.83718 50.6588 4.83085 50.6474C4.82453 50.6359 4.82453 50.6245 4.81191 50.613C4.79297 50.5901 4.75509 50.5844 4.73615 50.5615C4.72983 50.5501 4.72983 50.5329 4.71721 50.5158C4.70456 50.4929 4.66668 50.4871 4.66035 50.4642C4.65407 50.4528 4.66035 50.4356 4.65403 50.4184C4.64774 50.3955 4.61619 50.3784 4.60353 50.3612C4.59721 50.3497 4.59092 50.3383 4.58459 50.3269C4.57198 50.2868 4.55304 50.2467 4.54039 50.2067C4.53406 50.1952 4.5341 50.1895 4.52777 50.1781C4.52145 50.1723 4.51516 50.1609 4.50883 50.1552C4.48357 50.1265 4.47724 50.0922 4.46463 50.0578C4.45201 50.0121 4.42675 49.972 4.40148 49.9319C4.38887 49.9148 4.3636 49.8804 4.38254 49.8575C4.39516 49.8518 4.45198 49.8518 4.4583 49.8747Z" fill="white"/>
<path d="M4.07199 50.098C4.07199 50.1266 4.10355 50.1438 4.12881 50.1552C4.1351 50.1552 4.14143 50.1609 4.14775 50.1609C4.16669 50.1781 4.14775 50.2125 4.16037 50.2296C4.17931 50.2468 4.22351 50.2239 4.24245 50.2353C4.25511 50.2468 4.25507 50.264 4.25507 50.2754C4.25507 50.2926 4.26139 50.3097 4.27401 50.3155C4.29927 50.3212 4.32454 50.2811 4.34981 50.2983C4.36246 50.304 4.36246 50.3212 4.36875 50.3384C4.37507 50.3555 4.38769 50.3727 4.4003 50.3727C4.41928 50.3727 4.43822 50.3555 4.45716 50.3555C4.46977 50.3555 4.48242 50.3727 4.48871 50.3785C4.49504 50.3899 4.50765 50.4013 4.52031 50.3956C4.52659 50.3956 4.52659 50.3956 4.53292 50.3956C4.53925 50.3956 4.53925 50.4013 4.54557 50.4013C4.55819 50.4128 4.56447 50.43 4.57713 50.4414C4.58974 50.43 4.60868 50.43 4.61501 50.4414C4.62133 50.4471 4.62129 50.4528 4.62762 50.4586C4.63395 50.4643 4.64656 50.4586 4.65289 50.4529C4.65921 50.4471 4.65921 50.4357 4.65921 50.43C4.65921 50.4071 4.65289 50.3785 4.62762 50.3612C4.60868 50.3498 4.58974 50.3441 4.5708 50.3384C4.53292 50.3269 4.50133 50.304 4.4761 50.2811C4.4003 50.2239 4.31821 50.1724 4.23613 50.1209C4.19825 50.098 4.16037 50.0694 4.12249 50.0522C4.10355 50.0465 4.06567 50.0694 4.07199 50.098Z" fill="white"/>
<path d="M3.77428 49.6344C3.75533 49.6745 3.749 49.7203 3.76163 49.7604C3.78057 49.8119 3.83742 49.8519 3.89424 49.8748C3.95106 49.8977 4.01421 49.9149 4.06474 49.9492C4.08997 49.9664 4.10891 49.9836 4.12789 50.0007C4.15944 50.0351 4.191 50.0694 4.19732 50.1095C4.20994 50.1496 4.19732 50.2011 4.16577 50.2297C4.12789 50.2583 4.07103 50.2583 4.03948 50.224C4.02054 50.2068 4.01421 50.1782 3.98894 50.1725C3.95739 50.161 3.91951 50.1953 3.89424 50.1782C3.86898 50.161 3.89424 50.1209 3.88159 50.0923C3.86265 50.0523 3.79322 50.0752 3.76163 50.0465C3.73637 50.0179 3.74901 49.9721 3.71745 49.9492C3.70482 49.9378 3.67954 49.9378 3.6606 49.9378C3.64165 49.9321 3.62271 49.9263 3.62271 49.9092C3.62271 49.9034 3.62271 49.8977 3.62271 49.892C3.62271 49.8748 3.6101 49.8634 3.59747 49.8462C3.54064 49.7833 3.51538 49.7031 3.51538 49.623C3.51538 49.5944 3.52169 49.56 3.528 49.5314C3.53432 49.4971 3.54696 49.4627 3.55958 49.4341C3.59116 49.3769 3.63536 49.3311 3.6985 49.3024C3.72376 49.291 3.74901 49.2796 3.77428 49.2796C3.85004 49.2738 3.93212 49.3483 3.93212 49.4169C3.9258 49.5028 3.81848 49.5429 3.77428 49.6344Z" fill="#C6B697"/>
<path d="M2.77044 50.1609C2.75781 50.1266 2.74517 50.0865 2.73885 50.0464C2.71991 49.9148 2.78937 49.6858 2.97248 49.6858C3.01668 49.6858 3.05457 49.6973 3.09878 49.7087C3.14298 49.7202 3.18086 49.7373 3.21875 49.7602C3.28821 49.8003 3.35134 49.8575 3.38923 49.9262C3.4208 49.9892 3.42712 50.0693 3.43344 50.138C3.43975 50.2296 3.43975 50.3326 3.37661 50.4013C3.29452 50.4986 3.12404 50.51 3.00406 50.4471C2.88409 50.3956 2.80832 50.2811 2.77044 50.1609Z" fill="#E2CBB7"/>
<path d="M3.0115 49.8174C3.06834 49.846 3.13148 49.8575 3.19463 49.8689C3.24514 49.8746 3.29566 49.8861 3.33354 49.9147C3.36512 49.9376 3.37774 49.9777 3.40931 50.0006C3.43457 49.9891 3.44089 49.9605 3.44089 49.9319C3.44089 49.8918 3.44089 49.8518 3.42195 49.8117C3.40933 49.7831 3.39037 49.7602 3.37143 49.7373C3.33354 49.6915 3.29566 49.6457 3.23883 49.6171C3.182 49.5885 3.11253 49.577 3.04939 49.5885C2.99887 49.5999 2.91047 49.64 2.89153 49.6915C2.87259 49.743 2.96099 49.7945 3.0115 49.8174Z" fill="#534741"/>
<path d="M2.60906 50.905C2.60906 50.8592 2.62168 50.8134 2.62168 50.7733C2.63431 50.6474 2.59642 50.5272 2.57748 50.407C2.57116 50.3555 2.57118 50.2983 2.59644 50.2525C2.61538 50.2238 2.65957 50.1952 2.69745 50.1952C2.69114 50.1838 2.68482 50.1781 2.67851 50.1666C2.61537 50.0751 2.57117 49.9606 2.60274 49.8518C2.628 49.7431 2.73534 49.6515 2.85531 49.6515C2.9374 49.6515 3.03213 49.7259 2.96898 49.8003C2.95004 49.8232 2.91215 49.8404 2.88689 49.8633C2.84901 49.8976 2.82375 49.9434 2.8048 49.9835C2.77323 50.0579 2.78585 50.1437 2.83637 50.2067C2.82374 50.201 2.81111 50.1952 2.79848 50.1838C2.78586 50.2067 2.81743 50.2353 2.84269 50.2525C2.88689 50.2926 2.91216 50.3441 2.9311 50.4013C2.87427 50.3555 2.81743 50.3097 2.76692 50.2639C2.76692 50.304 2.75429 50.3555 2.74798 50.3841C2.73535 50.5444 2.81113 50.6932 2.91216 50.8248C2.94373 50.8649 2.97529 50.8992 2.98161 50.9507C2.99423 51.0137 2.95004 51.0767 2.88689 51.0996C2.82375 51.1225 2.74798 51.111 2.69115 51.071C2.64064 51.0309 2.61538 50.9679 2.60906 50.905Z" fill="#534741"/>
<path d="M1.93828 51.34C1.88145 51.3343 1.81831 51.3114 1.76148 51.2714C1.65413 51.1912 1.5531 51.0996 1.49627 50.9852C1.43312 50.8535 1.43312 50.6532 1.57835 50.5616C1.74253 50.4529 1.93196 50.6189 2.05193 50.7333C2.14665 50.8249 2.2161 50.9394 2.22241 51.0653C2.2161 51.2485 2.08982 51.3515 1.93828 51.34Z" fill="#B79A7D"/>
<path d="M1.76238 50.6247C1.76238 50.6418 1.74974 50.6647 1.73079 50.6704C1.71185 50.6762 1.6866 50.6647 1.67397 50.6475C1.68028 50.6991 1.61715 50.7448 1.56664 50.7277C1.57927 50.7162 1.58557 50.7448 1.57926 50.7563C1.56031 50.7792 1.52874 50.8021 1.49717 50.8021C1.52243 50.8021 1.52875 50.8364 1.52875 50.8593C1.52875 50.8765 1.52243 50.8937 1.52243 50.9108C1.56032 50.928 1.554 50.991 1.51611 50.9967C1.54768 50.991 1.57925 51.0196 1.57294 51.0482C1.59819 51.0539 1.62347 51.0711 1.64872 51.0883C1.6361 51.0997 1.6424 51.1226 1.66134 51.1226C1.65503 51.134 1.6424 51.1455 1.62346 51.1512C1.62978 51.1455 1.63608 51.1627 1.62976 51.1684C1.62345 51.1741 1.61084 51.1684 1.60452 51.1684C1.57926 51.157 1.56031 51.134 1.554 51.1112C1.52242 51.1169 1.49717 51.0883 1.47822 51.0654C1.46559 51.0539 1.45929 51.0425 1.44666 51.031C1.43403 51.0196 1.42771 51.0081 1.4214 50.9967C1.4214 50.9852 1.42771 50.9681 1.44034 50.9624C1.40877 50.9738 1.36458 50.9452 1.37089 50.9166C1.32038 50.928 1.26985 50.8651 1.30143 50.825C1.26985 50.8078 1.25723 50.7735 1.26354 50.7448C1.26985 50.7162 1.30142 50.6876 1.33931 50.6876C1.33931 50.6933 1.32668 50.6991 1.32037 50.6933C1.31405 50.6876 1.31405 50.6819 1.31405 50.6704C1.32036 50.6189 1.36457 50.5731 1.4214 50.5674C1.4214 50.5216 1.47191 50.4816 1.51611 50.4816C1.50979 50.4873 1.49718 50.493 1.49086 50.4873C1.49718 50.4587 1.51612 50.4243 1.54137 50.4129C1.57294 50.3957 1.61715 50.4071 1.62346 50.4358C1.65503 50.39 1.74342 50.3957 1.76868 50.4472C1.79394 50.43 1.83182 50.4186 1.86971 50.4243C1.90128 50.43 1.93287 50.4644 1.92024 50.4987C1.95181 50.4816 2.00231 50.4816 2.02757 50.5102C2.05283 50.5388 2.05915 50.5789 2.03389 50.6075C2.07178 50.6075 2.11599 50.6247 2.14124 50.6533C2.14124 50.6704 2.13493 50.6876 2.1223 50.6991C2.13493 50.6991 2.14123 50.7048 2.14755 50.7162C2.13492 50.7391 2.1286 50.762 2.10334 50.7735C2.07808 50.7849 2.0402 50.7677 2.04651 50.7448C2.00231 50.7506 1.95811 50.7219 1.94548 50.6819C1.93285 50.6876 1.92654 50.6876 1.91392 50.6876C1.89497 50.6762 1.86972 50.6533 1.88235 50.6361C1.87604 50.659 1.84446 50.6762 1.81921 50.6704C1.78132 50.6762 1.76238 50.6533 1.76238 50.6247Z" fill="#333333"/>
<path d="M1.067 50.6303C1.04806 50.6532 1.07962 50.6819 1.10488 50.6819C1.13014 50.6819 1.1554 50.659 1.16803 50.6361C1.1554 50.6475 1.16172 50.6647 1.17435 50.6704C1.21224 50.659 1.2438 50.6303 1.26274 50.596C1.25011 50.596 1.25011 50.6132 1.26274 50.6189C1.26906 50.6246 1.28168 50.6246 1.29431 50.6189C1.32588 50.6075 1.34483 50.5788 1.34483 50.5502C1.31957 50.5559 1.3259 50.596 1.35115 50.6017C1.37641 50.6075 1.40165 50.5903 1.41428 50.5731C1.42059 50.5674 1.4206 50.5616 1.4206 50.5559C1.40797 50.5616 1.41429 50.5846 1.42692 50.5903C1.43955 50.596 1.45849 50.5903 1.46481 50.5788C1.47112 50.5674 1.47743 50.5559 1.47743 50.5387C1.47743 50.5445 1.48375 50.5559 1.49007 50.5559C1.51533 50.5445 1.52164 50.5159 1.50901 50.493C1.50901 50.4872 1.50268 50.4872 1.49637 50.4872C1.51531 50.4643 1.52163 50.43 1.51531 50.4014C1.54057 50.4014 1.56584 50.3785 1.56584 50.3556C1.58478 50.3499 1.59741 50.3384 1.60372 50.3213C1.61635 50.327 1.62898 50.3213 1.6416 50.3155C1.64792 50.3041 1.65423 50.2927 1.65423 50.2812C1.65423 50.2755 1.65424 50.2698 1.64793 50.264C1.64161 50.264 1.63529 50.2698 1.63529 50.2698C1.66054 50.2526 1.67317 50.2182 1.65423 50.1896C1.64791 50.1953 1.6416 50.201 1.6416 50.2125C1.66055 50.201 1.66055 50.1724 1.6416 50.161C1.62266 50.1495 1.59109 50.1553 1.58478 50.1724C1.59109 50.1553 1.58478 50.1381 1.56584 50.1209C1.55952 50.1209 1.54689 50.1267 1.54057 50.1267C1.5532 50.1095 1.53427 50.0751 1.50901 50.0809C1.48375 50.0809 1.4648 50.1095 1.47743 50.1324C1.49006 50.1152 1.47112 50.0866 1.44586 50.0866C1.42061 50.0866 1.40797 50.1152 1.4206 50.1324C1.40797 50.1209 1.38902 50.1152 1.37639 50.1267C1.36377 50.1324 1.35746 50.1553 1.37009 50.1667C1.35746 50.1553 1.33851 50.1438 1.31957 50.1495C1.30063 50.1553 1.30063 50.1839 1.31957 50.1896C1.31325 50.1667 1.27538 50.161 1.25012 50.1782C1.23118 50.1953 1.22485 50.2182 1.21854 50.2411C1.20591 50.2297 1.18698 50.2297 1.17435 50.2354C1.16172 50.2411 1.1554 50.264 1.16803 50.2755C1.17434 50.2583 1.15539 50.2469 1.13645 50.2469C1.1175 50.2469 1.11119 50.2698 1.1175 50.2812C1.09856 50.2698 1.07331 50.2755 1.06068 50.2869C1.04805 50.2984 1.04175 50.3213 1.05438 50.3384C1.04806 50.327 1.02912 50.327 1.01649 50.3327C1.00386 50.3384 0.991223 50.3499 0.984909 50.3556C0.97228 50.3671 0.959647 50.3785 0.959647 50.3957C0.959647 50.4128 0.978602 50.4243 0.991231 50.4186C0.972287 50.43 0.953339 50.4415 0.947025 50.4586C0.947025 50.4758 0.978594 50.4987 0.984909 50.4815C0.95965 50.493 0.94071 50.5159 0.947025 50.5387C0.953339 50.5616 0.984909 50.5788 1.00385 50.5616C0.984909 50.5731 0.984901 50.6017 0.997531 50.6132C1.02279 50.6418 1.04806 50.6475 1.067 50.6303Z" fill="#333333"/>
<path d="M1.89388 51.5231C1.88125 51.5288 1.86231 51.5346 1.85599 51.546C1.83073 51.5689 1.83704 51.6033 1.84967 51.6262C1.88124 51.7235 1.90651 51.815 1.93808 51.9124C1.96334 51.9868 1.98858 52.0612 2.00753 52.1356C2.07699 52.3645 2.15277 52.5935 2.2538 52.8167C2.28537 52.8911 2.32324 52.9598 2.36113 53.0285C2.36744 53.0342 2.36744 53.0456 2.38007 53.0456C2.3927 53.0514 2.40533 53.0456 2.41796 53.0456C2.78419 52.9598 3.15675 52.8052 3.39669 52.5419C3.29566 52.4046 3.18832 52.2672 3.0873 52.1298C2.9989 52.0097 2.91049 51.8894 2.80946 51.775C2.68317 51.6319 2.54426 51.5002 2.39271 51.3743C2.36745 51.3572 2.31694 51.2885 2.27906 51.2942C2.24117 51.2942 2.20959 51.3457 2.18433 51.3686C2.09593 51.443 1.98859 51.4831 1.89388 51.5231Z" fill="#AA4A4D"/>
<path d="M1.81578 51.6548C1.85367 51.9353 1.89787 52.2157 1.93576 52.4962C1.94207 52.5248 1.94208 52.5534 1.96102 52.5763C1.98628 52.5992 2.01784 52.6107 2.05573 52.6221C2.25779 52.6793 2.46616 52.7308 2.68085 52.7079C2.71242 52.7022 2.7503 52.6965 2.77556 52.6793C2.80081 52.6622 2.81976 52.6221 2.80082 52.5935C2.78188 52.5534 2.72504 52.5534 2.67452 52.5534C2.54193 52.5534 2.40933 52.5305 2.28936 52.4904C2.23885 52.4733 2.19464 52.4561 2.16307 52.416C2.13149 52.376 2.11888 52.3245 2.11256 52.273C2.09362 52.1012 2.0873 51.9295 2.07468 51.7635C2.06836 51.7006 2.05573 51.6548 1.99259 51.6262C1.93575 51.5918 1.80315 51.569 1.81578 51.6548Z" fill="#B79A7D"/>
<path d="M1.57748 50.8306C1.59642 50.8364 1.60905 50.8478 1.62168 50.865C1.628 50.8764 1.62799 50.8993 1.61536 50.9108C1.65325 50.9108 1.68483 50.9508 1.66589 50.9794C1.69746 50.9852 1.71008 51.0195 1.69745 51.0424C1.72271 51.0482 1.73534 51.0825 1.7164 51.0997C1.73534 51.0997 1.75429 51.1168 1.7606 51.134C1.7606 51.1512 1.74797 51.1741 1.72271 51.1741C1.73534 51.1798 1.75429 51.1798 1.7606 51.197C1.76691 51.2084 1.7669 51.2313 1.74796 51.2313C1.77953 51.237 1.79847 51.2656 1.78584 51.2885C1.77322 51.3114 1.73533 51.3171 1.71007 51.3C1.71007 51.3171 1.69113 51.3286 1.67219 51.3286C1.65325 51.3286 1.63431 51.3171 1.62168 51.3057C1.60274 51.3171 1.5838 51.3229 1.56486 51.3229C1.54592 51.3229 1.52066 51.3057 1.52697 51.2885C1.51434 51.3 1.48908 51.3 1.47645 51.2885C1.4575 51.2828 1.45118 51.2599 1.45118 51.2485C1.42593 51.2542 1.40068 51.2485 1.38174 51.2313C1.36279 51.2141 1.3691 51.1855 1.39436 51.1741C1.35647 51.1798 1.3186 51.1569 1.30597 51.1226C1.30597 51.1111 1.30596 51.0997 1.31859 51.1054C1.29333 51.1054 1.26807 51.0939 1.25544 51.071C1.24281 51.0539 1.24914 51.0253 1.26808 51.0081C1.24282 51.0081 1.22388 50.9909 1.22388 50.9737C1.22388 50.9508 1.2365 50.9337 1.26176 50.9279C1.24913 50.9165 1.24282 50.905 1.2302 50.8936C1.22388 50.8879 1.22388 50.8822 1.22388 50.8822C1.22388 50.8764 1.2302 50.8764 1.2302 50.8707C1.24282 50.865 1.26175 50.8535 1.27438 50.8535C1.26175 50.8421 1.26177 50.8249 1.26808 50.8135C1.2744 50.802 1.29964 50.7963 1.31227 50.802C1.33121 50.7448 1.41961 50.7219 1.47012 50.7505C1.48907 50.7105 1.53328 50.7391 1.55854 50.7562C1.57117 50.7677 1.5838 50.7849 1.5838 50.7963C1.59643 50.7963 1.59011 50.8364 1.57748 50.8306Z" fill="#333333"/>
<path d="M79.7699 95.788C81.3106 95.8311 82.8512 95.788 84.3919 95.7448C88.6871 95.6242 92.9917 95.5036 97.2869 95.3834C97.9592 95.366 98.8182 95.2022 98.8743 94.6426C98.9209 94.1436 98.2486 93.8336 97.6697 93.6873C95.6155 93.1708 93.4586 93.0846 91.3203 93.0158C88.1736 92.9126 85.0362 92.8263 81.8895 92.7663C79.9287 92.7319 77.9118 92.7057 76.0722 93.274C75.0731 93.5841 73.5885 94.8752 75.1665 95.4866C75.6054 95.6586 76.4925 95.5723 76.9687 95.6155C77.8931 95.693 78.8268 95.7618 79.7699 95.788Z" fill="url(#paint2_linear_549_462)"/>
<path opacity="0.22" d="M79.7699 95.788C81.3106 95.8311 82.8512 95.788 84.3919 95.7448C88.6871 95.6242 92.9917 95.5036 97.2869 95.3834C97.9592 95.366 98.8182 95.2022 98.8743 94.6426C98.9209 94.1436 98.2486 93.8336 97.6697 93.6873C95.6155 93.1708 93.4586 93.0846 91.3203 93.0158C88.1736 92.9126 85.0362 92.8263 81.8895 92.7663C79.9287 92.7319 77.9118 92.7057 76.0722 93.274C75.0731 93.5841 73.5885 94.8752 75.1665 95.4866C75.6054 95.6586 76.4925 95.5723 76.9687 95.6155C77.8931 95.693 78.8268 95.7618 79.7699 95.788Z" fill="url(#paint3_linear_549_462)"/>
<path d="M54.9433 19.1522C54.3083 19.4965 54.327 20.2283 54.9807 20.564C59.612 22.9228 64.0006 25.3161 68.1838 27.7352C68.7253 28.0451 69.3603 28.3722 69.9859 28.2172C70.3967 28.1139 70.6955 27.8212 70.9663 27.5458L74.5892 23.9215C74.944 23.5685 74.86 23.0262 74.4118 22.7507C70.3407 20.2627 65.9054 17.9642 61.1247 15.8981C60.7325 15.7259 60.2469 15.7775 59.9294 16.01C58.3981 17.1378 56.736 18.188 54.9433 19.1522Z" fill="#666666"/>
<path d="M57.5293 19.5223C57.0904 19.7634 57.1092 20.2799 57.5573 20.5123C60.7787 22.1738 63.8694 23.8697 66.8294 25.6087C67.2122 25.8325 67.6698 26.0736 68.1179 25.9617C68.4074 25.8928 68.6222 25.6862 68.8276 25.4968L71.4607 22.9314C71.7222 22.6817 71.6661 22.2858 71.3393 22.0877C68.3887 20.2971 65.214 18.6614 61.8246 17.2065C61.5444 17.086 61.2083 17.1204 60.9842 17.2926C59.929 18.0932 58.7712 18.8422 57.5293 19.5223Z" fill="white"/>
<path d="M61.4154 17.9815C61.322 17.947 61.2193 17.904 61.1166 17.9212C61.0232 17.9384 60.9391 17.9901 60.8645 18.0417C60.7057 18.1537 60.5563 18.2656 60.4069 18.3947C60.2575 18.5239 60.1268 18.6702 59.9868 18.7993C59.8747 18.9026 59.7439 18.9887 59.6226 19.0834C59.3424 19.2814 59.0624 19.4881 58.7729 19.6861C58.6048 19.8066 58.4554 19.8754 58.3527 20.0131C58.3153 20.0648 58.278 20.1165 58.25 20.1939C58.4834 20.3661 58.7355 20.5039 58.997 20.6416C59.1464 20.7191 59.3518 20.9171 59.5386 20.8655C59.6506 20.831 59.7533 20.6932 59.828 20.6158C59.8467 20.5985 59.8654 20.5813 59.884 20.5641C59.9494 20.7104 60.0147 20.8654 60.0894 21.0118C60.1268 20.8138 60.1268 20.6072 60.1268 20.4092C60.1268 20.392 60.1268 20.3661 60.1268 20.3489C60.1549 20.3231 60.1922 20.2887 60.2202 20.2628C60.5843 19.9185 60.9485 19.5741 61.3033 19.2212C61.4433 19.0834 61.5834 18.9715 61.7422 18.8596C61.7982 18.8252 62.2091 18.3775 62.2277 18.3861C61.9663 18.2484 61.7049 18.0934 61.4154 17.9815Z" fill="#CCCCCC"/>
<path d="M66.4129 20.1508C66.2822 20.1508 66.1422 20.1335 66.0114 20.1249C66.1328 19.9786 66.2635 19.8323 66.3849 19.6773C66.1608 19.5912 65.9274 19.5051 65.7033 19.419C65.6753 19.4105 65.638 19.3932 65.6006 19.3932C65.5259 19.3932 65.4792 19.4535 65.4326 19.5051C65.1337 19.8667 64.6575 20.1938 64.3587 20.564C64.116 20.8653 64.0505 20.9514 63.7051 21.3904C63.8825 21.4679 64.3307 21.7434 64.5081 21.8209C64.5361 21.6918 64.6482 21.5884 64.7415 21.4938C65.1057 21.1494 65.4512 20.7792 65.778 20.4004C65.8714 20.3918 65.9741 20.3746 66.0675 20.3488C66.1982 20.3057 66.3102 20.2369 66.4129 20.1508Z" fill="#B8CDD8"/>
<path d="M62.6475 19.9012C62.5168 19.8324 62.3767 19.772 62.246 19.7032C62.2273 19.6946 62.2087 19.686 62.1807 19.686C62.1433 19.686 62.1153 19.7032 62.0966 19.729C61.5271 20.2025 60.9669 20.7621 60.4253 21.2614C60.5373 21.3217 60.9108 21.5196 61.0228 21.5799C61.0508 21.5971 61.0789 21.6144 61.1162 21.6144C61.1723 21.6144 61.2096 21.5713 61.2376 21.5282C61.2563 21.5024 61.2749 21.4766 61.303 21.4508C61.3683 21.5886 61.4243 21.7176 61.4897 21.8554C61.5271 21.6574 61.5271 21.4508 61.5271 21.2528C61.5271 21.2356 61.5271 21.2097 61.5271 21.1925C61.8726 20.7449 62.246 20.3144 62.6475 19.9012Z" fill="#CCCCCC"/>
<path d="M66.1663 22.4493C65.9889 22.3546 65.8115 22.2513 65.6341 22.1566C65.6154 22.148 65.5875 22.1308 65.5595 22.1308C65.5408 22.1308 65.522 22.148 65.5034 22.1652C65.2233 22.4148 64.9432 22.6645 64.663 22.9142C64.4576 23.095 64.2522 23.2844 64.1401 23.5254C64.3176 23.6459 64.5137 23.7578 64.7097 23.8525C64.7377 23.8698 64.7658 23.8784 64.7938 23.8784C64.8311 23.8784 64.8591 23.8611 64.8872 23.8439C64.9618 23.7922 65.0272 23.7406 65.0832 23.6803C65.1486 23.7406 65.214 23.8009 65.2793 23.8611C65.298 23.8784 65.326 23.8955 65.354 23.887C65.3446 23.7406 65.326 23.5857 65.3073 23.4393C65.6155 23.138 65.9049 22.8023 66.1663 22.4493Z" fill="#CCCCCC"/>
<path d="M69.5473 21.9501C69.6687 21.7779 69.7808 21.5972 69.9022 21.425C69.6127 21.3217 69.3326 21.2183 69.0431 21.1064C69.0151 21.0979 68.9964 21.0892 68.9684 21.0892C68.9404 21.0892 68.9125 21.1151 68.8845 21.1323C68.1374 21.7866 67.7172 22.7077 67.0356 23.4222C67.0169 23.4394 66.9983 23.4653 66.9983 23.4911C66.9983 23.5083 67.0169 23.5255 67.0356 23.5428C67.2784 23.7752 67.5492 23.9991 67.8293 24.197C68.2215 23.7752 68.5949 23.3361 68.9591 22.8885C69.0992 22.7163 69.2393 22.5441 69.2673 22.3375C69.454 22.3461 69.6501 22.3289 69.8275 22.2858C69.8461 22.217 69.7528 22.1654 69.6687 22.1482C69.5941 22.1309 69.5007 22.0878 69.51 22.0104C69.5193 21.9932 69.538 21.9759 69.5473 21.9501Z" fill="#B8CDD8"/>
<path d="M85.0588 90.9069C86.0111 90.8981 86.9636 90.8899 87.9067 90.8812C88.663 76.9864 89.2513 60.9739 90.0076 47.0795C87.1223 46.5802 84.2277 46.6404 81.3238 46.8471C80.362 57.3238 83.0512 69.6344 83.9103 80.1374C84.2091 83.7618 84.3117 87.4632 85.0588 90.9069Z" fill="#97A8B2"/>
<path d="M88.3632 90.6831C86.7852 90.5624 85.1978 90.6312 83.6292 90.8638C82.4246 91.6903 81.1081 92.3705 79.7168 92.8957C79.3153 93.042 78.8858 93.1883 78.5869 93.4809C78.2881 93.7735 78.1668 94.2643 78.4469 94.5744C78.6897 94.8413 79.1192 94.8757 79.502 94.8757C82.4153 94.9014 85.3379 94.6776 88.2045 94.1955C88.3726 94.1699 88.5593 94.1349 88.6807 94.0148C88.7834 93.9198 88.8301 93.7997 88.8674 93.6703C89.1569 92.6718 88.9702 91.5609 88.3632 90.6831Z" fill="#AA6A64"/>
<path d="M85.8873 16.0186C86.4289 15.3213 86.7837 14.3916 86.8677 13.2811C87.0077 11.2321 86.8958 9.10578 85.9807 7.22905C84.9256 5.06824 82.255 2.92467 79.4818 3.47563C76.2324 4.12129 76.4378 7.98663 76.6619 10.552C76.8393 12.5923 77.633 14.667 79.2671 16.0445C81.7135 18.1192 84.4493 17.8523 85.8873 16.0186Z" fill="#A88B71"/>
<path d="M86.0473 12.5924C86.5422 12.9969 87.3172 13.0056 87.8121 12.6096C88.307 12.2222 88.4844 11.4646 88.2043 10.9051C89.0353 10.2508 89.2034 8.91638 88.5684 8.07271C89.3715 7.80586 89.3528 6.68677 89.1754 5.8603C89.11 5.55038 89.0446 5.24046 88.9699 4.93917C88.8952 4.5862 88.8112 4.22459 88.7085 3.87163C88.5685 3.41536 88.3817 2.95054 88.0176 2.63201C87.7841 2.4254 87.2332 2.49426 87.3546 2.77835C87.6253 2.08103 87.0931 1.28039 86.4021 0.979084C85.7112 0.677778 84.9175 0.746641 84.1706 0.815515C83.9464 0.428118 83.4422 0.29037 82.9846 0.324806C82.5365 0.359241 82.0976 0.514218 81.6494 0.557259C80.809 0.634742 79.9874 0.281796 79.1564 0.144055C78.3253 -0.00229506 77.3075 0.152659 76.8967 0.893018C76.7939 1.08241 76.8873 1.43538 77.0741 1.33207C76.4485 1.31486 75.7668 1.59031 75.5148 2.15848C75.2626 2.72666 75.7015 3.53593 76.3177 3.48427C75.6828 3.39819 74.9545 3.65645 74.7211 4.24185C74.4783 4.82725 75.0386 5.62785 75.6455 5.45566C75.4868 5.33512 75.2346 5.53318 75.244 5.73114C75.2533 5.92914 75.412 6.0927 75.5801 6.20462C76.4485 6.78144 77.7651 6.52316 78.3347 5.66229C78.5121 6.15297 79.1376 6.3596 79.6418 6.24769C80.1554 6.13577 80.5756 5.7914 80.9771 5.46429C81.7614 5.93777 82.8166 5.93777 83.6103 5.46429C83.6943 5.94639 84.3106 6.24769 84.7495 6.03243C84.7214 6.54036 84.6934 7.03966 84.6654 7.54759C84.8802 7.55621 85.0949 7.56484 85.3097 7.57346C84.7681 7.89196 84.4506 8.53762 84.5347 9.15746C84.7401 9.32965 85.0389 9.15746 85.3003 9.06275C85.9539 8.81309 86.3181 9.43294 86.3929 10.1216C86.4769 10.8104 86.2528 11.3699 85.5618 11.2752C86.1968 11.2752 86.5235 12.205 86.0473 12.5924Z" fill="#C69C6D"/>
<path d="M84.1344 18.0589C81.6039 18.0159 79.419 19.8754 78.4573 22.0275C75.3853 28.9232 78.7654 30.5417 78.2798 37.8591C77.6916 46.6143 74.3208 57.4783 73.9006 66.2426C73.8259 67.7488 74.5822 68.7822 75.2638 69.9871C82.5937 69.6601 89.9516 68.7735 97.2348 67.9295C97.3282 58.2361 95.9742 53.9145 93.2104 44.5654C91.9685 40.3557 88.5043 41.0272 88.3736 36.6711C88.2896 33.8991 90.708 26.2115 90.0543 23.5083C89.4007 20.7965 87.141 18.1105 84.1344 18.0589Z" fill="#537082"/>
<path d="M83.2708 29.9477C82.5705 29.5431 81.8141 29.2074 81.0391 28.9491C80.9364 28.9146 80.8244 28.8802 80.731 28.9233C80.6283 28.9663 80.5816 29.0696 80.5443 29.1729C79.9467 30.7655 79.5265 32.4185 79.2837 34.0886C78.0605 33.0641 76.7439 32.1258 75.4181 31.2132C72.1033 28.9146 68.7231 26.685 65.2869 24.5328C64.708 24.1712 64.1104 23.8011 63.4195 23.715C62.7284 23.6289 61.9348 23.9216 61.7107 24.5242C66.7155 30.1974 72.8595 35.0183 79.7412 38.6512C80.2454 38.9181 80.4602 38.9784 80.8337 39.3572C80.9738 39.4949 81.2259 39.5035 81.4126 39.4174C81.5994 39.3313 81.7301 39.1677 81.8421 39.0128C82.7385 37.7817 83.0093 36.2666 83.2615 34.8031C83.4295 33.8217 83.5789 32.892 84.0271 31.9794C84.1485 31.7125 84.3072 31.4456 84.2979 31.1529C84.2886 30.6278 83.7656 30.2318 83.2708 29.9477Z" fill="#A88B71"/>
<path d="M89.2304 10.4143C89.9027 10.354 90.5938 10.7328 90.8738 11.3009C90.9486 11.4473 90.9953 11.6023 91.1167 11.7228C91.6395 12.2308 92.5639 11.3182 93.2736 11.5765C93.8992 11.8003 93.7871 12.6612 94.1233 13.2035C94.4501 13.7373 95.1784 13.9009 95.804 14.073C96.4389 14.2538 97.1486 14.5895 97.2233 15.2008C97.2513 15.4332 97.1953 15.7001 97.3634 15.8637C97.4754 15.967 97.6435 16.0014 97.7929 16.0358C99.1001 16.3457 99.9685 17.7403 99.6043 18.937C99.5576 19.0919 99.4923 19.2469 99.511 19.4105C99.5763 19.8409 100.165 19.9529 100.594 20.1164C101.911 20.6071 102.303 22.2255 101.911 23.4739C101.873 23.603 101.827 23.7321 101.864 23.8612C101.92 24.0506 102.144 24.1453 102.322 24.2658C102.919 24.679 102.984 25.5227 102.667 26.1512C102.35 26.7796 101.743 27.2272 101.164 27.6663C101.574 28.2689 101.481 29.1212 100.958 29.6463C100.426 30.1628 99.5109 30.3006 98.8293 29.9563C98.6892 30.2748 98.2598 30.3867 97.8862 30.447C97.1019 30.5675 96.3176 30.6708 95.5239 30.7397C94.9262 30.7913 94.1233 30.7053 94.0019 30.1629C93.5163 30.2748 93.0121 30.3781 92.5079 30.3178C92.013 30.2576 91.5088 29.9907 91.3314 29.5603C91.2193 29.2848 91.238 28.949 91.0326 28.7166C90.7898 28.4584 90.3323 28.4583 90.0335 28.2517C89.6693 27.9934 89.6506 27.4855 89.7253 27.0637C89.8094 26.6419 89.9494 26.2028 89.8 25.7982C89.6133 25.2903 89.0344 25.0234 88.6609 24.6102C88.2594 24.1712 88.1193 23.5427 88.2967 22.9831C88.4275 22.5613 88.7355 22.1481 88.6142 21.7263C88.5114 21.3733 88.1566 21.1495 87.9232 20.8568C87.4657 20.2714 87.5497 19.4794 87.6991 18.7734C87.7552 18.498 87.8205 18.1967 87.6991 17.947C87.6244 17.8007 87.4937 17.6801 87.3909 17.551C87.0268 17.0947 86.9801 16.4491 87.2789 15.9584C87.4096 15.7431 87.5964 15.5537 87.6804 15.3127C87.7645 15.0631 87.7271 14.7962 87.6898 14.5465C87.5964 13.9611 87.503 13.3671 87.4096 12.7817C87.2603 11.7917 88.1193 10.509 89.2304 10.4143Z" fill="#C69C6D"/>
<defs>
<linearGradient id="paint0_linear_549_462" x1="10.03" y1="94.7201" x2="60.9306" y2="94.7201" gradientUnits="userSpaceOnUse">
<stop stop-color="#4D4D4D"/>
<stop offset="1"/>
</linearGradient>
<linearGradient id="paint1_linear_549_462" x1="10.03" y1="94.7201" x2="60.9306" y2="94.7201" gradientUnits="userSpaceOnUse">
<stop offset="0.9999" stop-color="#C6C2C2"/>
<stop offset="1" stop-color="#F7F7F7"/>
</linearGradient>
<linearGradient id="paint2_linear_549_462" x1="74.5119" y1="93.8936" x2="98.8372" y2="95.1922" gradientUnits="userSpaceOnUse">
<stop stop-color="white"/>
<stop offset="1"/>
</linearGradient>
<linearGradient id="paint3_linear_549_462" x1="74.5119" y1="93.8936" x2="98.8372" y2="95.1922" gradientUnits="userSpaceOnUse">
<stop/>
<stop offset="1"/>
</linearGradient>
</defs>
</svg>
