<?xml version="1.0" encoding="UTF-8"?><svg xmlns="http://www.w3.org/2000/svg" xmlns:xlink="http://www.w3.org/1999/xlink" viewBox="0 0 167.13 199.27"><defs><style>.g{fill:none;}.h{fill:#fff;}.i{fill:#9db34e;}.j{fill:#b4c563;}.k{fill:#d2dca1;}.l{fill:#89a043;}.m{fill:#494d54;}.n{clip-path:url(#f);}.o{clip-path:url(#e);}.p{clip-path:url(#d);}</style><clipPath id="d"><rect class="g" x="31.63" y="123.85" width="103.9" height="75.42"/></clipPath><clipPath id="e"><rect class="g" x="12.96" width="57.33" height="56.68"/></clipPath><clipPath id="f"><rect class="g" x="96.96" width="57.33" height="56.68"/></clipPath></defs><g id="a"/><g id="b"><g id="c"><path class="l" d="M41.34,156.56s-19.56-24.91-34.67-13.34c-15.11,11.57,16.89,36.47,16.89,36.47,0,0-14.22,5.34-11.55,10.67,2.66,5.34,31.35-1.67,31.35-1.67l-2.02-32.14"/><path class="l" d="M126.68,156.56s19.56-24.91,34.67-13.34c15.11,11.57-16.89,36.47-16.89,36.47,0,0,14.22,5.34,11.55,10.67-2.66,5.34-31.35-1.67-31.35-1.67l2.02-32.14"/><path class="k" d="M53.12,181.96s35.45,22.04,61.23-1.09l-13.45-40.23H62.23l-9.11,41.32"/><g class="p"><path class="j" d="M123.75,188.69c16.61-33.99,3.04-56.99-1.42-63.16-.79-1.1-1.41-1.67-1.41-1.67l-37.56,4.67-37.34-4.67s-.51,.57-1.3,1.67c-4.46,6.17-17.98,29.17-1.37,63.16,0,0-13.33,.83-11.56,6.17s21.33,5.31,25.78,2.64-7.56-51.62,25.78-51.62,21.54,48.95,25.99,51.62c4.44,2.67,24.21,2.7,25.99-2.64,1.78-5.34-11.59-6.17-11.59-6.17"/></g><path class="j" d="M167.13,79.61c0,31.17-37.41,56.44-83.56,56.44S0,110.78,0,79.61,37.42,23.18,83.57,23.18s83.56,25.27,83.56,56.44"/><path class="l" d="M142.85,73.83c0,4.67-1.65,9.11-4.63,13.17-4.48,6.09-11.99,11.29-21.46,14.96-9.47,3.68-20.9,5.83-33.19,5.83-16.4,0-31.24-3.82-41.97-9.99-5.36-3.08-9.69-6.74-12.68-10.8-2.98-4.06-4.63-8.51-4.63-13.17,0-.13-.11-.24-.24-.24s-.24,.11-.24,.24c0,4.78,1.69,9.33,4.72,13.46,4.56,6.19,12.14,11.43,21.67,15.13,9.53,3.7,21.01,5.85,33.37,5.85,16.47,0,31.39-3.83,42.21-10.05,5.41-3.11,9.79-6.81,12.83-10.94s4.72-8.68,4.72-13.46c0-.13-.1-.24-.24-.24s-.24,.11-.24,.24"/><path class="i" d="M83.57,136.05C37.42,136.05,0,110.78,0,79.61c0-4.12,.67-8.13,1.91-11.99,1.78,6.49,4.43,12.68,7.98,17.43,9.14,12.26,11.02,15.13,23.83,23.71,5.41,3.63,12.88,6.04,18.24,8.23,3.66,1.49,7.45,2.35,11.31,3.16,9.29,1.95,18.9,3.64,28.45,3.64,1.22,0,2.45-.03,3.68-.09,23.09-1.11,45.34-9.06,64.77-21.54-12.81,19.81-41.95,33.71-75.95,33.88-.02,0-.03,0-.05,0h-.6"/><g class="o"><path class="j" d="M69.34,28.02c0,15.47-12.54,28.02-28.01,28.02S13.34,43.49,13.34,28.02,25.88,0,41.34,0s28.01,12.54,28.01,28.02"/></g><path class="h" d="M60.45,28.02c0,10.56-8.56,19.13-19.11,19.13s-19.11-8.56-19.11-19.13S30.78,8.9,41.34,8.9s19.11,8.56,19.11,19.13"/><path class="m" d="M42.68,25.82c4.49,0,7.61,2.11,9.39,5.05,.24-.91,.39-1.86,.39-2.85,0-6.14-4.97-11.12-11.11-11.12s-11.11,4.98-11.11,11.12c0,2.19,.64,4.22,1.73,5.95,1.18-4.44,4.75-8.15,10.71-8.15"/><g class="n"><path class="j" d="M97.79,28.02c0,15.47,12.54,28.02,28,28.02s28.01-12.55,28.01-28.02S141.26,0,125.79,0s-28,12.54-28,28.02"/></g><path class="h" d="M106.68,28.02c0,10.56,8.55,19.13,19.11,19.13s19.11-8.56,19.11-19.13-8.55-19.13-19.11-19.13-19.11,8.56-19.11,19.13"/><path class="m" d="M124.46,25.82c-4.49,0-7.63,2.11-9.4,5.05-.24-.91-.38-1.86-.38-2.85,0-6.14,4.97-11.12,11.11-11.12s11.11,4.98,11.11,11.12c0,2.19-.64,4.22-1.73,5.95-1.19-4.44-4.75-8.15-10.71-8.15"/></g></g></svg>