<svg width="360" height="352" viewBox="0 0 360 352" fill="none" xmlns="http://www.w3.org/2000/svg">
<g clip-path="url(#clip0_538_245)">
<path d="M396 -35.2H-36V387.2H396V-35.2Z" fill="white"/>
<path d="M396 -35.2H-36V387.2H396V-35.2Z" fill="white"/>
<path d="M396 -35.2H-36V387.2H396V-35.2Z" fill="white"/>
<path d="M122.832 247.315C122.832 247.315 96.624 214.72 76.392 229.856C56.16 244.992 99 277.587 99 277.587C99 277.587 79.992 284.557 83.52 291.527C87.12 298.496 125.496 289.344 125.496 289.344L122.832 247.315Z" fill="#89A043"/>
<path d="M237.096 247.315C237.096 247.315 263.304 214.72 283.536 229.856C303.768 244.992 260.928 277.587 260.928 277.587C260.928 277.587 279.936 284.557 276.408 291.527C272.808 298.496 234.432 289.344 234.432 289.344L237.096 247.315Z" fill="#89A043"/>
<path d="M138.6 280.544C138.6 280.544 186.048 309.338 220.536 279.136L202.536 226.547H150.768L138.6 280.544Z" fill="#D2DCA1"/>
<path d="M233.208 289.344C255.456 244.922 237.24 214.791 231.264 206.765C230.184 205.357 229.392 204.583 229.392 204.583L179.136 210.707L129.168 204.583C129.168 204.583 128.52 205.357 127.44 206.765C121.464 214.861 103.392 244.922 125.64 289.344C125.64 289.344 107.784 290.471 110.16 297.44C112.536 304.41 138.744 304.41 144.648 300.89C150.624 297.37 134.496 233.376 179.136 233.376C223.776 233.376 208.008 297.37 213.912 300.89C219.888 304.41 246.312 304.41 248.688 297.44C251.064 290.471 233.208 289.344 233.208 289.344Z" fill="#B4C563"/>
<path d="M291.24 146.714C291.24 187.475 241.128 220.493 179.352 220.493C117.576 220.493 67.4639 187.475 67.4639 146.714C67.4639 105.952 117.576 72.864 179.352 72.864C241.2 72.864 291.24 105.952 291.24 146.714Z" fill="#B4C563"/>
<path d="M100.008 183.744C100.008 177.619 102.24 171.846 106.2 166.496C112.176 158.541 122.256 151.782 134.928 146.925C147.6 142.137 162.936 139.321 179.352 139.392C201.312 139.392 221.184 144.461 235.512 152.557C242.712 156.569 248.472 161.427 252.432 166.707C256.392 171.987 258.624 177.83 258.624 183.955C258.624 184.096 258.768 184.237 258.912 184.237C259.056 184.237 259.2 184.096 259.2 183.955C259.2 177.689 256.968 171.776 252.936 166.355C246.816 158.259 236.736 151.36 223.92 146.502C211.176 141.645 195.768 138.829 179.28 138.758C157.248 138.758 137.232 143.686 122.76 151.853C115.488 155.936 109.656 160.723 105.552 166.144C101.448 171.565 99.2158 177.478 99.2158 183.744C99.2158 183.885 99.3598 184.025 99.5038 184.025C99.8638 184.096 100.008 183.955 100.008 183.744Z" fill="#89A043"/>
<path d="M179.424 220.493C117.648 220.493 67.5361 187.475 67.5361 146.714C67.5361 141.293 68.4001 136.083 70.0561 131.014C72.4321 139.533 75.9601 147.558 80.7121 153.824C92.9521 169.875 95.4721 173.606 112.608 184.87C119.88 189.587 129.816 192.755 137.016 195.642C141.912 197.613 146.952 198.739 152.136 199.795C164.592 202.33 177.408 204.582 190.224 204.582C191.88 204.582 193.536 204.512 195.12 204.442C226.008 202.963 255.816 192.614 281.808 176.282C264.672 202.189 225.648 220.352 180.144 220.563H180.072H180H179.928H179.856H179.784H179.712H179.64H179.568H179.496H179.424H179.352C179.352 220.563 179.352 220.563 179.28 220.563C179.424 220.493 179.424 220.493 179.424 220.493Z" fill="#9DB34E"/>
<path d="M160.344 79.1999C160.344 99.4751 143.568 115.878 122.832 115.878C102.096 115.878 85.3198 99.4751 85.3198 79.1999C85.3198 58.9247 102.096 42.5215 122.832 42.5215C143.568 42.5215 160.344 58.9951 160.344 79.1999Z" fill="#B4C563"/>
<path d="M148.464 79.2C148.464 92.9984 137.016 104.192 122.904 104.192C108.792 104.192 97.3438 92.9984 97.3438 79.2C97.3438 65.4016 108.72 54.208 122.832 54.208C136.944 54.208 148.464 65.4016 148.464 79.2Z" fill="white"/>
<path d="M124.632 76.3136C130.608 76.3136 134.856 79.0592 137.232 82.9312C137.52 81.7344 137.736 80.4672 137.736 79.2C137.736 71.1744 131.04 64.6272 122.832 64.6272C114.624 64.6272 107.928 71.104 107.928 79.2C107.928 82.0864 108.792 84.7616 110.232 87.0144C111.888 81.1712 116.64 76.3136 124.632 76.3136Z" fill="#494D54"/>
<path d="M198.432 79.1999C198.432 99.4751 215.208 115.878 235.944 115.878C256.68 115.878 273.456 99.4751 273.456 79.1999C273.456 58.9247 256.68 42.5215 235.944 42.5215C215.208 42.5919 198.432 58.9951 198.432 79.1999Z" fill="#B4C563"/>
<path d="M210.312 79.2C210.312 92.9984 221.76 104.192 235.872 104.192C249.984 104.192 261.432 92.9984 261.432 79.2C261.432 65.4016 250.056 54.208 235.944 54.208C221.76 54.208 210.312 65.4016 210.312 79.2Z" fill="white"/>
<path d="M234.144 76.3136C228.168 76.3136 223.92 79.0592 221.544 82.9312C221.256 81.7344 221.04 80.4672 221.04 79.2C221.04 71.1744 227.664 64.6272 235.944 64.6272C244.152 64.6272 250.848 71.104 250.848 79.2C250.848 82.0864 249.984 84.7616 248.544 87.0144C246.888 81.1712 242.136 76.3136 234.144 76.3136Z" fill="#494D54"/>
</g>
<defs>
<clipPath id="clip0_538_245">
<rect width="360" height="352" fill="white"/>
</clipPath>
</defs>
</svg>