<svg width="216" height="169" viewBox="0 0 216 169" fill="none" xmlns="http://www.w3.org/2000/svg">
<path d="M171.841 96.011C117.512 136.307 133.908 117.912 129.753 168.983" stroke="#B5C462" stroke-width="2"/>
<rect width="23.4934" height="59.8264" rx="11.7467" transform="matrix(-0.772212 -0.615434 -0.800671 0.636857 213.803 77.8428)" fill="#B7AB95"/>
<path d="M64.5564 61.7998C145.105 121.988 120.328 94.6589 130.098 169.82" stroke="#B5C462" stroke-width="2"/>
<rect width="32.9077" height="89.1457" rx="16.4539" transform="matrix(0.753554 -0.636442 0.798834 0.637716 3.31689 34.3599)" fill="#B7AB95"/>
<line x1="129.02" y1="168.661" x2="129.02" y2="72.2746" stroke="#B5C462" stroke-width="2"/>
<path d="M143.315 30.5784C143.743 24.1842 139.913 19.5558 134.193 19.5557C126.672 19.5555 119.205 27.3902 118.731 35.7782L116.1 82.3471C115.742 88.6821 119.57 93.2384 125.25 93.2384C133.084 93.2384 140.764 84.793 140.764 76.179L140.764 68.6626L143.315 30.5784Z" fill="#B7AB95"/>
</svg>
