<?xml version="1.0" standalone="no"?>
<!DOCTYPE svg PUBLIC "-//W3C//DTD SVG 20010904//EN"
 "http://www.w3.org/TR/2001/REC-SVG-20010904/DTD/svg10.dtd">
<svg version="1.0" xmlns="http://www.w3.org/2000/svg"
 width="500.000000pt" height="500.000000pt" viewBox="0 0 500.000000 500.000000"
 preserveAspectRatio="xMidYMid meet">

<g transform="translate(0.000000,500.000000) scale(0.100000,-0.100000)"
fill="#000000" stroke="none">
<path d="M592 3249 c-50 -15 -85 -83 -67 -132 5 -10 14 -6 39 19 41 41 97 46
139 14 31 -25 38 -16 23 29 -19 57 -75 86 -134 70z"/>
<path d="M1440 3253 c-56 -18 -90 -59 -90 -109 0 -16 2 -16 20 1 11 10 42 20
70 23 48 4 52 3 85 -32 33 -35 35 -36 37 -14 4 69 -13 101 -69 124 -18 8 -34
14 -35 13 -2 0 -10 -3 -18 -6z"/>
</g>
</svg>
