<?xml version="1.0" encoding="UTF-8"?><svg xmlns="http://www.w3.org/2000/svg" xmlns:xlink="http://www.w3.org/1999/xlink" viewBox="0 0 164.41 195.36"><defs><style>.g{fill:none;}.h{fill:#fff;}.i{fill:#9db34e;}.j{fill:#b4c563;}.k{fill:#d2dca1;}.l{fill:#89a043;}.m{fill:#494d54;}.n{clip-path:url(#f);}.o{clip-path:url(#e);}.p{clip-path:url(#d);}</style><clipPath id="d"><rect class="g" x="31.09" y="121.42" width="102.22" height="73.94"/></clipPath><clipPath id="e"><rect class="g" x="12.57" width="56" height="55.67"/></clipPath><clipPath id="f"><rect class="g" x="95.23" width="57.33" height="55.67"/></clipPath></defs><g id="a"/><g id="b"><g id="c"><path class="l" d="M40.66,153.49s-19.24-24.42-34.1-13.08c-14.86,11.33,16.61,35.76,16.61,35.76,0,0-13.99,5.23-11.37,10.46,2.63,5.23,30.84-1.64,30.84-1.64l-1.98-31.51"/><path class="l" d="M124.61,153.49s19.24-24.42,34.1-13.08c14.87,11.33-16.61,35.76-16.61,35.76,0,0,13.99,5.23,11.37,10.46-2.63,5.23-30.84-1.64-30.84-1.64l1.98-31.51"/><path class="k" d="M52.25,178.39s34.87,21.61,60.23-1.07l-13.23-39.44H61.21l-8.96,40.51"/><g class="p"><path class="j" d="M121.73,184.99c16.33-33.32,2.98-55.88-1.4-61.93-.78-1.07-1.39-1.63-1.39-1.63l-36.95,4.58-36.73-4.58s-.49,.55-1.28,1.63c-4.38,6.05-17.68,28.6-1.34,61.93,0,0-13.12,.82-11.37,6.05,1.75,5.23,20.99,5.2,25.36,2.59,4.38-2.61-7.43-50.61,25.36-50.61s21.2,47.99,25.57,50.61c4.38,2.61,23.82,2.64,25.57-2.59,1.74-5.23-11.4-6.05-11.4-6.05"/></g><path class="j" d="M164.41,78.05c0,30.56-36.8,55.33-82.2,55.33S0,108.61,0,78.05,36.8,22.72,82.2,22.72s82.2,24.77,82.2,55.33"/><path class="l" d="M140.52,72.39c0,4.57-1.61,8.93-4.55,12.91-4.41,5.97-11.8,11.07-21.11,14.67-9.31,3.6-20.55,5.71-32.65,5.71-16.14,0-30.74-3.74-41.29-9.79-5.28-3.02-9.54-6.61-12.48-10.59s-4.55-8.34-4.55-12.91c0-.13-.11-.23-.24-.23s-.23,.1-.23,.23c0,4.69,1.66,9.15,4.65,13.19,4.48,6.06,11.94,11.2,21.32,14.83,9.38,3.63,20.67,5.74,32.83,5.74,16.2,0,30.88-3.76,41.53-9.85,5.32-3.05,9.63-6.68,12.62-10.72,2.99-4.05,4.65-8.51,4.65-13.19,0-.13-.1-.23-.23-.23s-.24,.1-.24,.23"/><path class="i" d="M82.2,133.39C36.8,133.39,0,108.61,0,78.05c0-4.04,.66-7.96,1.88-11.76,1.75,6.36,4.36,12.43,7.85,17.09,8.99,12.02,10.84,14.83,23.45,23.25,5.32,3.55,12.66,5.92,17.94,8.07,3.6,1.46,7.33,2.31,11.13,3.1,9.15,1.91,18.59,3.56,27.98,3.56,1.21,0,2.41-.03,3.62-.08,22.72-1.09,44.6-8.89,63.71-21.11-12.6,19.42-41.27,33.05-74.71,33.22h-.64"/><g class="o"><path class="j" d="M68.21,27.47c0,15.17-12.33,27.47-27.55,27.47S13.12,42.65,13.12,27.47,25.45,0,40.66,0s27.55,12.3,27.55,27.47"/></g><path class="h" d="M59.46,27.47c0,10.35-8.42,18.75-18.8,18.75s-18.8-8.4-18.8-18.75S30.28,8.72,40.66,8.72s18.8,8.39,18.8,18.75"/><path class="m" d="M41.97,25.31c4.42,0,7.49,2.07,9.24,4.95,.24-.89,.38-1.83,.38-2.79,0-6.02-4.9-10.9-10.94-10.9s-10.93,4.88-10.93,10.9c0,2.15,.63,4.14,1.7,5.83,1.17-4.35,4.68-7.99,10.54-7.99"/><g class="n"><path class="j" d="M96.19,27.47c0,15.17,12.33,27.47,27.55,27.47s27.55-12.3,27.55-27.47S138.96,0,123.74,0s-27.55,12.3-27.55,27.47"/></g><path class="h" d="M104.94,27.47c0,10.35,8.41,18.75,18.8,18.75s18.8-8.4,18.8-18.75-8.41-18.75-18.8-18.75-18.8,8.39-18.8,18.75"/><path class="m" d="M122.43,25.31c-4.42,0-7.5,2.07-9.24,4.95-.23-.89-.38-1.83-.38-2.79,0-6.02,4.89-10.9,10.93-10.9s10.93,4.88,10.93,10.9c0,2.15-.63,4.14-1.7,5.83-1.17-4.35-4.67-7.99-10.54-7.99"/></g></g></svg>