<svg width="223" height="230" viewBox="0 0 223 230" fill="none" xmlns="http://www.w3.org/2000/svg">
<g clip-path="url(#clip0_181_688)">
<path d="M76.1081 133.42C76.1081 133.42 59.8895 112.226 47.3573 122.066C34.8252 131.905 61.3645 153.1 61.3645 153.1C61.3645 153.1 49.5688 157.642 51.7802 162.181C53.9916 166.723 77.7783 160.762 77.7783 160.762L76.1081 133.42Z" fill="#89A043"/>
<path d="M146.878 133.42C146.878 133.42 163.097 112.226 175.629 122.066C188.161 131.905 161.622 153.1 161.622 153.1C161.622 153.1 173.417 157.642 171.204 162.181C168.995 166.723 145.208 160.762 145.208 160.762L146.878 133.42Z" fill="#89A043"/>
<path d="M85.876 155.03C85.876 155.03 115.272 173.784 136.65 154.104L125.5 119.876H93.4324L85.876 155.03Z" fill="#D2DCA1"/>
<path d="M144.448 160.762C158.219 131.841 146.964 112.264 143.266 107.016C142.611 106.083 142.1 105.601 142.1 105.601L110.952 109.575L79.9897 105.601C79.9897 105.601 79.5715 106.083 78.9142 107.016C75.2184 112.264 64.008 131.841 77.7783 160.762C77.7783 160.762 66.7212 161.473 68.1939 166.014C69.669 170.554 85.8876 170.532 89.574 168.261C93.2605 165.991 83.3068 124.336 110.952 124.336C138.599 124.336 128.817 165.991 132.504 168.261C136.19 170.532 152.581 170.554 154.056 166.014C155.529 161.473 144.448 160.762 144.448 160.762Z" fill="#B4C563"/>
<path d="M180.421 67.9475C180.421 94.4686 149.396 115.968 111.124 115.968C72.8537 115.968 41.8289 94.4686 41.8289 67.9475C41.8289 41.4241 72.8537 19.9243 111.124 19.9243C149.396 19.9243 180.421 41.4241 180.421 67.9475Z" fill="#B4C563"/>
<path d="M160.288 63.0264C160.288 66.9958 158.925 70.779 156.448 74.2307C152.732 79.4119 146.504 83.8392 138.653 86.9665C130.799 90.0938 121.324 91.921 111.124 91.921C97.5253 91.9234 85.2138 88.6697 76.3194 83.4265C71.8733 80.8026 68.2798 77.6848 65.8035 74.2307C63.325 70.779 61.9638 66.9958 61.9638 63.0264C61.9638 62.9143 61.8732 62.8213 61.764 62.8213C61.6525 62.8213 61.5642 62.9143 61.5642 63.0264C61.5642 67.0936 62.9626 70.9651 65.4806 74.4764C69.26 79.7387 75.5505 84.1994 83.4531 87.3481C91.3579 90.4969 100.877 92.3313 111.124 92.3337C124.787 92.3313 137.157 89.068 146.13 83.7819C150.616 81.1365 154.251 77.9854 156.769 74.4764C159.287 70.9651 160.688 67.0936 160.688 63.0264C160.688 62.9143 160.597 62.8213 160.488 62.8213C160.376 62.8213 160.288 62.9143 160.288 63.0264Z" fill="#89A043"/>
<path d="M111.161 115.971C111.166 115.971 111.166 115.971 111.17 115.971C111.168 115.971 111.166 115.971 111.161 115.971ZM111.205 115.971H111.207H111.205ZM111.245 115.971C111.249 115.971 111.249 115.971 111.254 115.971C111.251 115.971 111.247 115.971 111.245 115.971ZM111.289 115.968C111.291 115.968 111.289 115.968 111.291 115.968C111.289 115.968 111.289 115.968 111.289 115.968ZM111.328 115.968C111.33 115.968 111.333 115.968 111.335 115.968C111.333 115.968 111.333 115.968 111.328 115.968ZM111.372 115.968C111.375 115.968 111.372 115.968 111.375 115.968H111.372ZM111.412 115.968C111.414 115.968 111.419 115.968 111.421 115.968C111.416 115.968 111.416 115.968 111.412 115.968ZM111.454 115.968C111.456 115.968 111.456 115.968 111.458 115.968C111.456 115.968 111.456 115.968 111.454 115.968ZM111.495 115.968C111.498 115.968 111.5 115.968 111.502 115.968C111.5 115.968 111.5 115.968 111.495 115.968ZM111.581 115.968C111.584 115.968 111.581 115.968 111.584 115.968H111.581ZM111.621 115.968H111.623H111.621Z" fill="#9DB34E"/>
<path d="M111.124 115.968C72.8561 115.968 41.8289 94.4686 41.8289 67.9475C41.8289 64.4433 42.3864 61.0322 43.4108 57.7427C44.8858 63.2673 47.0879 68.5271 50.0264 72.5752C57.6061 83.0042 59.1671 85.4493 69.7945 92.7534C74.2777 95.8378 80.4683 97.8916 84.9213 99.7546C87.955 101.021 91.0979 101.758 94.2966 102.445C102.006 104.101 109.969 105.539 117.888 105.539C118.903 105.539 119.923 105.515 120.938 105.465C140.088 104.521 158.539 97.7509 174.649 87.1382C164.028 103.996 139.858 115.818 111.665 115.968C111.651 115.968 111.637 115.968 111.623 115.968H111.621C111.609 115.968 111.598 115.968 111.584 115.968C111.581 115.968 111.584 115.968 111.581 115.968C111.567 115.968 111.556 115.968 111.542 115.968H111.54C111.528 115.968 111.514 115.968 111.502 115.968C111.5 115.968 111.498 115.968 111.495 115.968C111.484 115.968 111.47 115.968 111.458 115.968C111.456 115.968 111.456 115.968 111.454 115.968C111.444 115.968 111.43 115.968 111.421 115.968C111.419 115.968 111.414 115.968 111.412 115.968C111.4 115.968 111.386 115.968 111.375 115.968C111.372 115.968 111.375 115.968 111.372 115.968C111.361 115.968 111.349 115.968 111.335 115.968C111.333 115.968 111.331 115.968 111.328 115.968C111.317 115.968 111.303 115.968 111.291 115.968C111.289 115.968 111.291 115.968 111.289 115.968C111.277 115.968 111.265 115.968 111.254 115.968C111.249 115.968 111.249 115.968 111.245 115.968C111.233 115.968 111.221 115.968 111.207 115.968H111.205C111.193 115.968 111.184 115.968 111.17 115.968C111.166 115.968 111.166 115.968 111.161 115.968C111.149 115.968 111.138 115.968 111.124 115.968Z" fill="#9DB34E"/>
<path d="M99.3302 24.0463C99.3302 37.2138 88.9329 47.8886 76.1081 47.8886C63.2832 47.8886 52.8882 37.2138 52.8882 24.0463C52.8882 10.8788 63.2832 0.204102 76.1081 0.204102C88.9329 0.204102 99.3302 10.8788 99.3302 24.0463Z" fill="#B4C563"/>
<path d="M91.9573 24.0463C91.9573 33.0345 84.8631 40.3196 76.108 40.3196C67.353 40.3196 60.2588 33.0345 60.2588 24.0463C60.2588 15.058 67.353 7.77295 76.108 7.77295C84.8631 7.77295 91.9573 15.058 91.9573 24.0463Z" fill="white"/>
<path d="M77.216 22.1739C80.9396 22.1739 83.532 23.9701 85.0071 26.47C85.2068 25.6972 85.3253 24.8861 85.3253 24.0464C85.3253 18.82 81.1975 14.5835 76.108 14.5835C71.0184 14.5835 66.8953 18.82 66.8953 24.0464C66.8953 25.9095 67.4272 27.6437 68.3331 29.1083C69.3157 25.3298 72.2728 22.1739 77.216 22.1739Z" fill="#494D54"/>
<path d="M122.919 24.0463C122.919 37.2138 133.314 47.8886 146.139 47.8886C158.966 47.8886 169.361 37.2138 169.361 24.0463C169.361 10.8788 158.966 0.204102 146.139 0.204102C133.314 0.204102 122.919 10.8788 122.919 24.0463Z" fill="#B4C563"/>
<path d="M130.292 24.0463C130.292 33.0345 137.387 40.3196 146.142 40.3196C154.897 40.3196 161.991 33.0345 161.991 24.0463C161.991 15.058 154.897 7.77295 146.142 7.77295C137.387 7.77295 130.292 15.058 130.292 24.0463Z" fill="white"/>
<path d="M145.036 22.1739C141.312 22.1739 138.718 23.9701 137.243 26.47C137.045 25.6972 136.927 24.8861 136.927 24.0464C136.927 18.82 141.052 14.5835 146.142 14.5835C151.231 14.5835 155.357 18.82 155.357 24.0464C155.357 25.9095 154.827 27.6437 153.919 29.1083C152.934 25.3298 149.979 22.1739 145.036 22.1739Z" fill="#494D54"/>
<path d="M12.5159 193.499H23.1177V207.096C20.2372 208.107 17.0711 208.613 13.6216 208.613C9.83522 208.613 6.90835 207.487 4.84095 205.235C2.7782 202.979 1.74683 199.763 1.74683 195.589C1.74683 191.519 2.87576 188.351 5.13828 186.085C7.40545 183.822 10.5762 182.688 14.653 182.688C16.1954 182.688 17.6495 182.839 19.02 183.137C20.3952 183.437 21.5938 183.814 22.6159 184.272L20.516 189.616C18.7436 188.719 16.7993 188.27 14.6808 188.27C12.7412 188.27 11.2429 188.919 10.1837 190.217C9.12906 191.51 8.60408 193.356 8.60408 195.761C8.60408 198.122 9.08027 199.921 10.035 201.161C10.9944 202.397 12.3765 203.012 14.1791 203.012C15.164 203.012 16.0699 202.914 16.9015 202.716V198.766H12.5159V193.499Z" fill="#B5C462"/>
<path d="M39.2272 188.375C39.7963 188.375 40.3375 188.423 40.8532 188.518L41.2249 188.585L40.6395 194.949C40.1006 194.811 39.3526 194.74 38.4002 194.74C36.9693 194.74 35.9286 195.078 35.2782 195.751C34.6278 196.426 34.3026 197.397 34.3026 198.661V208.27H27.7334V188.719H32.6208L33.6522 191.848H33.9681C34.5117 190.813 35.2736 189.976 36.2539 189.339C37.2388 188.697 38.2283 188.375 39.2272 188.375Z" fill="#B5C462"/>
<path d="M53.0657 208.613C49.8926 208.613 47.4303 207.75 45.6789 206.018C43.9251 204.288 43.0493 201.824 43.0493 198.623C43.0493 195.322 43.86 192.791 45.4837 191.028C47.1121 189.26 49.4327 188.375 52.4432 188.375C55.3097 188.375 57.5257 189.146 59.0867 190.684C60.6524 192.218 61.4375 194.429 61.4375 197.316V200.312H49.6929C49.7347 201.407 50.1226 202.266 50.8543 202.888C51.5907 203.513 52.5919 203.823 53.8555 203.823C55.0077 203.823 56.0669 203.713 57.0333 203.489C58.0043 203.26 59.0589 202.876 60.1924 202.335V207.182C59.1564 207.723 58.0925 208.095 56.9961 208.298C55.8997 208.508 54.5896 208.613 53.0657 208.613ZM52.6848 192.965C51.9089 192.965 51.2632 193.218 50.7428 193.719C50.2225 194.222 49.9159 195.007 49.8229 196.075H55.4723C55.4467 195.128 55.1842 194.375 54.6825 193.814C54.1854 193.249 53.521 192.965 52.6848 192.965Z" fill="#B5C462"/>
<path d="M77.1572 208.27V197.612C77.1572 196.309 76.9737 195.326 76.609 194.663C76.242 194.002 75.6566 193.671 74.8529 193.671C73.7425 193.671 72.9411 194.126 72.4463 195.035C71.9562 195.947 71.7123 197.504 71.7123 199.711V208.27H65.1431V188.719H70.0955L70.9225 191.142H71.3127C71.8702 190.222 72.6438 189.53 73.6357 189.072C74.6252 188.609 75.7658 188.375 77.055 188.375C79.1595 188.375 80.7995 189.003 81.9703 190.255C83.141 191.51 83.7264 193.275 83.7264 195.551V208.27H77.1572Z" fill="#B5C462"/>
<path d="M106.365 198.451C106.365 201.652 105.529 204.145 103.856 205.932C102.184 207.721 99.8374 208.613 96.8222 208.613C93.9348 208.613 91.6375 207.702 89.9278 205.875C88.2181 204.043 87.3633 201.569 87.3633 198.451C87.3633 195.264 88.1995 192.791 89.872 191.028C91.5492 189.26 93.9 188.375 96.9244 188.375C98.7944 188.375 100.446 188.786 101.877 189.606C103.312 190.422 104.418 191.591 105.194 193.117C105.975 194.639 106.365 196.416 106.365 198.451ZM94.0347 198.451C94.0347 200.131 94.2507 201.414 94.6851 202.297C95.1242 203.174 95.8605 203.613 96.8965 203.613C97.9117 203.613 98.6294 203.174 99.0522 202.297C99.4727 201.414 99.684 200.131 99.684 198.451C99.684 196.786 99.4703 195.527 99.0429 194.673C98.6155 193.821 97.8861 193.394 96.8594 193.394C95.8489 193.394 95.1242 193.819 94.6851 194.663C94.2507 195.51 94.0347 196.772 94.0347 198.451Z" fill="#B5C462"/>
<path d="M123.668 208.27L122.851 205.836H122.46C121.908 206.733 121.143 207.42 120.165 207.897C119.185 208.375 118.038 208.613 116.718 208.613C114.623 208.613 112.992 207.991 111.822 206.743C110.655 205.498 110.075 203.735 110.075 201.457V188.719H116.644V199.405C116.644 200.679 116.82 201.643 117.174 202.297C117.527 202.953 118.107 203.279 118.92 203.279C120.047 203.279 120.853 202.826 121.336 201.915C121.819 200.999 122.061 199.453 122.061 197.278V188.719H128.63V208.27H123.668Z" fill="#B5C462"/>
<path d="M139.766 208.27H133.196V188.719H139.766V208.27ZM133.029 183.862C133.029 182.846 133.301 182.092 133.847 181.601C134.397 181.105 135.282 180.856 136.504 180.856C137.724 180.856 138.613 181.112 139.171 181.62C139.733 182.123 140.016 182.87 140.016 183.862C140.016 185.842 138.846 186.83 136.504 186.83C134.186 186.83 133.029 185.842 133.029 183.862Z" fill="#B5C462"/>
<path d="M150.916 208.27H144.347V181.429H150.916V208.27Z" fill="#B5C462"/>
<path d="M162.036 208.27H155.467V181.429H162.036V208.27Z" fill="#B5C462"/>
<path d="M175.777 208.613C172.604 208.613 170.142 207.75 168.39 206.018C166.636 204.288 165.761 201.824 165.761 198.623C165.761 195.322 166.571 192.791 168.195 191.028C169.823 189.26 172.144 188.375 175.154 188.375C178.021 188.375 180.237 189.146 181.798 190.684C183.364 192.218 184.149 194.429 184.149 197.316V200.312H172.404C172.446 201.407 172.834 202.266 173.566 202.888C174.302 203.513 175.303 203.823 176.567 203.823C177.719 203.823 178.778 203.713 179.745 203.489C180.716 203.26 181.77 202.876 182.904 202.335V207.182C181.868 207.723 180.804 208.095 179.707 208.298C178.611 208.508 177.301 208.613 175.777 208.613ZM175.396 192.965C174.62 192.965 173.974 193.218 173.454 193.719C172.934 194.222 172.627 195.007 172.534 196.075H178.184C178.158 195.128 177.896 194.375 177.394 193.814C176.897 193.249 176.232 192.965 175.396 192.965Z" fill="#B5C462"/>
<path d="M199.348 188.375C199.917 188.375 200.458 188.423 200.974 188.518L201.346 188.585L200.76 194.949C200.221 194.811 199.473 194.74 198.521 194.74C197.09 194.74 196.049 195.078 195.399 195.751C194.749 196.426 194.423 197.397 194.423 198.661V208.27H187.854V188.719H192.742L193.773 191.848H194.089C194.632 190.813 195.394 189.976 196.375 189.339C197.36 188.697 198.349 188.375 199.348 188.375Z" fill="#B5C462"/>
<path d="M213.187 208.613C210.014 208.613 207.551 207.75 205.8 206.018C204.046 204.288 203.17 201.824 203.17 198.623C203.17 195.322 203.981 192.791 205.605 191.028C207.233 189.26 209.554 188.375 212.564 188.375C215.431 188.375 217.647 189.146 219.208 190.684C220.773 192.218 221.559 194.429 221.559 197.316V200.312H209.814C209.856 201.407 210.244 202.266 210.975 202.888C211.712 203.513 212.713 203.823 213.976 203.823C215.129 203.823 216.188 203.713 217.154 203.489C218.125 203.26 219.18 202.876 220.313 202.335V207.182C219.277 207.723 218.214 208.095 217.117 208.298C216.021 208.508 214.711 208.613 213.187 208.613ZM212.806 192.965C212.03 192.965 211.384 193.218 210.864 193.719C210.343 194.222 210.037 195.007 209.944 196.075H215.593C215.568 195.128 215.305 194.375 214.803 193.814C214.306 193.249 213.642 192.965 212.806 192.965Z" fill="#B5C462"/>
</g>
<defs>
<clipPath id="clip0_181_688">
<rect width="223" height="229" fill="white" transform="translate(0 0.204102)"/>
</clipPath>
</defs>
</svg>
